<svg width="189" height="56" viewBox="0 0 189 56" fill="none" xmlns="http://www.w3.org/2000/svg">
<path d="M182.276 56H6.6206C2.9708 56 0 53.0208 0 49.3738V6.6164C0 2.968 2.9708 0 6.6206 0H182.276C185.924 0 189 2.968 189 6.6164V49.3738C189 53.0208 185.924 56 182.276 56Z" fill="#A6A6A6"/>
<path d="M187.645 49.3753C187.645 52.3377 185.245 54.7373 182.277 54.7373H6.62069C3.65409 54.7373 1.24609 52.3377 1.24609 49.3753V6.61509C1.24609 3.65409 3.65409 1.24609 6.62069 1.24609H182.276C185.245 1.24609 187.644 3.65409 187.644 6.61509L187.645 49.3753Z" fill="black"/>
<path d="M42.1807 27.6977C42.1401 23.1855 45.8753 20.9903 46.0461 20.8881C43.9307 17.8039 40.6519 17.3825 39.4997 17.3489C36.7459 17.0591 34.0747 18.9967 32.6719 18.9967C31.2411 18.9967 29.0809 17.3769 26.7527 17.4245C23.7567 17.4707 20.9539 19.2053 19.4167 21.8989C16.2443 27.3911 18.6103 35.4621 21.6497 39.9015C23.1701 42.0757 24.9467 44.5033 27.2721 44.4179C29.5471 44.3241 30.3969 42.9675 33.1423 42.9675C35.8625 42.9675 36.6605 44.4179 39.0321 44.3633C41.4737 44.3241 43.0109 42.1793 44.4781 39.9855C46.2351 37.4935 46.9407 35.0393 46.9687 34.9133C46.9113 34.8937 42.2269 33.1059 42.1807 27.6977Z" fill="white"/>
<path d="M37.7018 14.4287C38.9254 12.8985 39.7626 10.8167 39.5302 8.7041C37.7592 8.7825 35.5444 9.9291 34.269 11.4257C33.1406 12.7445 32.1326 14.9061 32.393 16.9389C34.3824 17.0873 36.425 15.9351 37.7018 14.4287Z" fill="white"/>
<path d="M75.104 44.1048H71.9246L70.183 38.6322H64.1294L62.4704 44.1048H59.375L65.3726 25.4736H69.077L75.104 44.1048ZM69.658 36.3362L68.083 31.4712C67.9164 30.9742 67.6042 29.8038 67.1436 27.9614H67.0876C66.9042 28.7538 66.6088 29.9242 66.2028 31.4712L64.6558 36.3362H69.658Z" fill="white"/>
<path d="M90.5272 37.2233C90.5272 39.5081 89.9098 41.3141 88.675 42.6399C87.569 43.8201 86.1956 44.4095 84.5562 44.4095C82.7866 44.4095 81.5154 43.7739 80.7412 42.5027H80.6852V49.5797H77.7004V35.0939C77.7004 33.6575 77.6626 32.1833 77.5898 30.6713H80.2148L80.3814 32.8007H80.4374C81.4328 31.1963 82.9434 30.3955 84.9706 30.3955C86.5554 30.3955 87.8784 31.0213 88.9368 32.2743C89.998 33.5287 90.5272 35.1779 90.5272 37.2233ZM87.4864 37.3325C87.4864 36.0249 87.1924 34.9469 86.6016 34.0985C85.9562 33.2137 85.0896 32.7713 84.0032 32.7713C83.2668 32.7713 82.5976 33.0177 81.9998 33.5035C81.4006 33.9935 81.0086 34.6333 80.8252 35.4257C80.7328 35.7953 80.6866 36.0977 80.6866 36.3357V38.5757C80.6866 39.5529 80.9862 40.3775 81.5854 41.0509C82.1846 41.7243 82.963 42.0603 83.9206 42.0603C85.0448 42.0603 85.9198 41.6263 86.5456 40.7611C87.1728 39.8945 87.4864 38.7521 87.4864 37.3325Z" fill="white"/>
<path d="M105.979 37.2233C105.979 39.5081 105.362 41.3141 104.125 42.6399C103.021 43.8201 101.647 44.4095 100.008 44.4095C98.2384 44.4095 96.9672 43.7739 96.1944 42.5027H96.1384V49.5797H93.1536V35.0939C93.1536 33.6575 93.1158 32.1833 93.043 30.6713H95.668L95.8346 32.8007H95.8906C96.8846 31.1963 98.3952 30.3955 100.424 30.3955C102.007 30.3955 103.33 31.0213 104.391 32.2743C105.448 33.5287 105.979 35.1779 105.979 37.2233ZM102.938 37.3325C102.938 36.0249 102.643 34.9469 102.052 34.0985C101.407 33.2137 100.543 32.7713 99.455 32.7713C98.7172 32.7713 98.0494 33.0177 97.4502 33.5035C96.851 33.9935 96.4604 34.6333 96.277 35.4257C96.186 35.7953 96.1384 36.0977 96.1384 36.3357V38.5757C96.1384 39.5529 96.438 40.3775 97.0344 41.0509C97.6336 41.7229 98.412 42.0603 99.3724 42.0603C100.497 42.0603 101.372 41.6263 101.997 40.7611C102.625 39.8945 102.938 38.7521 102.938 37.3325Z" fill="white"/>
<path d="M123.254 38.8806C123.254 40.4654 122.704 41.7548 121.599 42.7502C120.385 43.838 118.695 44.3812 116.524 44.3812C114.519 44.3812 112.912 43.9948 111.695 43.2206L112.387 40.7328C113.697 41.5252 115.135 41.9228 116.702 41.9228C117.826 41.9228 118.701 41.668 119.33 41.1612C119.955 40.6544 120.268 39.974 120.268 39.1256C120.268 38.3696 120.01 37.7326 119.493 37.216C118.98 36.6994 118.121 36.2192 116.923 35.7754C113.661 34.5588 112.031 32.7766 112.031 30.433C112.031 28.9014 112.603 27.6456 113.746 26.6684C114.886 25.6898 116.406 25.2012 118.308 25.2012C120.003 25.2012 121.411 25.4966 122.536 26.086L121.789 28.5192C120.739 27.948 119.552 27.6624 118.224 27.6624C117.174 27.6624 116.353 27.9214 115.765 28.4366C115.268 28.8972 115.019 29.4586 115.019 30.1236C115.019 30.86 115.303 31.469 115.874 31.9478C116.371 32.3902 117.274 32.869 118.585 33.3856C120.188 34.031 121.365 34.7856 122.123 35.6508C122.877 36.5132 123.254 37.5926 123.254 38.8806Z" fill="white"/>
<path d="M133.123 32.9106H129.833V39.4332C129.833 41.0922 130.413 41.921 131.575 41.921C132.108 41.921 132.55 41.8748 132.9 41.7824L132.983 44.049C132.395 44.2688 131.621 44.3794 130.662 44.3794C129.483 44.3794 128.562 44.0196 127.897 43.3014C127.235 42.5818 126.901 41.375 126.901 39.6796V32.9078H124.941V30.6678H126.901V28.208L129.833 27.3232V30.6678H133.123V32.9106Z" fill="white"/>
<path d="M147.967 37.2775C147.967 39.3425 147.376 41.0379 146.198 42.3637C144.961 43.7287 143.321 44.4091 141.275 44.4091C139.304 44.4091 137.735 43.7553 136.564 42.4477C135.394 41.1401 134.809 39.4895 134.809 37.5001C134.809 35.4183 135.411 33.7131 136.619 32.3873C137.824 31.0601 139.451 30.3965 141.496 30.3965C143.468 30.3965 145.054 31.0503 146.251 32.3593C147.396 33.6291 147.967 35.2685 147.967 37.2775ZM144.87 37.3741C144.87 36.1351 144.606 35.0725 144.07 34.1863C143.444 33.1139 142.549 32.5791 141.39 32.5791C140.19 32.5791 139.279 33.1153 138.653 34.1863C138.117 35.0739 137.852 36.1533 137.852 37.4301C137.852 38.6691 138.117 39.7317 138.653 40.6165C139.298 41.6889 140.2 42.2237 141.363 42.2237C142.503 42.2237 143.398 41.6777 144.043 40.5885C144.593 39.6855 144.87 38.6117 144.87 37.3741Z" fill="white"/>
<path d="M157.672 33.2963C157.377 33.2417 157.062 33.2137 156.731 33.2137C155.681 33.2137 154.869 33.6099 154.298 34.4037C153.801 35.1037 153.552 35.9885 153.552 37.0567V44.1057H150.568L150.596 34.9021C150.596 33.3537 150.559 31.9439 150.484 30.6727H153.084L153.193 33.2431H153.276C153.591 32.3597 154.088 31.6485 154.768 31.1151C155.433 30.6349 156.152 30.3955 156.926 30.3955C157.202 30.3955 157.451 30.4151 157.672 30.4501V33.2963Z" fill="white"/>
<path d="M171.021 36.7527C171.021 37.2875 170.986 37.7383 170.912 38.1065H161.958C161.993 39.4337 162.425 40.4487 163.257 41.1487C164.011 41.7745 164.987 42.0881 166.186 42.0881C167.511 42.0881 168.721 41.8767 169.809 41.4525L170.276 43.5245C169.005 44.0789 167.504 44.3547 165.773 44.3547C163.689 44.3547 162.054 43.7415 160.864 42.5165C159.677 41.2915 159.082 39.6465 159.082 37.5829C159.082 35.5571 159.635 33.8701 160.742 32.5247C161.902 31.0883 163.468 30.3701 165.439 30.3701C167.376 30.3701 168.841 31.0883 169.837 32.5247C170.625 33.6657 171.021 35.0769 171.021 36.7527ZM168.175 35.9785C168.195 35.0937 168 34.3293 167.595 33.6839C167.079 32.8537 166.285 32.4393 165.217 32.4393C164.241 32.4393 163.447 32.8439 162.841 33.6559C162.344 34.3013 162.049 35.0755 161.958 35.9771H168.175V35.9785Z" fill="white"/>
<path d="M68.6681 14.0132C68.6681 15.661 68.1739 16.9014 67.1869 17.7344C66.2727 18.503 64.9735 18.888 63.2907 18.888C62.4563 18.888 61.7423 18.8516 61.1445 18.7788V9.77536C61.9243 9.64936 62.7643 9.58496 63.6715 9.58496C65.2745 9.58496 66.4827 9.93356 67.2975 10.6308C68.2103 11.419 68.6681 12.546 68.6681 14.0132ZM67.1211 14.0538C67.1211 12.9856 66.8383 12.1666 66.2727 11.5954C65.7071 11.0256 64.8811 10.74 63.7933 10.74C63.3313 10.74 62.9379 10.7708 62.6117 10.8352V17.6798C62.7923 17.7078 63.1227 17.7204 63.6029 17.7204C64.7257 17.7204 65.5923 17.4082 66.2027 16.7838C66.8131 16.1594 67.1211 15.2494 67.1211 14.0538Z" fill="white"/>
<path d="M76.8701 15.4519C76.8701 16.4669 76.5803 17.2985 76.0007 17.9509C75.3931 18.6215 74.5881 18.9561 73.5829 18.9561C72.6141 18.9561 71.8427 18.6355 71.2673 17.9915C70.6933 17.3489 70.4062 16.5383 70.4062 15.5611C70.4062 14.5391 70.7016 13.7005 71.2952 13.0495C71.8888 12.3985 72.6869 12.0723 73.6921 12.0723C74.6609 12.0723 75.4393 12.3929 76.0287 13.0355C76.5887 13.6599 76.8701 14.4663 76.8701 15.4519ZM75.3483 15.4995C75.3483 14.8905 75.2167 14.3683 74.9549 13.9329C74.6469 13.4065 74.2087 13.1433 73.6389 13.1433C73.0495 13.1433 72.6015 13.4065 72.2935 13.9329C72.0303 14.3683 71.9001 14.8989 71.9001 15.5261C71.9001 16.1351 72.0317 16.6573 72.2935 17.0927C72.6113 17.6191 73.0537 17.8823 73.6249 17.8823C74.1849 17.8823 74.6245 17.6149 74.9409 17.0787C75.2125 16.6349 75.3483 16.1085 75.3483 15.4995Z" fill="white"/>
<path d="M87.8706 12.207L85.8056 18.8066H84.4616L83.6062 15.9408C83.3892 15.2254 83.2128 14.5142 83.0756 13.8086H83.049C82.9216 14.5338 82.7452 15.2436 82.5184 15.9408L81.6098 18.8066H80.2504L78.3086 12.207H79.8164L80.5626 15.3444C80.7432 16.0864 80.8916 16.7934 81.0106 17.4626H81.0372C81.1464 16.911 81.327 16.2082 81.5818 15.3584L82.5184 12.2084H83.714L84.6114 15.2912C84.8284 16.043 85.0048 16.7668 85.1406 17.464H85.1812C85.2806 16.785 85.4304 16.0612 85.6292 15.2912L86.43 12.2084H87.8706V12.207Z" fill="white"/>
<path d="M95.4762 18.8066H94.009V15.0266C94.009 13.8618 93.5666 13.2794 92.679 13.2794C92.2436 13.2794 91.8922 13.439 91.6192 13.7596C91.349 14.0802 91.2118 14.4582 91.2118 14.8908V18.8052H89.7446V14.0928C89.7446 13.5132 89.7264 12.8846 89.6914 12.2042H90.9808L91.0494 13.236H91.09C91.2608 12.9154 91.5156 12.6508 91.8502 12.4394C92.2478 12.193 92.693 12.0684 93.1802 12.0684C93.7962 12.0684 94.3086 12.2672 94.716 12.6662C95.2228 13.1548 95.4762 13.8842 95.4762 14.853V18.8066Z" fill="white"/>
<path d="M99.5205 18.8065H98.0547V9.17871H99.5205V18.8065Z" fill="white"/>
<path d="M108.159 15.4519C108.159 16.4669 107.869 17.2985 107.29 17.9509C106.682 18.6215 105.876 18.9561 104.872 18.9561C103.902 18.9561 103.13 18.6355 102.556 17.9915C101.982 17.3489 101.695 16.5383 101.695 15.5611C101.695 14.5391 101.991 13.7005 102.584 13.0495C103.178 12.3985 103.976 12.0723 104.98 12.0723C105.95 12.0723 106.727 12.3929 107.318 13.0355C107.878 13.6599 108.159 14.4663 108.159 15.4519ZM106.636 15.4995C106.636 14.8905 106.504 14.3683 106.243 13.9329C105.936 13.4065 105.496 13.1433 104.928 13.1433C104.337 13.1433 103.889 13.4065 103.583 13.9329C103.319 14.3683 103.189 14.8989 103.189 15.5261C103.189 16.1351 103.321 16.6573 103.583 17.0927C103.9 17.6191 104.343 17.8823 104.914 17.8823C105.474 17.8823 105.912 17.6149 106.229 17.0787C106.502 16.6349 106.636 16.1085 106.636 15.4995Z" fill="white"/>
<path d="M115.262 18.8063H113.944L113.835 18.0461H113.795C113.344 18.6523 112.701 18.9561 111.867 18.9561C111.244 18.9561 110.74 18.7559 110.36 18.3583C110.016 17.9971 109.844 17.5477 109.844 17.0143C109.844 16.2079 110.18 15.5933 110.856 15.1677C111.531 14.7421 112.48 14.5335 113.702 14.5433V14.4201C113.702 13.5507 113.246 13.1167 112.332 13.1167C111.681 13.1167 111.107 13.2805 110.611 13.6053L110.313 12.6421C110.926 12.2627 111.683 12.0723 112.577 12.0723C114.301 12.0723 115.167 12.9823 115.167 14.8023V17.2327C115.167 17.8921 115.199 18.4171 115.262 18.8063ZM113.739 16.5383V15.5205C112.12 15.4925 111.311 15.9363 111.311 16.8505C111.311 17.1949 111.403 17.4525 111.592 17.6247C111.781 17.7969 112.022 17.8823 112.309 17.8823C112.631 17.8823 112.932 17.7801 113.207 17.5771C113.482 17.3727 113.652 17.1137 113.715 16.7959C113.73 16.7245 113.739 16.6377 113.739 16.5383Z" fill="white"/>
<path d="M123.597 18.8065H122.295L122.226 17.7467H122.186C121.77 18.5531 121.061 18.9563 120.066 18.9563C119.271 18.9563 118.609 18.6441 118.084 18.0197C117.559 17.3953 117.297 16.5847 117.297 15.5893C117.297 14.5211 117.581 13.6559 118.152 12.9951C118.705 12.3791 119.383 12.0711 120.189 12.0711C121.075 12.0711 121.696 12.3693 122.048 12.9671H122.076V9.17871H123.545V17.0285C123.545 17.6711 123.562 18.2633 123.597 18.8065ZM122.076 16.0233V14.9229C122.076 14.7325 122.062 14.5785 122.036 14.4609C121.953 14.1081 121.775 13.8113 121.505 13.5719C121.232 13.3325 120.903 13.2121 120.524 13.2121C119.976 13.2121 119.548 13.4291 119.233 13.8645C118.921 14.2999 118.763 14.8557 118.763 15.5347C118.763 16.1871 118.912 16.7163 119.213 17.1237C119.531 17.5577 119.96 17.7747 120.496 17.7747C120.977 17.7747 121.362 17.5941 121.655 17.2315C121.938 16.8969 122.076 16.4937 122.076 16.0233Z" fill="white"/>
<path d="M136.143 15.4519C136.143 16.4669 135.854 17.2985 135.274 17.9509C134.666 18.6215 133.863 18.9561 132.856 18.9561C131.889 18.9561 131.117 18.6355 130.541 17.9915C129.967 17.3489 129.68 16.5383 129.68 15.5611C129.68 14.5391 129.975 13.7005 130.569 13.0495C131.162 12.3985 131.96 12.0723 132.967 12.0723C133.934 12.0723 134.714 12.3929 135.302 13.0355C135.862 13.6599 136.143 14.4663 136.143 15.4519ZM134.623 15.4995C134.623 14.8905 134.491 14.3683 134.23 13.9329C133.92 13.4065 133.483 13.1433 132.912 13.1433C132.324 13.1433 131.876 13.4065 131.567 13.9329C131.304 14.3683 131.173 14.8989 131.173 15.5261C131.173 16.1351 131.305 16.6573 131.567 17.0927C131.885 17.6191 132.327 17.8823 132.898 17.8823C133.458 17.8823 133.899 17.6149 134.216 17.0787C134.486 16.6349 134.623 16.1085 134.623 15.4995Z" fill="white"/>
<path d="M144.033 18.8066H142.568V15.0266C142.568 13.8618 142.125 13.2794 141.236 13.2794C140.801 13.2794 140.449 13.439 140.178 13.7596C139.906 14.0802 139.77 14.4582 139.77 14.8908V18.8052H138.302V14.0928C138.302 13.5132 138.285 12.8846 138.25 12.2042H139.538L139.607 13.236H139.647C139.819 12.9154 140.074 12.6508 140.407 12.4394C140.806 12.193 141.25 12.0684 141.739 12.0684C142.353 12.0684 142.866 12.2672 143.273 12.6662C143.781 13.1548 144.033 13.8842 144.033 14.853V18.8066Z" fill="white"/>
<path d="M153.91 13.3061H152.294V16.5121C152.294 17.3269 152.581 17.7343 153.15 17.7343C153.413 17.7343 153.631 17.7119 153.804 17.6657L153.841 18.7787C153.552 18.8879 153.171 18.9425 152.702 18.9425C152.122 18.9425 151.671 18.7661 151.345 18.4133C151.018 18.0605 150.855 17.4669 150.855 16.6339V13.3061H149.891V12.2071H150.855V10.9975L152.293 10.5635V12.2057H153.909V13.3061H153.91Z" fill="white"/>
<path d="M161.677 18.8065H160.208V15.0545C160.208 13.8715 159.766 13.2793 158.88 13.2793C158.199 13.2793 157.735 13.6223 157.48 14.3083C157.436 14.4525 157.411 14.6289 157.411 14.8361V18.8051H155.945V9.17871H157.411V13.1561H157.439C157.901 12.4323 158.563 12.0711 159.422 12.0711C160.029 12.0711 160.532 12.2699 160.931 12.6689C161.428 13.1659 161.677 13.9051 161.677 14.8823V18.8065Z" fill="white"/>
<path d="M169.688 15.1942C169.688 15.4574 169.668 15.6786 169.633 15.8592H165.233C165.253 16.5116 165.463 17.0086 165.87 17.353C166.242 17.661 166.723 17.815 167.311 17.815C167.962 17.815 168.555 17.7114 169.09 17.5028L169.319 18.522C168.694 18.7936 167.957 18.9294 167.105 18.9294C166.083 18.9294 165.278 18.6284 164.695 18.0264C164.11 17.4244 163.82 16.6166 163.82 15.603C163.82 14.6076 164.091 13.7788 164.635 13.118C165.204 12.4124 165.972 12.0596 166.942 12.0596C167.892 12.0596 168.613 12.4124 169.1 13.118C169.493 13.678 169.688 14.371 169.688 15.1942ZM168.288 14.8148C168.299 14.3794 168.202 14.0042 168.003 13.6878C167.749 13.2804 167.361 13.076 166.836 13.076C166.357 13.076 165.967 13.2748 165.668 13.6738C165.425 13.9916 165.281 14.371 165.233 14.8148H168.288Z" fill="white"/>
</svg>
