<svg width="30" height="30" viewBox="0 0 30 30" fill="none" xmlns="http://www.w3.org/2000/svg">
<path d="M14.7062 0.439453C6.64333 0.439453 0.103516 6.97926 0.103516 15.0422C0.103516 23.105 6.64333 29.6449 14.7062 29.6449C22.7691 29.6449 29.3089 23.105 29.3089 15.0422C29.3089 6.97926 22.7691 0.439453 14.7062 0.439453ZM21.1479 15.2855L12.5747 21.5231C12.5277 21.5569 12.4723 21.577 12.4146 21.5814C12.3569 21.5857 12.2991 21.574 12.2475 21.5477C12.196 21.5213 12.1528 21.4812 12.1225 21.4319C12.0923 21.3825 12.0763 21.3258 12.0762 21.2679V8.80068C12.076 8.74268 12.0918 8.68577 12.122 8.63624C12.1522 8.58672 12.1955 8.54652 12.2471 8.5201C12.2987 8.49367 12.3567 8.48206 12.4145 8.48655C12.4723 8.49104 12.5278 8.51145 12.5747 8.54552L21.1479 14.7791C21.1884 14.8078 21.2214 14.8457 21.2442 14.8898C21.267 14.9338 21.2789 14.9827 21.2789 15.0323C21.2789 15.0819 21.267 15.1308 21.2442 15.1749C21.2214 15.2189 21.1884 15.2569 21.1479 15.2855Z" fill="#FCF3D9"/>
</svg>
