<svg width="505" height="366" viewBox="0 0 505 366" fill="none" xmlns="http://www.w3.org/2000/svg">
<path d="M504.303 331.868H0V332.12H504.303V331.868Z" fill="#EBEBEB"/>
<path d="M449.092 343.417H397.754V343.669H449.092V343.417Z" fill="#EBEBEB"/>
<path d="M100.526 340.432H52.9102V340.684H100.526V340.432Z" fill="#EBEBEB"/>
<path d="M401.425 338.737H382.07V338.989H401.425V338.737Z" fill="#EBEBEB"/>
<path d="M334.072 345.425H319.871V345.677H334.072V345.425Z" fill="#EBEBEB"/>
<path d="M310.882 345.425H275.137V345.677H310.882V345.425Z" fill="#EBEBEB"/>
<path d="M254.379 341.168H196.898V341.42H254.379V341.168Z" fill="#EBEBEB"/>
<path d="M239.04 286.884H44.2881C42.7624 286.882 41.3002 286.274 40.2223 285.194C39.1444 284.114 38.5391 282.651 38.5391 281.125V7.3591C38.5523 5.84218 39.1636 4.39176 40.24 3.32288C41.3165 2.254 42.7711 1.65299 44.2881 1.65039H239.04C240.567 1.65039 242.032 2.25716 243.112 3.3372C244.192 4.41725 244.799 5.88211 244.799 7.40953V281.125C244.799 282.653 244.192 284.117 243.112 285.197C242.032 286.278 240.567 286.884 239.04 286.884ZM44.2881 1.85211C42.8293 1.85478 41.4312 2.43616 40.4006 3.46863C39.37 4.5011 38.7912 5.9003 38.7912 7.3591V281.125C38.7912 282.584 39.37 283.983 40.4006 285.016C41.4312 286.048 42.8293 286.629 44.2881 286.632H239.04C240.5 286.629 241.899 286.048 242.931 285.016C243.963 283.984 244.544 282.585 244.547 281.125V7.3591C244.544 5.89938 243.963 4.5002 242.931 3.46802C241.899 2.43583 240.5 1.85478 239.04 1.85211H44.2881Z" fill="#EBEBEB"/>
<path d="M457.212 286.884H262.451C260.924 286.882 259.461 286.274 258.381 285.195C257.302 284.115 256.694 282.652 256.691 281.125V7.3591C256.707 5.84126 257.321 4.39085 258.399 3.32225C259.477 2.25365 260.933 1.65296 262.451 1.65039H457.212C458.728 1.65564 460.18 2.25782 461.254 3.32642C462.328 4.39502 462.938 5.84393 462.951 7.3591V281.125C462.951 282.649 462.347 284.111 461.272 285.19C460.196 286.27 458.736 286.879 457.212 286.884ZM262.451 1.85211C260.991 1.85478 259.592 2.43583 258.559 3.46802C257.527 4.5002 256.946 5.89938 256.944 7.3591V281.125C256.946 282.585 257.527 283.984 258.559 285.016C259.592 286.048 260.991 286.629 262.451 286.632H457.212C458.672 286.629 460.071 286.048 461.104 285.016C462.136 283.984 462.717 282.585 462.719 281.125V7.3591C462.717 5.89938 462.136 4.5002 461.104 3.46802C460.071 2.43583 458.672 1.85478 457.212 1.85211H262.451Z" fill="#EBEBEB"/>
<path d="M226.42 34.9551H59.0117V247.993H226.42V34.9551Z" fill="#E6E6E6"/>
<path d="M224.334 34.9551H56.9258V247.993H224.334V34.9551Z" fill="#FAFAFA"/>
<path d="M219.656 243.313V39.6455L61.6177 39.6455V243.313H219.656Z" fill="white"/>
<path d="M140.632 224.492C152.43 224.492 161.994 214.928 161.994 203.13C161.994 191.332 152.43 181.768 140.632 181.768C128.834 181.768 119.27 191.332 119.27 203.13C119.27 214.928 128.834 224.492 140.632 224.492Z" fill="#FAFAFA"/>
<path d="M163.272 141.474C163.272 145.367 159.843 148.373 158.027 151.56C156.212 154.748 155.203 159.256 151.975 161.132C148.748 163.008 144.542 161.596 140.649 161.596C136.756 161.596 132.469 162.947 129.322 161.132C126.175 159.316 125.136 154.798 123.27 151.56C121.405 148.323 118.016 145.408 118.016 141.474C118.016 137.541 121.445 134.575 123.27 131.439C125.096 128.302 126.095 123.743 129.322 121.867C132.55 119.991 136.745 121.393 140.639 121.393C144.532 121.393 148.829 120.051 151.965 121.867C155.102 123.682 156.161 128.191 158.017 131.439C159.873 134.686 163.272 137.591 163.272 141.474Z" fill="#EBEBEB"/>
<path d="M165.229 79.8183L157.876 85.4261L160.529 94.2817L151.29 94.4935L148.234 103.228L140.629 97.953L133.034 103.228L129.978 94.4935L120.729 94.2817L123.382 85.4261L116.039 79.8183L123.382 74.2205L120.729 65.365L129.978 65.1532L133.034 56.4287L140.629 61.6936L148.234 56.4287L151.29 65.1532L160.529 65.365L157.876 74.2205L165.229 79.8183Z" fill="#E0E0E0"/>
<path d="M420.498 328.137H440.418V247.004H420.498V328.137Z" fill="#F0F0F0"/>
<path d="M270.862 331.868H435.164V328.136H270.862V331.868Z" fill="#F0F0F0"/>
<path d="M420.497 247.005H265.605V328.137H420.497V247.005Z" fill="#F5F5F5"/>
<path d="M409.725 276.324H276.367V295.629H409.725V276.324Z" fill="#F0F0F0"/>
<path d="M409.725 301.59H276.367V320.895H409.725V301.59Z" fill="#F0F0F0"/>
<path d="M303.843 277.646H382.272C382.974 277.646 383.543 277.077 383.543 276.375V276.274C383.543 275.572 382.974 275.003 382.272 275.003H303.843C303.141 275.003 302.572 275.572 302.572 276.274V276.375C302.572 277.077 303.141 277.646 303.843 277.646Z" fill="#F5F5F5"/>
<path d="M303.843 302.911H382.272C382.974 302.911 383.543 302.342 383.543 301.64V301.539C383.543 300.838 382.974 300.269 382.272 300.269H303.843C303.141 300.269 302.572 300.838 302.572 301.539V301.64C302.572 302.342 303.141 302.911 303.843 302.911Z" fill="#F5F5F5"/>
<path d="M409.725 251.06H276.367V270.364H409.725V251.06Z" fill="#F0F0F0"/>
<path d="M303.843 252.391H382.272C382.974 252.391 383.543 251.822 383.543 251.12V251.019C383.543 250.317 382.974 249.748 382.272 249.748H303.843C303.141 249.748 302.572 250.317 302.572 251.019V251.12C302.572 251.822 303.141 252.391 303.843 252.391Z" fill="#F5F5F5"/>
<path d="M419.615 37.9246C426.59 30.9489 426.59 19.639 419.615 12.6633C412.639 5.6876 401.329 5.68759 394.353 12.6633C387.378 19.639 387.378 30.9489 394.353 37.9246C401.329 44.9003 412.639 44.9003 419.615 37.9246Z" fill="#F5F5F5"/>
<path d="M413.351 34.606C418.491 29.4658 418.491 21.1319 413.351 15.9917C408.211 10.8515 399.877 10.8515 394.737 15.9917C389.597 21.1319 389.597 29.4658 394.737 34.606C399.877 39.7462 408.211 39.7462 413.351 34.606Z" fill="#EBEBEB"/>
<path d="M403.734 25.2927C403.734 25.7655 403.594 26.2277 403.331 26.6208C403.068 27.0139 402.695 27.3202 402.258 27.5012C401.822 27.6821 401.341 27.7294 400.877 27.6372C400.413 27.545 399.988 27.3173 399.653 26.983C399.319 26.6487 399.091 26.2228 398.999 25.7591C398.907 25.2954 398.954 24.8148 399.135 24.378C399.316 23.9412 399.622 23.5679 400.015 23.3052C400.409 23.0425 400.871 22.9023 401.344 22.9023C401.978 22.9023 402.586 23.1542 403.034 23.6025C403.482 24.0508 403.734 24.6588 403.734 25.2927Z" fill="white"/>
<path d="M412.228 47.3811C410.357 47.3866 408.49 47.1905 406.661 46.7961C406.326 46.6986 406.042 46.4755 405.868 46.1735C405.694 45.8715 405.643 45.514 405.727 45.1755C405.81 44.837 406.021 44.5438 406.315 44.3572C406.61 44.1705 406.965 44.1048 407.306 44.1737C407.397 44.1737 416.646 46.3624 422.94 41.4101C426.974 38.2532 428.991 32.8269 428.991 25.2724C428.991 24.914 429.134 24.5702 429.387 24.3167C429.641 24.0633 429.985 23.9209 430.343 23.9209C430.701 23.9209 431.045 24.0633 431.299 24.3167C431.552 24.5702 431.695 24.914 431.695 25.2724C431.695 33.6842 429.304 39.8266 424.584 43.5181C421.011 46.1475 416.662 47.5072 412.228 47.3811Z" fill="#EBEBEB"/>
<path d="M429.193 27.4515C428.529 27.4515 427.893 27.1879 427.424 26.7188C426.955 26.2497 426.691 25.6135 426.691 24.9501V20.2198C426.691 19.551 426.957 18.9097 427.43 18.4368C427.903 17.9639 428.544 17.6982 429.213 17.6982C429.882 17.6982 430.523 17.9639 430.996 18.4368C431.469 18.9097 431.734 19.551 431.734 20.2198V24.9501C431.733 25.2816 431.666 25.6096 431.538 25.9151C431.409 26.2207 431.221 26.4977 430.985 26.7302C430.748 26.9627 430.468 27.1462 430.161 27.27C429.853 27.3938 429.524 27.4555 429.193 27.4515Z" fill="#EBEBEB"/>
<path d="M450.228 59.5654H255.789V201.204H450.228V59.5654Z" fill="#263238"/>
<path d="M307.464 124.862C306.468 124.798 305.497 124.53 304.609 124.075C304.011 123.797 303.385 123.581 302.743 123.43C302.076 123.324 301.401 123.283 300.726 123.308C299.751 123.386 298.77 123.266 297.841 122.955C296.955 122.51 296.167 121.893 295.522 121.14C295.068 120.653 294.572 120.208 294.039 119.809C293.46 119.464 292.853 119.17 292.224 118.931C291.287 118.629 290.422 118.138 289.682 117.489C289.036 116.75 288.546 115.889 288.24 114.957C288.013 114.322 287.718 113.714 287.362 113.142C286.972 112.599 286.525 112.099 286.031 111.649C285.275 111.008 284.661 110.219 284.225 109.329C283.916 108.404 283.793 107.427 283.862 106.455C283.89 105.78 283.853 105.105 283.751 104.437C283.597 103.798 283.378 103.176 283.096 102.582C282.581 101.717 282.309 100.729 282.309 99.7222C282.309 98.7156 282.581 97.7276 283.096 96.8628C283.376 96.2644 283.596 95.6393 283.751 94.9969C283.854 94.3297 283.891 93.6541 283.862 92.9797C283.793 92.0036 283.917 91.0236 284.225 90.0951C284.664 89.2103 285.278 88.4243 286.031 87.7853C286.525 87.3357 286.972 86.8354 287.362 86.2926C287.717 85.7194 288.011 85.111 288.24 84.4771C288.548 83.5431 289.038 82.6793 289.682 81.9354C290.428 81.2955 291.291 80.8058 292.224 80.4931C292.857 80.2642 293.466 79.9701 294.039 79.6156C294.575 79.2288 295.072 78.7895 295.522 78.3044C296.172 77.5595 296.96 76.9466 297.841 76.499C298.77 76.1888 299.751 76.0687 300.726 76.146C301.401 76.1713 302.076 76.1308 302.743 76.025C303.385 75.8733 304.011 75.657 304.609 75.3795C305.497 74.9243 306.468 74.6565 307.464 74.5928C308.462 74.6577 309.437 74.9254 310.328 75.3795C310.923 75.6585 311.545 75.8748 312.184 76.025C312.851 76.1308 313.526 76.1713 314.201 76.146C315.177 76.0687 316.158 76.1888 317.086 76.499C317.969 76.944 318.757 77.5573 319.405 78.3044C320.274 79.3376 321.418 80.1035 322.704 80.5133C323.681 80.7522 324.574 81.2547 325.285 81.9661C325.997 82.6775 326.499 83.5704 326.738 84.5477C326.967 85.1816 327.261 85.79 327.616 86.3632C328.006 86.906 328.452 87.4063 328.947 87.856C329.7 88.4949 330.314 89.2809 330.752 90.1657C331.061 91.0942 331.184 92.0742 331.115 93.0503C331.086 93.7247 331.123 94.4003 331.226 95.0675C331.382 95.7099 331.601 96.335 331.882 96.9334C332.397 97.7983 332.669 98.7862 332.669 99.7928C332.669 100.799 332.397 101.787 331.882 102.652C331.6 103.247 331.38 103.868 331.226 104.508C331.124 105.175 331.087 105.851 331.115 106.525C331.185 107.498 331.061 108.475 330.752 109.4C330.317 110.289 329.702 111.079 328.947 111.72C328.452 112.169 328.006 112.67 327.616 113.212C327.259 113.784 326.965 114.393 326.738 115.028C326.494 115.996 325.988 116.878 325.277 117.579C324.565 118.28 323.675 118.772 322.704 119.002C322.074 119.241 321.467 119.535 320.888 119.879C320.356 120.278 319.859 120.724 319.405 121.211C318.76 121.964 317.972 122.581 317.086 123.026C316.158 123.336 315.177 123.456 314.201 123.379C313.526 123.354 312.851 123.394 312.184 123.5C311.545 123.65 310.923 123.867 310.328 124.146C309.431 124.575 308.457 124.819 307.464 124.862ZM301.119 122.845C301.697 122.829 302.275 122.87 302.844 122.966C303.518 123.126 304.174 123.356 304.801 123.651C305.603 124.139 306.524 124.398 307.464 124.398C308.403 124.398 309.324 124.139 310.126 123.651C310.753 123.356 311.409 123.126 312.083 122.966C312.79 122.855 313.506 122.814 314.221 122.845C315.128 122.918 316.04 122.808 316.904 122.522C317.726 122.106 318.457 121.53 319.052 120.827C319.525 120.311 320.048 119.845 320.616 119.435C321.218 119.062 321.857 118.751 322.522 118.508C323.391 118.221 324.196 117.769 324.892 117.176C325.492 116.484 325.944 115.678 326.224 114.806C326.471 114.142 326.782 113.504 327.152 112.9C327.564 112.329 328.034 111.801 328.554 111.326C329.253 110.727 329.829 109.998 330.248 109.178C330.53 108.313 330.637 107.401 330.561 106.495C330.533 105.783 330.577 105.07 330.692 104.367C330.85 103.674 331.076 102.998 331.368 102.35C331.856 101.549 332.114 100.63 332.114 99.692C332.114 98.7543 331.856 97.8348 331.368 97.0343C331.078 96.3851 330.852 95.7096 330.692 95.0171C330.578 94.3138 330.534 93.6009 330.561 92.8889C330.637 91.9827 330.53 91.0704 330.248 90.206C329.829 89.3863 329.253 88.6564 328.554 88.0577C328.034 87.5825 327.564 87.0552 327.152 86.4842C326.782 85.8799 326.471 85.2416 326.224 84.578C326.01 83.6788 325.55 82.8567 324.897 82.2031C324.243 81.5496 323.421 81.0903 322.522 80.8764C321.857 80.6328 321.218 80.3219 320.616 79.9485C320.051 79.5366 319.527 79.0704 319.052 78.5566C318.46 77.8506 317.729 77.2738 316.904 76.8621C316.04 76.5761 315.128 76.4664 314.221 76.5394C312.808 76.6614 311.388 76.3817 310.126 75.7325C309.324 75.2444 308.403 74.9863 307.464 74.9863C306.524 74.9863 305.603 75.2444 304.801 75.7325C303.539 76.3817 302.12 76.6614 300.706 76.5394C299.8 76.47 298.889 76.5761 298.023 76.8521C297.2 77.271 296.47 77.8506 295.875 78.5566C295.403 79.0728 294.879 79.5392 294.311 79.9485C293.709 80.3219 293.07 80.6328 292.405 80.8764C291.534 81.1573 290.728 81.61 290.035 82.2077C289.436 82.8998 288.983 83.7061 288.703 84.578C288.458 85.2424 288.147 85.8809 287.776 86.4842C287.363 87.0552 286.893 87.5825 286.374 88.0577C285.671 88.6537 285.095 89.3841 284.679 90.206C284.397 91.0704 284.29 91.9827 284.366 92.8889C284.394 93.6009 284.35 94.3138 284.235 95.0171C284.075 95.7096 283.849 96.3851 283.56 97.0343C283.071 97.8348 282.813 98.7543 282.813 99.692C282.813 100.63 283.071 101.549 283.56 102.35C283.851 102.998 284.077 103.674 284.235 104.367C284.35 105.07 284.394 105.783 284.366 106.495C284.29 107.401 284.397 108.313 284.679 109.178C285.098 109.998 285.674 110.727 286.374 111.326C286.893 111.801 287.363 112.329 287.776 112.9C288.145 113.504 288.456 114.142 288.703 114.806C288.985 115.677 289.438 116.483 290.035 117.176C290.731 117.769 291.536 118.221 292.405 118.508C293.07 118.751 293.709 119.062 294.311 119.435C294.879 119.845 295.403 120.311 295.875 120.827C296.47 121.53 297.201 122.106 298.023 122.522C298.888 122.803 299.799 122.912 300.706 122.845H301.119Z" fill="white"/>
<path d="M307.463 113.848C315.279 113.848 321.614 107.513 321.614 99.6976C321.614 91.8824 315.279 85.5469 307.463 85.5469C299.648 85.5469 293.312 91.8824 293.312 99.6976C293.312 107.513 299.648 113.848 307.463 113.848Z" fill="white"/>
<path d="M317.571 85.7994C317.538 85.8008 317.504 85.7953 317.473 85.7831C317.442 85.771 317.413 85.7525 317.39 85.7288C317.365 85.7052 317.346 85.677 317.333 85.6458C317.319 85.6147 317.312 85.5811 317.312 85.5472C317.312 85.5133 317.319 85.4798 317.333 85.4486C317.346 85.4174 317.365 85.3892 317.39 85.3657L328.484 74.271C328.508 74.2473 328.536 74.2288 328.568 74.2167C328.599 74.2045 328.632 74.199 328.666 74.2004H350.553C350.62 74.2004 350.684 74.227 350.731 74.2743C350.778 74.3216 350.805 74.3857 350.805 74.4526C350.805 74.5194 350.778 74.5836 350.731 74.6309C350.684 74.6782 350.62 74.7047 350.553 74.7047H328.767L317.712 85.7288C317.676 85.7688 317.625 85.7939 317.571 85.7994Z" fill="white"/>
<path d="M290.033 139.578H268.147C268.08 139.578 268.016 139.551 267.968 139.504C267.921 139.456 267.895 139.392 267.895 139.325C267.895 139.259 267.921 139.194 267.968 139.147C268.016 139.1 268.08 139.073 268.147 139.073H289.933L300.916 128.089C300.965 128.053 301.025 128.035 301.086 128.04C301.146 128.044 301.203 128.07 301.246 128.113C301.289 128.156 301.315 128.213 301.319 128.273C301.323 128.334 301.306 128.394 301.269 128.443L290.175 139.537C290.132 139.562 290.083 139.576 290.033 139.578Z" fill="white"/>
<path d="M363.321 75.138C363.287 75.1385 363.253 75.1304 363.224 75.1146C363.194 75.0987 363.168 75.0755 363.149 75.0472C363.111 75.0061 363.09 74.9521 363.09 74.8959C363.09 74.8398 363.111 74.7857 363.149 74.7446C364.016 74.1255 364.926 73.5694 365.873 73.0804C366.305 72.8229 366.793 72.674 367.295 72.6467C367.78 72.673 368.253 72.8111 368.677 73.0502C368.841 73.1293 369.009 73.2 369.181 73.262C370.613 73.8066 372.207 73.3931 373.871 72.9493C375.324 72.4445 376.871 72.2721 378.4 72.445C378.74 72.5294 379.077 72.6304 379.408 72.7476L380.033 72.9392C382.159 73.3502 384.348 73.3124 386.458 72.8283L387.81 72.6366C390.116 72.1823 392.503 72.3565 394.719 73.1409C395.001 73.262 395.284 73.4032 395.556 73.5444C396.197 73.9226 396.907 74.1694 397.644 74.2706C398.489 74.2811 399.327 74.1162 400.105 73.7864L400.912 73.5242C403.352 72.8081 406.045 73.0703 408.648 73.3124H409.122C416.212 73.9679 423.345 74.0185 430.444 73.4637C430.471 73.4609 430.5 73.4637 430.526 73.4718C430.553 73.48 430.578 73.4933 430.6 73.5112C430.621 73.529 430.639 73.5509 430.652 73.5756C430.665 73.6004 430.673 73.6275 430.676 73.6553C430.681 73.7127 430.665 73.77 430.629 73.8152C430.593 73.8603 430.541 73.8898 430.484 73.8974C423.358 74.4523 416.198 74.4017 409.081 73.7461H408.607C406.045 73.504 403.393 73.2519 401.033 73.9478C400.77 74.0184 400.508 74.1092 400.246 74.2C399.409 74.5459 398.509 74.7175 397.603 74.7043C396.813 74.5955 396.052 74.3316 395.364 73.9277C395.092 73.7865 394.83 73.6553 394.547 73.5343C392.4 72.785 390.092 72.6214 387.86 73.0603L386.529 73.262C384.354 73.7523 382.101 73.7866 379.912 73.3628L379.277 73.1611C378.948 73.0437 378.611 72.9493 378.268 72.8787C376.804 72.7151 375.321 72.884 373.931 73.3729C372.267 73.8066 370.543 74.2605 368.969 73.6755L368.445 73.4435C368.068 73.2454 367.657 73.1221 367.234 73.0804C366.803 73.1091 366.384 73.2405 366.014 73.4637C365.087 73.9417 364.197 74.4879 363.351 75.0976C363.342 75.1118 363.332 75.1253 363.321 75.138Z" fill="white"/>
<path d="M401.534 80.9168C400.639 80.8596 399.76 80.6551 398.931 80.3116C398.083 79.953 397.178 79.7448 396.259 79.6964C395.622 79.7328 394.993 79.8446 394.383 80.0292C393.978 80.1491 393.567 80.2468 393.152 80.3217C392.05 80.4579 390.936 80.4579 389.834 80.3217H389.693C384.771 79.8477 379.728 79.6661 374.846 79.4846C373.161 79.424 371.275 79.6964 371.043 80.6344C371.035 80.6773 371.012 80.7163 370.98 80.7455C370.947 80.7746 370.906 80.7922 370.862 80.7958C370.818 80.8015 370.773 80.794 370.734 80.7742C370.694 80.7544 370.662 80.7233 370.64 80.6848C370.136 79.767 368.572 79.3736 367.291 79.4644C365.941 79.6197 364.625 79.9981 363.398 80.5839C363.372 80.5953 363.343 80.6012 363.315 80.6012C363.286 80.6012 363.257 80.5954 363.231 80.5841C363.205 80.5728 363.181 80.5562 363.161 80.5354C363.141 80.5145 363.126 80.4899 363.116 80.4629C363.096 80.4093 363.097 80.35 363.12 80.2974C363.142 80.2447 363.184 80.2029 363.237 80.1805C364.509 79.5781 365.872 79.1897 367.271 79.0307C367.905 78.9579 368.546 79.0191 369.154 79.2103C369.762 79.4014 370.324 79.7182 370.801 80.1402C371.507 79.061 373.827 79.0105 374.836 79.0509C379.728 79.2324 384.781 79.414 389.723 79.888H389.854C390.919 80.024 391.996 80.024 393.061 79.888C393.463 79.8187 393.86 79.7278 394.251 79.6157C394.906 79.4128 395.584 79.2942 396.269 79.2627C397.235 79.3194 398.186 79.5341 399.083 79.8981C400.085 80.3811 401.209 80.5532 402.31 80.3923C402.661 80.2923 402.999 80.1536 403.319 79.9788L403.843 79.7266C405.571 79.1705 407.403 79.0187 409.199 79.2828C410.255 79.3783 411.317 79.3986 412.376 79.3434C412.404 79.3406 412.432 79.3433 412.459 79.3515C412.486 79.3596 412.51 79.373 412.532 79.3908C412.554 79.4086 412.571 79.4306 412.584 79.4553C412.598 79.4801 412.606 79.5071 412.608 79.535C412.614 79.5923 412.597 79.6496 412.561 79.6948C412.526 79.74 412.474 79.7695 412.416 79.7771C411.334 79.8325 410.249 79.8123 409.169 79.7165C407.442 79.4574 405.678 79.5988 404.015 80.1301C403.843 80.2007 403.682 80.2915 403.521 80.3721C403.18 80.5529 402.822 80.6982 402.451 80.8058C402.152 80.8861 401.843 80.9235 401.534 80.9168Z" fill="white"/>
<path d="M363.32 87.5741C363.27 87.5716 363.223 87.5525 363.186 87.5199C363.148 87.4872 363.123 87.4429 363.113 87.394C363.104 87.3452 363.111 87.2946 363.134 87.2505C363.157 87.2063 363.194 87.1711 363.239 87.1505C364.919 86.4653 366.645 85.8991 368.404 85.4561C369.34 85.1851 370.314 85.0659 371.288 85.103C371.876 85.1705 372.457 85.292 373.023 85.4661C373.57 85.6296 374.13 85.7444 374.697 85.8091C375.372 85.8336 376.047 85.793 376.714 85.688C377.716 85.4818 378.753 85.5129 379.74 85.7788C380.024 85.8854 380.297 86.017 380.557 86.1722C380.806 86.3261 381.069 86.4545 381.344 86.5554C382.655 87.0093 383.966 86.4142 385.378 85.7788C386.577 85.1002 387.935 84.7521 389.312 84.7702C390.226 84.9276 391.098 85.2709 391.874 85.7788C392.693 86.3288 393.651 86.6364 394.637 86.6664C395.098 86.6208 395.551 86.5227 395.989 86.3739H396.12C399.787 85.2854 403.626 84.8987 407.437 85.2342H407.638C408.168 85.2896 408.702 85.2896 409.232 85.2342C409.555 85.1864 409.875 85.119 410.19 85.0324L410.896 84.861C412.365 84.6829 413.855 84.789 415.284 85.1736L416.111 85.335C419.873 86.0077 423.735 85.884 427.447 84.9719C427.499 84.9699 427.549 84.9857 427.59 85.0168C427.631 85.0479 427.66 85.0922 427.672 85.1422C427.684 85.1923 427.678 85.2449 427.655 85.2911C427.633 85.3373 427.595 85.3742 427.548 85.3955C423.779 86.3178 419.859 86.4415 416.04 85.7586L415.193 85.5973C413.82 85.2272 412.389 85.1244 410.977 85.2947C410.745 85.2947 410.523 85.3955 410.301 85.446C409.97 85.5408 409.633 85.6149 409.292 85.6679C408.732 85.7234 408.168 85.7234 407.608 85.6679H407.406C403.651 85.3412 399.867 85.721 396.251 86.7874H396.12C395.654 86.9501 395.169 87.0551 394.678 87.1001C393.601 87.0786 392.552 86.7534 391.652 86.1621C390.92 85.7008 390.104 85.3888 389.251 85.2443C387.95 85.2479 386.673 85.5959 385.55 86.2529C384.148 86.8984 382.706 87.554 381.223 87.0497C380.925 86.9383 380.638 86.7999 380.366 86.6361C380.124 86.4917 379.871 86.3669 379.609 86.2629C378.691 86.0293 377.732 86.0086 376.805 86.2024C376.111 86.3083 375.409 86.3489 374.707 86.3235C374.112 86.2571 373.525 86.1355 372.952 85.9604C372.412 85.7979 371.859 85.6832 371.298 85.6174C370.368 85.5838 369.438 85.6995 368.545 85.9604C366.806 86.3982 365.101 86.9576 363.441 87.6347L363.32 87.5741Z" fill="white"/>
<path d="M363.317 93.0411C363.267 93.0401 363.22 93.0227 363.181 92.9917C363.143 92.9606 363.116 92.9177 363.105 92.8696C363.097 92.8418 363.096 92.8127 363.1 92.7842C363.104 92.7556 363.114 92.7283 363.129 92.7037C363.144 92.6792 363.164 92.658 363.188 92.6414C363.211 92.6248 363.238 92.6132 363.266 92.6074C365.25 92.11 367.276 91.7993 369.318 91.6794C369.915 91.6083 370.521 91.6493 371.103 91.8005C371.234 91.8421 371.362 91.8927 371.486 91.9518C371.648 92.0254 371.817 92.0829 371.991 92.1232C372.378 92.1879 372.773 92.1879 373.161 92.1232C374.962 91.8368 376.784 91.7052 378.607 91.7299C378.663 91.7347 378.716 91.76 378.755 91.8008C378.794 91.8417 378.817 91.8953 378.819 91.9518C378.819 91.9804 378.813 92.0088 378.802 92.0352C378.791 92.0616 378.774 92.0854 378.753 92.1052C378.733 92.125 378.708 92.1404 378.681 92.1504C378.654 92.1605 378.626 92.1649 378.597 92.1636C376.814 92.1342 375.032 92.2624 373.272 92.5468C372.821 92.6435 372.357 92.6606 371.9 92.5973C371.699 92.5484 371.503 92.4808 371.315 92.3956L370.972 92.2644C370.438 92.1291 369.884 92.0949 369.338 92.1636C367.297 92.2808 365.271 92.5881 363.286 93.0814L363.317 93.0411Z" fill="white"/>
<path d="M387.081 92.294C387.049 92.301 387.016 92.3007 386.983 92.2931C386.951 92.2854 386.921 92.2707 386.895 92.2499C386.869 92.2291 386.848 92.2028 386.834 92.1729C386.82 92.143 386.812 92.1103 386.812 92.0771C386.812 92.044 386.82 92.0113 386.834 91.9814C386.848 91.9515 386.869 91.9252 386.895 91.9044C386.921 91.8836 386.951 91.8688 386.983 91.8612C387.016 91.8536 387.049 91.8533 387.081 91.8603C388.292 91.8603 389.522 91.8603 390.702 91.8603H390.793C399.457 91.8603 408.232 91.8603 416.886 91.7393C416.943 91.7419 416.997 91.7664 417.036 91.8077C417.076 91.849 417.098 91.904 417.098 91.9611C417.098 92.0173 417.075 92.0712 417.036 92.1109C416.996 92.1507 416.942 92.173 416.886 92.173C408.232 92.2738 399.447 92.3142 390.783 92.294H390.692C389.512 92.294 388.282 92.294 387.081 92.294Z" fill="white"/>
<g opacity="0.1">
<path opacity="0.1" d="M415.597 146.518C415.597 148.938 413.922 151.167 413.468 153.457C413.014 155.746 413.69 158.5 412.793 160.668C411.895 162.837 409.474 164.289 408.163 166.256C406.852 168.223 406.448 170.986 404.764 172.661C403.08 174.335 400.336 174.678 398.359 176.05C396.383 177.421 394.991 179.761 392.782 180.679C390.573 181.597 387.92 180.891 385.56 181.355C383.2 181.819 381.052 183.483 378.631 183.483C376.21 183.483 373.992 181.809 371.702 181.355C369.412 180.901 366.659 181.577 364.48 180.679C362.302 179.781 360.859 177.361 358.903 176.05C356.946 174.738 354.172 174.335 352.498 172.661C350.824 170.986 350.42 168.233 349.099 166.256C347.778 164.279 345.387 162.877 344.48 160.668C343.572 158.459 344.258 155.807 343.794 153.457C343.33 151.107 341.676 148.938 341.676 146.518C341.676 144.097 343.34 141.878 343.794 139.588C344.248 137.299 343.582 134.545 344.48 132.377C345.377 130.208 347.788 128.756 349.099 126.789C350.41 124.822 350.824 122.059 352.498 120.385C354.172 118.71 356.926 118.317 358.903 116.986C360.88 115.654 362.282 113.284 364.48 112.366C366.679 111.448 369.342 112.154 371.702 111.69C374.062 111.226 376.21 109.572 378.631 109.572C381.052 109.572 383.281 111.247 385.56 111.7C387.84 112.154 390.603 111.479 392.782 112.376C394.96 113.274 396.403 115.684 398.37 117.006C400.336 118.327 403.09 118.72 404.774 120.395C406.459 122.069 406.842 124.822 408.163 126.799C409.484 128.776 411.875 130.178 412.793 132.387C413.71 134.596 413.004 137.248 413.468 139.598C413.932 141.949 415.597 144.107 415.597 146.518Z" fill="white"/>
</g>
<path d="M288.258 190.361H269.478C268.403 190.361 267.531 191.233 267.531 192.308V195.747C267.531 196.822 268.403 197.694 269.478 197.694H288.258C289.333 197.694 290.205 196.822 290.205 195.747V192.308C290.205 191.233 289.333 190.361 288.258 190.361Z" fill="#F2994A"/>
<path d="M289.065 187.315H268.671C268.042 187.315 267.531 187.826 267.531 188.455V189.222C267.531 189.851 268.042 190.361 268.671 190.361H289.065C289.694 190.361 290.205 189.851 290.205 189.222V188.455C290.205 187.826 289.694 187.315 289.065 187.315Z" fill="white"/>
<path d="M354.534 200.356H351.488V360.483H354.534V200.356Z" fill="#263238"/>
<path d="M357.216 310.647H348.804C347.857 310.647 347.09 311.415 347.09 312.362V314.561C347.09 315.508 347.857 316.275 348.804 316.275H357.216C358.163 316.275 358.931 315.508 358.931 314.561V312.362C358.931 311.415 358.163 310.647 357.216 310.647Z" fill="#263238"/>
<path d="M322.874 360.492H319.828L351.488 313.461H354.534L322.874 360.492Z" fill="#263238"/>
<path d="M383.148 360.492H386.194L354.534 313.461H351.488L383.148 360.492Z" fill="#263238"/>
<path d="M450.846 61.0073H255.177C254.794 61.0073 254.427 60.8554 254.157 60.5849C253.886 60.3144 253.734 59.9476 253.734 59.565C253.737 59.1843 253.89 58.82 254.16 58.5517C254.431 58.2834 254.796 58.1328 255.177 58.1328H450.846C451.226 58.1328 451.59 58.2837 451.859 58.5523C452.128 58.8209 452.279 59.1852 452.279 59.565C452.28 59.754 452.244 59.9413 452.172 60.1162C452.101 60.2911 451.996 60.4502 451.863 60.5843C451.729 60.7184 451.571 60.8247 451.397 60.8974C451.222 60.97 451.035 61.0073 450.846 61.0073Z" fill="#E0E0E0"/>
<path d="M458.612 197.693H247.41L252.332 203.029H453.69L458.612 197.693Z" fill="#E0E0E0"/>
<path d="M201.55 243.938H104.734V246.309H201.55V243.938Z" fill="#F2994A"/>
<path d="M201.552 243.938H175.883V246.309H201.552V243.938Z" fill="#263238"/>
<path d="M162.023 364.074H160.561L154.449 301.49C153.944 296.296 150.555 292.413 146.592 292.413H134.549C130.514 292.413 127.196 296.326 126.692 301.49L120.58 364.074H119.117L125.25 301.208C125.845 295.065 129.839 290.426 134.549 290.426H146.592C151.292 290.426 155.296 295.065 155.891 301.208L162.023 364.074Z" fill="#263238"/>
<path d="M116.465 364.074H114.982L108.93 301.49C108.426 296.296 105.047 292.413 101.073 292.413H88.9903C85.0164 292.413 81.6375 296.326 81.1332 301.49L75.0211 364.074H73.5586L79.6808 301.208C80.2759 295.065 84.2801 290.426 88.9802 290.426H101.023C105.733 290.426 109.727 295.065 110.322 301.208L116.465 364.074Z" fill="#263238"/>
<path d="M109.939 162.554C110.161 163.18 110.675 163.563 111.099 163.462C111.523 163.361 111.674 162.716 111.452 162.08C111.23 161.445 110.716 161.072 110.302 161.173C109.889 161.273 109.687 161.919 109.939 162.554Z" fill="#263238"/>
<path d="M110.516 163.028C111.817 164.402 113.296 165.596 114.913 166.579C114.65 166.973 114.303 167.305 113.896 167.551C113.49 167.797 113.035 167.95 112.563 168.001L110.516 163.028Z" fill="#ED893E"/>
<path d="M107.245 160.517C107.178 160.532 107.109 160.532 107.043 160.517C106.992 160.508 106.944 160.49 106.9 160.462C106.857 160.434 106.819 160.398 106.79 160.356C106.761 160.314 106.741 160.266 106.73 160.216C106.72 160.165 106.72 160.113 106.73 160.063C106.824 159.453 107.066 158.875 107.435 158.381C107.805 157.887 108.29 157.491 108.848 157.229C108.942 157.201 109.043 157.21 109.13 157.252C109.218 157.295 109.287 157.369 109.323 157.459C109.36 157.55 109.361 157.651 109.328 157.742C109.294 157.834 109.227 157.91 109.141 157.955C108.707 158.171 108.331 158.488 108.045 158.879C107.758 159.27 107.571 159.725 107.497 160.204C107.486 160.274 107.457 160.339 107.412 160.394C107.368 160.449 107.31 160.491 107.245 160.517Z" fill="#263238"/>
<path d="M90.4023 172.378L96.8776 178.51L105.461 183.331C105.158 183.614 105.269 185.53 105.39 186.488C105.425 187.535 105.784 188.545 106.418 189.378C107.053 190.211 107.931 190.826 108.93 191.138C109.939 191.572 110.948 192.147 111.139 193.095C111.341 194.265 110.484 195.717 105.683 196.413C101.078 197.03 96.3925 196.371 92.1371 194.507C90.1199 193.68 90.4629 192.772 90.9672 190.856C92.2582 185.964 91.9657 177.33 90.4023 172.378Z" fill="#FFB573"/>
<path d="M87.8203 193.094C88.8307 190.533 89.6499 187.9 90.2712 185.217C90.2712 185.217 103.383 184.259 107.75 185.974C112.118 187.688 114.811 195.122 114.811 195.122L87.8203 193.094Z" fill="#263238"/>
<path d="M88.97 168.919C92.0665 176.312 93.4987 180.79 98.6426 183.271C106.379 187.003 114.447 180.134 113.61 171.934C112.854 164.551 107.922 153.719 99.4898 153.416C97.622 153.359 95.7699 153.774 94.1055 154.624C92.4411 155.473 91.0182 156.73 89.9689 158.276C88.9196 159.822 88.2779 161.609 88.1032 163.469C87.9286 165.33 88.2268 167.204 88.97 168.919Z" fill="#FFB573"/>
<path d="M104.543 168.535C107.458 165.207 105.431 159.458 102.849 157.209C105.35 157.118 111.826 156.553 109.909 150.975C107.993 145.398 101.326 144.742 99.3894 147.496C93.8824 144.47 87.2861 147.092 88.8696 151.298C82.3944 150.29 80.5385 156.714 83.2113 159.307C79.8123 162.141 78.5919 167.718 83.0399 169.826C87.4878 171.934 87.5786 177.189 92.1173 179.912C96.6561 182.636 107.055 177.996 104.543 168.535Z" fill="#263238"/>
<path d="M100.802 169.655C101.763 171.165 103.246 172.271 104.968 172.761C107.197 173.356 108.276 170.885 107.449 168.727C106.702 166.831 104.423 164.693 102.305 165.005C100.187 165.318 99.6119 167.769 100.802 169.655Z" fill="#FFB573"/>
<path d="M93.9743 202.969L87.4184 216.081C86.319 218.27 85.2499 220.449 84.211 222.637C83.1721 224.826 82.1333 226.974 81.2356 229.113C80.7515 230.192 80.348 231.221 79.9143 232.28L79.3596 233.782L79.289 233.974V234.065V234.115V234.014C79.3911 233.592 79.4352 233.158 79.4201 232.723C79.431 232.404 79.3689 232.087 79.2386 231.795C79.1579 231.654 79.2386 231.927 79.2991 232.249C79.4342 232.654 79.5994 233.049 79.7933 233.429C80.227 234.307 80.8019 235.255 81.3466 236.233C83.7168 240.147 86.6115 244.302 89.2339 248.417L89.3045 248.518C89.7847 249.274 89.992 250.171 89.892 251.061C89.7919 251.951 89.3905 252.779 88.7545 253.41C88.1184 254.04 87.2859 254.434 86.3952 254.525C85.5045 254.617 84.6092 254.401 83.858 253.914C81.6448 252.498 79.5195 250.948 77.4937 249.275C75.4127 247.598 73.4387 245.792 71.5832 243.868C70.5705 242.833 69.6239 241.735 68.7491 240.58C68.2452 239.932 67.7739 239.259 67.337 238.563C66.7526 237.614 66.2852 236.598 65.9451 235.537C65.6583 234.639 65.4987 233.706 65.4711 232.764C65.4535 232.013 65.5349 231.264 65.7132 230.535L65.8745 229.889L66.4091 227.801C66.8125 226.5 67.1857 225.149 67.6295 223.908C68.4868 221.356 69.4248 218.936 70.3729 216.515C71.321 214.094 72.3901 211.744 73.3987 209.455C75.537 204.775 77.7458 200.246 80.2673 195.707C81.2263 193.884 82.8702 192.517 84.8374 191.906C86.8046 191.295 88.9338 191.491 90.7569 192.45C92.5799 193.409 93.9472 195.053 94.5582 197.02C95.1692 198.987 94.9736 201.116 94.0146 202.939L93.9743 202.969Z" fill="#FFB573"/>
<path d="M88.8795 189.826C97.3317 190.129 101.174 196.453 94.1646 207.709C88.113 217.382 87.3162 217.583 87.3162 217.583L72.0156 209.999C77.1595 200.205 80.2358 189.504 88.8795 189.826Z" fill="#F2994A"/>
<g opacity="0.3">
<path opacity="0.3" d="M88.8795 189.826C97.3317 190.129 101.174 196.453 94.1646 207.709C88.113 217.382 87.3162 217.583 87.3162 217.583L72.0156 209.999C77.1595 200.205 80.2358 189.504 88.8795 189.826Z" fill="black"/>
</g>
<path d="M93.2788 250.172L92.4215 249.214C89.7789 246.763 88.6493 247.066 85.6235 247.066L81.9219 249.839C84.161 255.992 88.6896 255.719 88.6896 255.719L90.0008 256.94C90.2889 257.206 90.6386 257.397 91.0185 257.495C91.3984 257.592 91.7966 257.595 92.1775 257.501C92.5584 257.407 92.91 257.22 93.2008 256.956C93.4916 256.693 93.7124 256.361 93.8436 255.992L94.2269 254.902C94.5046 254.101 94.5631 253.24 94.3964 252.408C94.2297 251.577 93.8439 250.805 93.2788 250.172Z" fill="#FFB573"/>
<path d="M182.004 341.774L189.236 337.709L181.54 320.089L174.309 324.143L182.004 341.774Z" fill="#FFB573"/>
<path opacity="0.2" d="M178.04 332.686L185.383 328.894L181.54 320.089L174.309 324.143L178.04 332.686Z" fill="black"/>
<path d="M188.299 334.007L179.02 334.663C178.863 334.67 178.716 334.739 178.608 334.854C178.501 334.969 178.443 335.121 178.445 335.278L178.516 342.641C178.545 343.027 178.723 343.387 179.013 343.643C179.303 343.899 179.683 344.032 180.069 344.012C183.287 343.73 184.598 342.923 188.642 342.348C191.134 341.985 197.115 341.642 200.473 340.714C203.832 339.786 203.277 336.68 200.534 336.821C196.974 336.982 192.213 336.085 189.752 334.421C189.327 334.126 188.816 333.981 188.299 334.007Z" fill="#263238"/>
<path d="M125.07 257.322C125.07 257.322 167.31 254.801 170.881 271.181C178.143 304.465 185.153 322.952 185.153 322.952L173.977 328.722C173.977 328.722 157.517 305.665 152.665 282.043C135.459 279.461 105.382 288.569 98.2007 275.649C91.8465 264.251 97.4241 256.062 97.4241 256.062L125.07 257.322Z" fill="#263238"/>
<path d="M174.187 331.728L187.198 325.424L185.736 320.089L171.434 326.806L174.187 331.728Z" fill="#F2994A"/>
<path d="M191.324 335.247C190.581 335.276 189.838 335.229 189.105 335.106C189.067 335.102 189.032 335.086 189.003 335.06C188.974 335.035 188.953 335.002 188.944 334.965C188.934 334.928 188.936 334.889 188.948 334.853C188.961 334.818 188.984 334.786 189.014 334.763C189.266 334.562 191.485 332.797 192.524 333.119C192.642 333.158 192.747 333.225 192.832 333.315C192.917 333.405 192.977 333.514 193.008 333.634C193.077 333.811 193.098 334.002 193.07 334.19C193.041 334.377 192.965 334.554 192.847 334.703C192.421 335.061 191.881 335.255 191.324 335.247ZM189.609 334.784C191.112 334.975 192.191 334.854 192.555 334.441C192.63 334.343 192.678 334.227 192.694 334.105C192.71 333.983 192.693 333.858 192.645 333.745C192.629 333.688 192.599 333.635 192.559 333.591C192.519 333.548 192.469 333.514 192.413 333.493C191.848 333.321 190.527 334.108 189.619 334.784H189.609Z" fill="#F2994A"/>
<path d="M189.147 335.106C189.117 335.116 189.086 335.116 189.056 335.106C189.027 335.094 189.001 335.075 188.982 335.05C188.962 335.026 188.95 334.996 188.945 334.965C188.945 334.864 188.572 332.504 189.349 331.637C189.449 331.528 189.573 331.442 189.711 331.386C189.849 331.33 189.997 331.306 190.145 331.314C190.311 331.309 190.474 331.359 190.609 331.455C190.744 331.552 190.843 331.69 190.892 331.849C191.144 332.736 190.034 334.542 189.248 335.096C189.216 335.11 189.181 335.113 189.147 335.106ZM190.044 331.677C189.967 331.682 189.891 331.702 189.822 331.737C189.753 331.771 189.691 331.82 189.641 331.879C189.177 332.393 189.207 333.755 189.278 334.542C190.008 333.86 190.452 332.926 190.519 331.929C190.519 331.818 190.418 331.697 190.135 331.677H190.044Z" fill="#F2994A"/>
<path d="M134.34 356.882L142.55 356.489L143.891 337.104L135.681 337.497L134.34 356.882Z" fill="#FFB573"/>
<path d="M143.375 353.887L134.086 353.595C133.93 353.586 133.777 353.638 133.659 353.739C133.541 353.841 133.466 353.984 133.451 354.139L132.775 361.472C132.767 361.664 132.796 361.856 132.863 362.036C132.929 362.217 133.03 362.383 133.16 362.524C133.29 362.665 133.447 362.78 133.621 362.861C133.796 362.941 133.985 362.987 134.177 362.995C137.414 362.995 138.776 362.632 142.861 362.763C145.372 362.844 149.921 363.247 154.157 363.247C158.393 363.247 156.689 359.818 154.429 359.495C150.899 358.991 147.067 356.348 144.787 354.452C144.394 354.109 143.896 353.91 143.375 353.887Z" fill="#263238"/>
<path d="M146.248 355.42C145.505 355.372 144.769 355.251 144.049 355.057C144.013 355.048 143.979 355.027 143.954 354.998C143.929 354.969 143.913 354.934 143.908 354.896C143.903 354.859 143.909 354.82 143.925 354.786C143.941 354.752 143.967 354.724 143.999 354.704C144.261 354.533 146.662 353 147.65 353.433C147.764 353.481 147.863 353.558 147.939 353.655C148.015 353.752 148.065 353.866 148.084 353.988C148.135 354.165 148.136 354.353 148.088 354.53C148.04 354.708 147.945 354.869 147.812 354.997C147.363 355.332 146.804 355.483 146.248 355.42ZM144.584 354.795C146.057 355.128 147.146 355.118 147.549 354.745C147.632 354.655 147.691 354.546 147.719 354.428C147.747 354.31 147.744 354.186 147.711 354.069C147.703 354.007 147.68 353.949 147.643 353.899C147.605 353.85 147.556 353.811 147.499 353.786C146.984 353.554 145.593 354.21 144.604 354.795H144.584Z" fill="#F2994A"/>
<path d="M144.113 355.057H144.032C144.002 355.042 143.977 355.019 143.959 354.99C143.941 354.962 143.932 354.929 143.932 354.895C143.932 354.795 143.811 352.414 144.678 351.627C144.789 351.529 144.921 351.456 145.064 351.414C145.207 351.372 145.358 351.362 145.505 351.385C145.668 351.398 145.823 351.464 145.945 351.574C146.067 351.683 146.15 351.829 146.181 351.991C146.342 352.898 145.051 354.593 144.164 355.016C144.15 355.033 144.132 355.047 144.113 355.057ZM145.354 351.738C145.197 351.735 145.045 351.793 144.93 351.9C144.446 352.681 144.227 353.597 144.305 354.512C145.041 353.927 145.908 352.636 145.797 352.041C145.797 351.93 145.727 351.789 145.444 351.748L145.354 351.738Z" fill="#F2994A"/>
<path opacity="0.2" d="M135.68 337.507L143.89 337.113L143.113 348.198L134.934 348.188L135.68 337.507Z" fill="black"/>
<path d="M105.747 256.445C105.747 256.445 157.024 265.997 156.026 280.399C154.24 306.331 145.546 343.387 145.546 343.387L133.231 343.558C133.231 343.558 131.547 305.02 133.07 286.259C117.688 286.259 87.4202 285.725 81.4997 277.807C74.9538 269.073 81.6812 255.346 81.6812 255.346L105.747 256.445Z" fill="#263238"/>
<path d="M132.188 345.788L147.731 345.566L148.467 340.513L131.543 341.007L132.188 345.788Z" fill="#F2994A"/>
<path d="M116.756 190.402C111.713 189.393 88.9992 189.706 88.9992 189.706C86.7274 189.649 84.5169 190.446 82.8044 191.94C81.0919 193.434 80.0021 195.516 79.7503 197.775C78.9535 204.775 81.3036 220.277 81.465 228.265C81.6566 238.069 81.8684 242.204 81.6768 255.396L134.558 258.17C136.575 234.125 128.738 222.526 124.068 198.602C123.373 194.941 121.789 191.38 116.756 190.402Z" fill="#F2994A"/>
<path opacity="0.3" d="M116.756 190.402C111.713 189.393 88.9992 189.706 88.9992 189.706C86.7274 189.649 84.5169 190.446 82.8044 191.94C81.0919 193.434 80.0021 195.516 79.7503 197.775C78.9535 204.775 81.3036 220.277 81.465 228.265C81.6566 238.069 81.8684 242.204 81.6768 255.396L134.558 258.17C136.575 234.125 128.738 222.526 124.068 198.602C123.373 194.941 121.789 191.38 116.756 190.402Z" fill="black"/>
<path d="M123.191 198.138C125.571 202.374 128.022 206.822 130.493 211.068C131.714 213.216 132.974 215.324 134.245 217.382C135.516 219.439 136.827 221.416 138.138 223.333L139.147 224.694C139.48 225.158 139.803 225.521 140.156 225.935L140.398 226.247L140.519 226.399L140.438 226.318L140.256 226.187C140.256 226.187 140.206 226.187 140.256 226.247C140.557 226.497 140.874 226.726 141.205 226.933C142.929 228.053 145.168 229.193 147.337 230.342C151.734 232.632 156.334 234.901 160.792 237.403H160.852C161.682 237.835 162.33 238.55 162.678 239.419C163.026 240.288 163.051 241.253 162.748 242.139C162.446 243.025 161.836 243.773 161.029 244.247C160.222 244.722 159.272 244.891 158.351 244.725C153.109 244.103 147.92 243.092 142.828 241.699C140.123 240.986 137.468 240.093 134.881 239.027C134.058 238.672 133.26 238.264 132.49 237.806C132.288 237.695 131.996 237.493 131.734 237.312L131.32 237.009L130.786 236.555L130.523 236.323L130.342 236.142L130.14 235.94L129.737 235.537C129.222 235.002 128.637 234.447 128.173 233.913L126.731 232.299C123.272 228.121 120.094 223.717 117.22 219.117C114.396 214.608 111.794 210.15 109.393 205.329C108.496 203.518 108.34 201.429 108.958 199.505C109.577 197.581 110.921 195.974 112.705 195.025C114.489 194.076 116.572 193.86 118.513 194.422C120.454 194.984 122.1 196.281 123.1 198.037L123.191 198.138Z" fill="#FFB573"/>
<path d="M109.012 195.384C113.561 188.264 120.964 188.163 127.107 199.913C132.382 209.999 132.15 210.816 132.15 210.816L117.858 220.166C112.008 210.766 104.353 202.677 109.012 195.384Z" fill="#F2994A"/>
<g opacity="0.3">
<path opacity="0.3" d="M109.012 195.384C113.561 188.264 120.964 188.163 127.107 199.913C132.382 209.999 132.15 210.816 132.15 210.816L117.858 220.166C112.008 210.766 104.353 202.677 109.012 195.384Z" fill="black"/>
</g>
<path d="M164.567 236.797L163.317 236.565C159.716 236.232 159.02 237.17 156.619 239.016L155.379 243.474C160.916 246.974 164.335 243.989 164.335 243.989L166.121 244.16C166.511 244.195 166.904 244.133 167.264 243.978C167.624 243.823 167.94 243.581 168.183 243.274C168.426 242.967 168.589 242.604 168.657 242.218C168.725 241.832 168.695 241.435 168.571 241.064L168.208 239.964C167.942 239.158 167.463 238.439 166.822 237.881C166.181 237.324 165.403 236.95 164.567 236.797Z" fill="#FFB573"/>
<path d="M53.6394 250.989C52.6821 245.623 52.9267 240.112 54.3555 234.852L55.3641 235.124C53.9784 240.237 53.7442 245.593 54.6782 250.808L53.6394 250.989Z" fill="#F2994A"/>
<path d="M55.3537 254.935L54.3594 255.104L55.3207 260.752L56.315 260.583L55.3537 254.935Z" fill="#F2994A"/>
<path d="M157.948 286.078L135.395 285.18L129.485 250.434C126.459 232.531 110.947 218.027 94.8797 218.027H80.6886C64.6216 218.027 54.0715 232.531 57.1175 250.434L61.1519 274.419C62.6548 283.294 70.3403 290.496 78.2982 290.496H167.6C167.788 290.472 167.964 290.389 168.103 290.26C168.242 290.131 168.337 289.962 168.375 289.776C168.413 289.591 168.391 289.398 168.314 289.224C168.237 289.051 168.107 288.907 167.943 288.811C164.847 287.191 161.438 286.259 157.948 286.078Z" fill="#F2994A"/>
<path d="M163.267 289.699H156.105V287.853H163.267C181.27 287.853 195.925 271.484 195.925 251.362V245.129H197.771V251.362C197.771 272.502 182.289 289.699 163.267 289.699Z" fill="#263238"/>
<path d="M310.289 243.938H213.473V246.309H310.289V243.938Z" fill="#F2994A"/>
<path d="M278.085 242.758H245.668V243.948H278.085V242.758Z" fill="#E0E0E0"/>
<path d="M310.29 243.938H284.621V246.309H310.29V243.938Z" fill="#263238"/>
<path d="M270.76 364.073H269.298L263.195 301.489C262.681 296.295 259.302 292.412 255.338 292.412H243.235C239.261 292.412 235.892 296.325 235.378 301.489L229.326 364.073H227.844L233.996 301.207C234.591 295.064 238.585 290.425 243.286 290.425H255.389C260.089 290.425 264.083 295.064 264.688 301.207L270.76 364.073Z" fill="#263238"/>
<path d="M225.2 364.073H223.738L217.626 301.489C217.121 296.295 213.743 292.412 209.769 292.412H197.686C193.712 292.412 190.333 296.325 189.829 301.489L183.716 364.073H182.254L188.427 301.207C189.022 295.064 193.016 290.425 197.726 290.425H209.789C214.489 290.425 218.493 295.064 219.088 301.207L225.2 364.073Z" fill="#263238"/>
<path d="M204.615 219.197L202.668 233.509C202.053 238.28 201.417 243.05 200.953 247.74L200.802 249.485L200.732 250.363C200.745 250.219 200.745 250.073 200.732 249.929C200.709 249.792 200.675 249.657 200.631 249.526C200.573 249.351 200.492 249.184 200.389 249.031C200.237 248.84 200.217 248.87 200.258 248.91C200.344 249.004 200.442 249.085 200.55 249.153C200.908 249.402 201.286 249.621 201.68 249.808C203.706 250.74 205.8 251.519 207.943 252.138C212.421 253.53 217.121 254.66 221.761 255.819L221.237 259.854C216.274 259.693 211.33 259.181 206.44 258.321C203.848 257.885 201.303 257.209 198.835 256.304C198.108 256.021 197.404 255.684 196.727 255.295C196.31 255.059 195.912 254.789 195.537 254.488C195.01 254.076 194.547 253.586 194.166 253.036C193.897 252.627 193.68 252.187 193.52 251.724C193.435 251.447 193.368 251.164 193.318 250.877C193.3 250.585 193.3 250.292 193.318 250V249.052V247.166C193.52 242.183 193.974 237.311 194.498 232.45C195.023 227.589 195.638 222.757 196.405 217.916L204.615 219.197Z" fill="#FFC3BD"/>
<path d="M232.487 260.117L229.35 262.981C228.994 263.308 228.548 263.521 228.069 263.591C227.591 263.661 227.102 263.586 226.667 263.374L223.208 261.71C223.208 261.71 218.084 261.498 217.348 258.362L218.679 255.931L226.617 255.043C227.436 254.957 228.262 255.141 228.967 255.568L232.235 257.585C232.444 257.715 232.62 257.891 232.75 258.099C232.88 258.308 232.96 258.544 232.985 258.789C233.009 259.033 232.977 259.28 232.891 259.511C232.804 259.741 232.666 259.948 232.487 260.117Z" fill="#FFC3BD"/>
<path d="M213.744 189.786C214.551 194.698 215.237 203.675 211.727 206.822C217.26 209.906 222.095 214.102 225.928 219.147C231.979 214.386 226.936 207.275 226.936 207.275C221.53 205.813 221.792 201.778 222.851 198.016L213.744 189.786Z" fill="#FFC3BD"/>
<path d="M202.035 208.103C195.852 210.12 194.52 218.4 195.075 224.845L207.552 232.521C207.552 232.521 210.577 223.111 210.577 218.078C210.527 212.722 206.23 206.741 202.035 208.103Z" fill="#263238"/>
<path d="M241.318 220.146C240.803 227.206 239.22 239.198 235.327 259.32L201.922 258.311C202.799 245.976 201.478 236.788 198.452 215.203C198.328 214.27 198.392 213.321 198.641 212.412C198.889 211.504 199.317 210.654 199.899 209.914C200.481 209.173 201.205 208.557 202.028 208.1C202.852 207.643 203.759 207.356 204.695 207.256C206.833 207.034 209.274 206.852 211.755 206.802C216.803 206.596 221.858 206.748 226.884 207.256C228.518 207.457 230.193 207.709 231.796 207.982C234.614 208.459 237.151 209.97 238.912 212.22C240.673 214.47 241.531 217.296 241.318 220.146Z" fill="#263238"/>
<path d="M229.175 179.871C229.377 180.507 229.881 180.88 230.295 180.779C230.709 180.678 230.88 180.023 230.678 179.397C230.477 178.772 229.972 178.389 229.559 178.49C229.145 178.591 228.954 179.246 229.175 179.871Z" fill="#263238"/>
<path d="M229.387 178.58L230.758 177.652C230.758 177.652 230.365 179.095 229.387 178.58Z" fill="#263238"/>
<path d="M229.602 180.83C230.626 182.092 231.821 183.205 233.152 184.138C232.904 184.473 232.586 184.749 232.22 184.948C231.854 185.146 231.449 185.263 231.034 185.288L229.602 180.83Z" fill="#ED847E"/>
<path d="M228.15 174.183C228.183 174.124 228.201 174.058 228.201 173.991C228.201 173.924 228.183 173.858 228.15 173.799C228.087 173.717 227.996 173.663 227.894 173.648C227.792 173.633 227.688 173.658 227.605 173.719C227.097 174.074 226.683 174.546 226.397 175.096C226.11 175.645 225.961 176.256 225.961 176.876C225.962 176.926 225.974 176.976 225.995 177.023C226.016 177.069 226.047 177.11 226.084 177.144C226.122 177.178 226.166 177.204 226.215 177.22C226.263 177.237 226.314 177.243 226.364 177.239C226.416 177.237 226.466 177.226 226.513 177.205C226.559 177.184 226.601 177.153 226.636 177.116C226.671 177.078 226.698 177.034 226.715 176.986C226.733 176.938 226.74 176.886 226.738 176.835C226.742 176.345 226.865 175.863 227.097 175.43C227.329 174.998 227.663 174.629 228.069 174.354C228.112 174.306 228.14 174.246 228.15 174.183Z" fill="#263238"/>
<path d="M206.837 184.077C209.863 191.682 210.871 194.96 216.116 197.684C223.943 201.778 232.627 196.453 231.981 188.112C231.407 180.608 226.636 169.433 218.042 168.787C216.145 168.624 214.238 168.951 212.504 169.739C210.77 170.526 209.268 171.747 208.142 173.283C207.016 174.819 206.305 176.619 206.076 178.509C205.848 180.4 206.11 182.317 206.837 184.077Z" fill="#FFC3BD"/>
<path d="M225.1 182.323C226.572 181.899 229.134 178.964 224.666 173.054C227.057 172.62 229.003 168.233 222.447 165.721C215.891 163.21 208.74 164.43 204.403 170.441C204.403 170.441 190.575 174.526 201.841 188.758C213.108 202.989 227.41 197.19 225.1 182.323Z" fill="#263238"/>
<path d="M199.281 170.431C199.279 170.833 199.379 171.228 199.572 171.581C199.764 171.934 200.042 172.232 200.381 172.448C201.03 172.995 201.837 173.317 202.684 173.368C203.531 173.419 204.371 173.195 205.081 172.731C206.612 171.722 208.012 170.526 209.246 169.17C209.612 168.775 209.894 168.31 210.077 167.804C210.26 167.297 210.339 166.76 210.311 166.222C210.283 165.684 210.148 165.158 209.913 164.673C209.678 164.189 209.348 163.756 208.944 163.401C208.759 163.246 208.564 163.104 208.359 162.978C208.359 162.978 200.441 163.21 199.281 170.431Z" fill="#F2994A"/>
<path d="M200.401 169.483C204.929 168.757 207.34 165.136 207.602 164.057C206.594 161.394 193.482 144.469 182.306 156.845C170.506 169.957 193.603 183.139 185.332 198.924C199.705 194.093 211.425 184.148 200.401 169.483Z" fill="#263238"/>
<path d="M221.833 183.896C222.602 185.409 223.941 186.556 225.555 187.083C227.693 187.759 228.843 185.862 228.308 183.805C227.834 181.949 226.15 179.357 223.971 179.579C223.496 179.635 223.043 179.809 222.652 180.084C222.261 180.36 221.945 180.729 221.732 181.158C221.52 181.586 221.418 182.061 221.436 182.539C221.453 183.018 221.59 183.484 221.833 183.896Z" fill="#FFC3BD"/>
<path d="M275.886 351.254L283.773 350.508L278.458 331.082L270.57 331.828L275.886 351.254Z" fill="#FFC3BD"/>
<path d="M294.404 355.823C289.583 354.401 289.734 352.283 284.923 348.369C284.443 347.936 283.841 347.661 283.198 347.583L275.351 347.038C275.199 347.039 275.052 347.094 274.938 347.194C274.823 347.294 274.748 347.432 274.726 347.583L273.617 353.019C273.233 354.905 274.393 356.711 276.027 356.771C278.639 356.872 281.847 356.973 284.701 357.164C288.867 357.457 288.917 359.565 293.779 359.333C296.774 359.192 296.048 356.307 294.404 355.823Z" fill="#263238"/>
<path d="M305.233 326.261L310.579 321.621L301.632 308.035L294.945 314.369L305.233 326.261Z" fill="#FFC3BD"/>
<path d="M309.15 318.746L302.775 324.647C302.654 324.761 302.576 324.915 302.556 325.081C302.536 325.246 302.574 325.414 302.664 325.555L305.69 330.234C305.949 330.599 306.282 330.904 306.668 331.13C307.053 331.356 307.482 331.497 307.927 331.545C308.371 331.592 308.82 331.545 309.245 331.406C309.67 331.267 310.06 331.04 310.39 330.739C312.478 329.125 313.658 326.291 316.129 323.971C319.73 320.602 320.376 320.693 322.605 315.983C324.117 312.816 320.819 312.806 319.659 313.784C316.745 316.265 317.894 316.366 311.106 317.819C310.382 317.944 309.705 318.265 309.15 318.746Z" fill="#263238"/>
<path d="M223.68 258.745C223.68 258.745 277.761 250.736 283.359 264.605C293.102 288.72 307.203 315.892 307.203 315.892L300.848 321.722C300.848 321.722 276.642 300.027 268.25 275.79C258.235 279.038 226.353 289.467 214.673 289.467C202.207 289.467 197.113 278.836 201.622 261.226C201.818 260.459 202.265 259.78 202.892 259.298C203.519 258.815 204.29 258.556 205.081 258.563C212.928 258.563 223.68 258.745 223.68 258.745Z" fill="#F2994A"/>
<path opacity="0.5" d="M223.68 258.745C223.68 258.745 277.761 250.736 283.359 264.605C293.102 288.72 307.203 315.892 307.203 315.892L300.848 321.722C300.848 321.722 276.642 300.027 268.25 275.79C258.235 279.038 226.353 289.467 214.673 289.467C202.207 289.467 197.113 278.836 201.622 261.226C201.818 260.459 202.265 259.78 202.892 259.298C203.519 258.815 204.29 258.556 205.081 258.563C212.928 258.563 223.68 258.745 223.68 258.745Z" fill="white"/>
<path d="M228.864 265.785C228.864 265.785 273.243 264.444 273.626 280.168C274.241 306.18 282.219 343.377 282.219 343.377L273.475 344.194C273.475 344.194 260.222 314.551 256.742 289.104C240.927 290.113 226.353 289.427 214.673 289.427C201.561 289.427 200.553 275.054 213.251 258.291C221.037 258.331 228.864 265.785 228.864 265.785Z" fill="#F2994A"/>
<path opacity="0.5" d="M228.864 265.785C228.864 265.785 273.243 264.444 273.626 280.168C274.241 306.18 282.219 343.377 282.219 343.377L273.475 344.194C273.475 344.194 260.222 314.551 256.742 289.104C240.927 290.113 226.353 289.427 214.673 289.427C201.561 289.427 200.553 275.054 213.251 258.291C221.037 258.331 228.864 265.785 228.864 265.785Z" fill="white"/>
<path d="M201.49 256.354L200.541 259.319C200.42 259.551 200.683 259.793 201.076 259.803L235.449 260.812C235.752 260.812 236.004 260.681 236.034 260.499L236.418 257.473C236.418 257.272 236.196 257.08 235.863 257.07L202.034 256.061C201.925 256.053 201.816 256.076 201.719 256.128C201.623 256.18 201.543 256.258 201.49 256.354Z" fill="white"/>
<path d="M205.918 260.268H205.01C204.829 260.268 204.697 260.167 204.708 260.046L205.252 256.173C205.252 256.062 205.424 255.971 205.605 255.981H206.513C206.695 255.981 206.826 256.082 206.816 256.193L206.271 260.066C206.261 260.187 206.099 260.278 205.918 260.268Z" fill="#263238"/>
<path d="M232.898 261.075H231.991C231.809 261.075 231.678 260.974 231.688 260.863L232.233 256.99C232.233 256.879 232.404 256.788 232.586 256.788H233.493C233.675 256.788 233.806 256.889 233.796 257.01L233.251 260.873C233.241 260.994 233.08 261.075 232.898 261.075Z" fill="#263238"/>
<path d="M219.401 260.671H218.504C218.322 260.671 218.181 260.57 218.201 260.459L218.736 256.586C218.736 256.475 218.917 256.384 219.099 256.394H220.007C220.188 256.394 220.319 256.505 220.299 256.616L219.764 260.489C219.744 260.59 219.583 260.681 219.401 260.671Z" fill="#263238"/>
<path d="M242.592 223.978C242.723 224.694 242.915 225.622 243.086 226.449C243.258 227.276 243.47 228.163 243.692 229.011C244.125 230.705 244.609 232.389 245.154 234.054C245.702 235.668 246.332 237.253 247.04 238.804C247.724 240.278 248.53 241.691 249.451 243.03L249.612 243.282L249.552 243.202C249.51 243.153 249.462 243.109 249.41 243.07C249.327 242.988 249.236 242.914 249.138 242.849C248.891 242.669 248.603 242.551 248.301 242.506C248.029 242.506 248.18 242.506 248.402 242.506C249.091 242.433 249.768 242.277 250.419 242.042C252.055 241.477 253.658 240.82 255.22 240.075C258.478 238.552 261.796 236.837 265.054 235.133L267.424 238.481C264.555 241.059 261.497 243.419 258.276 245.542C256.592 246.66 254.829 247.654 253.001 248.517C251.922 249.029 250.789 249.418 249.622 249.677C248.737 249.87 247.824 249.898 246.929 249.758C246.165 249.627 245.439 249.331 244.801 248.89C244.608 248.756 244.426 248.608 244.256 248.446L244.004 248.184L243.813 247.982L243.56 247.66C240.929 244.416 238.86 240.754 237.438 236.827C236.728 234.955 236.119 233.046 235.613 231.108C235.361 230.1 235.139 229.172 234.927 228.194C234.715 227.215 234.554 226.277 234.402 225.168L242.592 223.978Z" fill="#FFC3BD"/>
<path d="M238.575 211.835C244.425 216.343 244.425 229.596 244.425 229.596L234.339 232.39C234.339 232.39 227.087 223.605 228.923 219.44C230.849 215.103 235.418 209.424 238.575 211.835Z" fill="#263238"/>
<path d="M273.677 234.901C273.588 234.898 273.502 234.873 273.426 234.827C273.35 234.781 273.287 234.716 273.244 234.639L265.265 219.358C265.236 219.301 265.218 219.239 265.213 219.175C265.207 219.111 265.215 219.047 265.234 218.986C265.254 218.925 265.286 218.869 265.327 218.82C265.369 218.771 265.42 218.731 265.477 218.703C265.591 218.645 265.724 218.634 265.846 218.671C265.968 218.709 266.071 218.792 266.133 218.904L274.121 234.185C274.151 234.242 274.169 234.304 274.174 234.368C274.179 234.432 274.172 234.496 274.152 234.557C274.132 234.618 274.101 234.674 274.059 234.723C274.017 234.772 273.966 234.812 273.909 234.84C273.839 234.881 273.759 234.901 273.677 234.901Z" fill="#263238"/>
<path d="M270.307 226.207L267.282 228.062C266.518 228.531 265.933 229.241 265.617 230.08L262.793 237.442L261.492 242.122C264.518 243.212 270.005 236.071 270.005 236.071L273.454 233.479C273.729 233.271 273.935 232.987 274.046 232.661C274.158 232.336 274.169 231.985 274.08 231.653L272.9 227.255C272.834 226.99 272.707 226.744 272.529 226.538C272.35 226.332 272.125 226.171 271.872 226.068C271.619 225.966 271.345 225.925 271.073 225.949C270.801 225.973 270.539 226.061 270.307 226.207Z" fill="#FFC3BD"/>
<path d="M266.686 286.078L244.083 285.15L238.173 250.404C235.147 232.501 219.645 217.997 203.578 217.997H189.427C173.36 217.997 162.81 232.501 165.856 250.404L169.89 274.388C171.403 283.264 179.089 290.465 187.037 290.465H276.359C276.546 290.44 276.721 290.356 276.858 290.227C276.996 290.097 277.09 289.928 277.126 289.742C277.163 289.557 277.141 289.364 277.063 289.192C276.985 289.02 276.855 288.876 276.692 288.781C273.591 287.168 270.177 286.246 266.686 286.078Z" fill="#F2994A"/>
<path d="M272.001 289.698H264.84V287.853H272.001C290.005 287.853 304.66 271.483 304.66 251.361V245.128H306.495V251.361C306.495 272.502 291.023 289.698 272.001 289.698Z" fill="#263238"/>
<path d="M383.594 343.529L396.514 340.785L398.945 356.217L388.153 358.527L383.594 343.529Z" fill="#B55B52"/>
<path opacity="0.2" d="M383.594 343.529L396.524 340.785L397.886 349.429L386.146 351.93L383.594 343.529Z" fill="black"/>
<path d="M391.336 284.716C395.633 264.706 404.519 243.818 396.117 224.755L359.242 224.634C359.242 224.634 362.056 268.458 363.347 286.925C364.699 306.089 384.145 349.63 384.145 349.63L398.921 346.383C398.921 346.383 394.715 306.149 391.336 284.716Z" fill="#263238"/>
<path opacity="0.2" d="M391.722 282.81C394.365 271.231 398.298 259.38 399.327 247.801C385.348 232.551 387.113 263.646 391.722 282.81Z" fill="black"/>
<path d="M401.887 360.503L398.488 361.26L397.479 360.251L396.239 361.734L389.975 364.447C387.681 365.445 385.205 365.96 382.703 365.96H377.559C377.482 364.586 377.767 363.215 378.386 361.986C378.386 361.986 383.349 361.119 385.911 356.993C386.083 356.774 386.306 356.601 386.561 356.489C386.816 356.376 387.095 356.328 387.373 356.348C389.743 356.287 395.976 355.934 399.083 353.897C399.156 353.854 399.239 353.828 399.324 353.822C399.409 353.817 399.494 353.831 399.573 353.865C399.651 353.898 399.721 353.949 399.776 354.015C399.831 354.08 399.87 354.157 399.89 354.24C400.387 356.378 401.055 358.472 401.887 360.503Z" fill="#263238"/>
<path d="M413.527 345.435L426.75 345.566L427.325 361.159L416.281 361.068L413.527 345.435Z" fill="#B55B52"/>
<path opacity="0.2" d="M413.527 345.444L426.76 345.565L427.083 354.3L415.071 354.199L413.527 345.444Z" fill="black"/>
<path d="M427.91 284.716C428.979 264.706 430.432 234.76 423.724 225.562L382.543 224.634C382.543 224.634 393.991 268.458 398.267 286.925C402.705 306.089 413.598 351.476 413.598 351.476H427.89C427.89 351.476 433.286 307.561 427.91 284.716Z" fill="#263238"/>
<path d="M375.714 165.237L375.098 165.781L374.634 166.175L373.737 166.891C373.152 167.335 372.567 167.748 371.972 168.152C370.811 168.946 369.605 169.673 368.361 170.33C365.891 171.654 363.296 172.732 360.615 173.548C359.273 173.961 357.892 174.294 356.51 174.556C355.128 174.818 353.716 175.02 352.304 175.161C349.474 175.427 346.624 175.39 343.801 175.05L342.732 174.919C341.746 174.801 340.8 174.456 339.969 173.911C337.651 172.377 335.58 170.499 333.826 168.343C332.304 166.479 330.953 164.481 329.792 162.372C328.702 160.39 327.752 158.334 326.948 156.22C326.554 155.211 326.211 154.122 325.879 153.063C325.546 152.004 325.314 150.965 325.041 149.734C324.81 148.709 324.917 147.636 325.346 146.677C325.776 145.717 326.505 144.923 327.424 144.413C328.343 143.902 329.403 143.704 330.445 143.847C331.486 143.99 332.453 144.467 333.201 145.206L333.705 145.71C334.29 146.295 334.976 147.072 335.612 147.727C336.247 148.383 336.913 149.119 337.548 149.805C338.849 151.167 340.12 152.488 341.421 153.678C342.616 154.866 343.894 155.968 345.244 156.976C346.261 157.747 347.377 158.378 348.562 158.852L344.739 157.733C346.403 157.619 348.056 157.377 349.682 157.007C351.309 156.62 352.907 156.118 354.462 155.504C356.032 154.862 357.562 154.124 359.041 153.295C359.788 152.881 360.504 152.427 361.2 151.994C361.553 151.772 361.886 151.54 362.208 151.328L362.662 151.015L362.844 150.884H362.915H362.854C364.763 149.18 367.27 148.304 369.824 148.449C372.379 148.594 374.771 149.747 376.475 151.656C378.179 153.564 379.055 156.072 378.91 158.626C378.766 161.181 377.612 163.573 375.704 165.277L375.714 165.237Z" fill="#B65B52"/>
<path d="M327.694 151.833L331.537 147.798C333.807 142.412 326.373 140.687 326.373 140.687L321.744 137.309C321.146 136.947 320.439 136.809 319.749 136.918C319.059 137.027 318.429 137.376 317.971 137.904L315.268 140.708C314.971 140.972 314.728 141.292 314.554 141.65C314.38 142.008 314.279 142.396 314.255 142.794C314.232 143.191 314.287 143.589 314.418 143.965C314.548 144.34 314.752 144.687 315.016 144.984L318.879 148.504C319.595 149.21 320.476 149.727 321.441 150.007L327.694 151.833Z" fill="#B55B52"/>
<path d="M380.021 143.188C371.085 142.664 357.993 152.942 357.993 152.942C356.753 156.361 359.809 169.079 365.275 174.627C365.275 174.627 371.549 176.119 377.036 169.503C383.007 162.291 389.492 143.733 380.021 143.188Z" fill="#F2994A"/>
<path d="M381.796 142.856C394.028 141.697 406.351 141.893 418.54 143.441C420.208 143.687 421.809 144.272 423.243 145.159C424.678 146.046 425.916 147.217 426.882 148.599C427.848 149.982 428.522 151.547 428.861 153.199C429.201 154.851 429.2 156.555 428.858 158.207C423.149 186.972 427.415 219.086 423.724 225.521C423.724 225.521 382.966 226.227 359.173 224.593C352.667 193.327 365.467 174.254 371.892 149.866C373.031 145.741 377.509 143.35 381.796 142.856Z" fill="#F2994A"/>
<path d="M431.802 154.737L432.71 155.877L433.517 156.886C434.031 157.571 434.525 158.277 435.009 158.973C436.018 160.365 436.906 161.808 437.793 163.26C439.591 166.223 441.175 169.311 442.534 172.499C444.003 175.867 445.119 179.379 445.862 182.978C446.744 187.024 446.891 191.195 446.296 195.293L446.175 196.12C446.068 196.798 445.839 197.451 445.499 198.047C444.294 200.154 442.946 202.176 441.465 204.098C440.048 205.937 438.529 207.695 436.916 209.363C435.312 210.997 433.668 212.551 431.933 214.013C430.183 215.496 428.34 216.867 426.416 218.118C425.516 218.71 424.446 218.989 423.372 218.911C422.297 218.833 421.279 218.403 420.474 217.687C419.669 216.97 419.123 216.008 418.921 214.95C418.719 213.892 418.872 212.797 419.356 211.834L419.578 211.441C420.445 209.706 421.494 207.86 422.432 206.085C423.37 204.31 424.338 202.535 425.226 200.77C426.114 199.005 426.951 197.26 427.768 195.566C428.585 193.871 429.21 192.156 429.835 190.523L429.039 193.266C428.989 191.241 428.649 189.234 428.03 187.305C427.675 186.155 427.261 185.024 426.789 183.916C426.325 182.766 425.781 181.596 425.206 180.426C424.026 178.097 422.704 175.736 421.252 173.427C420.546 172.257 419.769 171.117 419.023 169.977L417.873 168.293L416.814 166.79L416.461 166.286C414.971 164.241 414.345 161.691 414.719 159.189C415.093 156.686 416.437 154.431 418.461 152.911C420.484 151.391 423.024 150.729 425.532 151.067C428.04 151.405 430.314 152.716 431.863 154.717L431.802 154.737Z" fill="#B65B52"/>
<path d="M421.707 144.369C430.139 147.395 438.087 161.657 438.087 161.657C437.734 166.851 429.463 178.611 423.613 181.183C419.53 177.685 416.505 173.116 414.879 167.991C412.196 158.994 417.37 145.66 421.707 144.369Z" fill="#F2994A"/>
<path d="M387.584 145.014C388.391 143.466 389.694 142.234 391.285 141.514C391.885 139.964 391.931 138.254 391.416 136.673L409.49 130.914C408.028 136.895 406.878 141.625 409.107 144.53C405.547 146.709 399.021 150.582 391.961 150.4C384.901 150.219 386.424 147.526 387.584 145.014Z" fill="#B55B52"/>
<path opacity="0.2" d="M391.56 137.238L405.146 136.441C400.9 140.98 394.465 142.685 391.52 140.839C391.844 139.662 391.858 138.422 391.56 137.238Z" fill="black"/>
<path d="M391.52 150.38L394.465 147.898L398.408 149.916C398.408 149.916 395.887 152.286 391.52 150.38Z" fill="#F2994A"/>
<path opacity="0.3" d="M391.52 150.38L394.465 147.898L398.408 149.916C398.408 149.916 395.887 152.286 391.52 150.38Z" fill="black"/>
<path d="M401.537 112.205C401.315 106.647 395.949 104.136 391.299 107.031C386.65 109.925 386.256 118.872 389.675 123.542C393.095 128.211 401.537 112.205 401.537 112.205Z" fill="#F5F5F5"/>
<path d="M413.053 121.756C410.894 129.542 409.24 134.787 403.622 137.298C392.437 142.271 387.485 136.996 387.051 128.766C386.698 121.362 390.289 109.874 399.265 108.2C408.242 106.526 415.211 113.959 413.053 121.756Z" fill="#B55B52"/>
<path d="M406.859 117.701C404.449 119.99 403.49 130.117 407.131 129.945C409.612 129.804 412.079 129.487 414.514 128.997C414.514 128.997 419.144 127.242 416.612 120.303C414.081 113.364 406.859 117.701 406.859 117.701Z" fill="#E0E0E0"/>
<path opacity="0.2" d="M400.414 120.807C401.438 120.543 402.524 120.692 403.44 121.221C402.414 121.279 401.387 121.138 400.414 120.807Z" fill="black"/>
<path opacity="0.2" d="M400.316 121.534C400.791 121.508 401.265 121.585 401.707 121.759C402.149 121.933 402.549 122.201 402.878 122.543C401.962 122.395 401.088 122.051 400.316 121.534Z" fill="black"/>
<path opacity="0.2" d="M393.559 112.598C396.113 112.586 398.662 112.843 401.163 113.365C396.917 113.062 393.559 112.598 393.559 112.598Z" fill="black"/>
<path opacity="0.2" d="M392.348 113.264C392.348 113.264 398.157 113.899 400.85 115.15C397.978 114.704 395.138 114.074 392.348 113.264Z" fill="black"/>
<path d="M414.657 130.874C413.922 131.663 413.039 132.301 412.057 132.749C411.076 133.197 410.016 133.447 408.938 133.486C406.043 133.556 405.277 130.793 406.649 128.443C407.889 126.315 410.885 123.712 413.507 124.771C414.074 125.01 414.573 125.385 414.96 125.863C415.347 126.342 415.609 126.909 415.723 127.513C415.836 128.118 415.799 128.741 415.613 129.328C415.427 129.914 415.098 130.445 414.657 130.874Z" fill="#B55B52"/>
<path d="M397.855 120.697C397.98 120.001 397.712 119.37 397.257 119.289C396.802 119.207 396.332 119.705 396.207 120.401C396.082 121.098 396.349 121.728 396.804 121.81C397.259 121.892 397.73 121.394 397.855 120.697Z" fill="#263238"/>
<path d="M390.652 119.567C390.531 120.253 390.057 120.747 389.643 120.656C389.23 120.565 388.927 119.94 389.058 119.244C389.189 118.548 389.653 118.054 390.067 118.145C390.48 118.235 390.783 118.871 390.652 119.567Z" fill="#263238"/>
<path d="M392.94 120.556L391.931 126.406C391.231 126.416 390.533 126.317 389.864 126.113C389.731 126.064 389.614 125.98 389.526 125.87C389.438 125.759 389.381 125.627 389.362 125.487C389.344 125.347 389.364 125.204 389.42 125.075C389.476 124.945 389.567 124.833 389.682 124.751C391.028 123.576 392.135 122.151 392.94 120.556Z" fill="#A02724"/>
<path d="M401.928 119.426C401.994 119.449 402.065 119.449 402.13 119.426C402.179 119.403 402.223 119.369 402.259 119.328C402.295 119.287 402.322 119.239 402.339 119.188C402.356 119.136 402.363 119.081 402.358 119.027C402.353 118.972 402.337 118.919 402.312 118.871C402.03 118.269 401.609 117.744 401.082 117.338C400.556 116.933 399.94 116.66 399.286 116.542C399.231 116.534 399.176 116.538 399.123 116.553C399.07 116.567 399.021 116.592 398.978 116.626C398.935 116.66 398.899 116.702 398.872 116.75C398.845 116.797 398.828 116.85 398.822 116.905C398.813 117.013 398.845 117.122 398.912 117.208C398.98 117.294 399.077 117.351 399.185 117.369C399.697 117.472 400.178 117.695 400.588 118.02C400.998 118.344 401.326 118.76 401.545 119.234C401.584 119.3 401.64 119.353 401.708 119.387C401.776 119.421 401.853 119.435 401.928 119.426Z" fill="#263238"/>
<path d="M388.24 117.157C388.308 117.167 388.377 117.162 388.441 117.141C388.506 117.12 388.565 117.084 388.614 117.036C388.957 116.646 389.389 116.344 389.874 116.154C390.358 115.965 390.88 115.894 391.397 115.947C391.504 115.964 391.614 115.939 391.702 115.877C391.791 115.815 391.852 115.72 391.871 115.614C391.889 115.506 391.865 115.395 391.803 115.305C391.74 115.214 391.646 115.152 391.539 115.13C390.887 115.053 390.226 115.134 389.611 115.366C388.997 115.597 388.447 115.973 388.008 116.461C387.969 116.499 387.937 116.544 387.916 116.594C387.894 116.645 387.883 116.699 387.883 116.753C387.883 116.808 387.894 116.862 387.916 116.913C387.937 116.963 387.969 117.008 388.008 117.046C388.07 117.11 388.152 117.149 388.24 117.157Z" fill="#263238"/>
<path d="M407.899 140.496C407.899 140.496 402.06 147.556 394.465 147.94C398.883 150.038 399.629 155 399.629 155C399.629 155 409.12 152.115 410.905 142.019C410.56 141.546 410.108 141.161 409.586 140.896C409.063 140.631 408.485 140.494 407.899 140.496Z" fill="white"/>
<path d="M391.518 150.38L388.189 147.354L383.953 148.615C383.953 148.615 387.15 152.287 391.518 150.38Z" fill="#F2994A"/>
<path opacity="0.3" d="M391.518 150.38L388.189 147.354L383.953 148.615C383.953 148.615 387.15 152.287 391.518 150.38Z" fill="black"/>
<path d="M391.337 141.514C391.337 141.514 388.382 144.934 388.241 147.405C384.691 148.413 382.976 153.618 382.976 153.618C382.976 153.618 382.33 146.164 387.908 142.15C388.962 141.6 390.156 141.379 391.337 141.514Z" fill="white"/>
<path d="M429.203 365.99H426.328L425.551 364.82L424.039 366H406.691C406.586 364.633 406.844 363.262 407.437 362.026C407.437 362.026 412.621 361.552 414.618 359C414.688 358.9 414.785 358.822 414.897 358.776C415.01 358.729 415.134 358.716 415.254 358.738C416.988 359.101 423.847 360.402 427.619 359.04C427.713 359.003 427.814 358.989 427.914 358.999C428.015 359.009 428.111 359.043 428.195 359.099C428.279 359.154 428.349 359.229 428.398 359.318C428.447 359.406 428.474 359.504 428.476 359.605C428.553 361.749 428.796 363.884 429.203 365.99Z" fill="#263238"/>
<path d="M391.683 153.013C392.5 151.742 392.923 150.39 392.005 149.785C391.35 149.361 389.383 148.776 388.98 150.098C388.576 151.419 388.627 152.549 389.181 153.124C389.348 153.29 389.547 153.421 389.766 153.506C389.986 153.592 390.221 153.631 390.456 153.62C390.692 153.61 390.922 153.55 391.134 153.446C391.345 153.341 391.532 153.194 391.683 153.013Z" fill="#263238"/>
<path d="M392.096 150.068C393.81 147.687 398.854 146.84 398.854 148.797C398.854 152.559 398.732 156.361 397.119 157.249C395.505 158.136 392.963 152.317 391.723 152.206L392.096 150.068Z" fill="#263238"/>
<path d="M389.322 149.916C388.313 147.405 385.116 146.517 384.592 148.383C383.583 151.964 383.442 154.929 384.592 155.958C385.741 156.987 388.263 152.065 389.282 152.105L389.322 149.916Z" fill="#263238"/>
<path d="M332.972 146.557C334.243 141.948 331.025 139.094 329.24 136.108C328.927 135.604 327.384 135.876 327.304 136.945C327.202 137.597 327.232 138.262 327.393 138.902C327.554 139.541 327.843 140.142 328.242 140.667C327.304 141.837 325.912 145.932 329.18 148.595C330.651 148.403 332 147.678 332.972 146.557Z" fill="#B55B52"/>
<path d="M420.303 143.623C419.857 143.345 419.359 143.16 418.839 143.079C418.319 142.997 417.788 143.021 417.278 143.149C414.131 146.77 400.464 173.125 406.082 221.972H409.279C403.631 173.115 417.157 147.244 420.303 143.623Z" fill="white"/>
<path d="M409.582 225.965L409.3 222.364C409.277 222.174 409.181 222 409.032 221.88C408.883 221.759 408.693 221.702 408.503 221.719L406.96 221.799C406.771 221.807 406.594 221.889 406.466 222.027C406.337 222.165 406.268 222.347 406.274 222.536L406.556 226.147C406.581 226.336 406.678 226.508 406.826 226.628C406.974 226.748 407.163 226.807 407.353 226.792L408.896 226.701C408.99 226.699 409.082 226.678 409.167 226.639C409.253 226.6 409.329 226.545 409.393 226.477C409.457 226.408 409.507 226.328 409.539 226.24C409.571 226.152 409.586 226.059 409.582 225.965Z" fill="white"/>
<path d="M409.655 223.656H406.205C406.021 223.65 405.844 223.582 405.703 223.463C405.562 223.344 405.465 223.181 405.429 223L405.207 221.608C405.19 221.527 405.192 221.443 405.212 221.363C405.232 221.283 405.271 221.208 405.324 221.145C405.378 221.082 405.445 221.032 405.521 220.998C405.596 220.965 405.679 220.949 405.762 220.953H409.211C409.394 220.959 409.57 221.027 409.709 221.146C409.849 221.265 409.943 221.428 409.978 221.608L410.21 223C410.226 223.081 410.225 223.165 410.204 223.245C410.184 223.326 410.146 223.4 410.092 223.463C410.039 223.526 409.971 223.577 409.896 223.61C409.82 223.643 409.738 223.659 409.655 223.656Z" fill="#263238"/>
<path d="M382.632 142.856C382.036 142.382 380.16 142.654 379.222 143.189C375.924 146.809 361.068 173.164 364.537 222.011H367.734C364.275 173.114 379.333 146.436 382.632 142.856Z" fill="white"/>
<path d="M367.887 225.965L367.766 222.364C367.76 222.271 367.735 222.18 367.693 222.096C367.651 222.013 367.592 221.939 367.52 221.878C367.449 221.818 367.366 221.773 367.276 221.746C367.187 221.718 367.093 221.709 367 221.719L365.447 221.799C365.256 221.809 365.077 221.891 364.944 222.027C364.812 222.164 364.735 222.345 364.73 222.536L364.851 226.146C364.869 226.333 364.96 226.505 365.103 226.626C365.246 226.746 365.431 226.806 365.618 226.792L367.171 226.701C367.362 226.693 367.543 226.613 367.676 226.476C367.809 226.339 367.885 226.156 367.887 225.965Z" fill="white"/>
<path d="M368.058 223.655H364.609C364.427 223.651 364.253 223.582 364.117 223.463C363.981 223.343 363.891 223.179 363.862 223L363.701 221.608C363.689 221.525 363.696 221.441 363.72 221.361C363.744 221.281 363.786 221.207 363.841 221.144C363.897 221.082 363.966 221.032 364.042 220.999C364.119 220.966 364.202 220.95 364.286 220.952H367.735C367.917 220.957 368.091 221.025 368.227 221.145C368.363 221.265 368.454 221.429 368.482 221.608L368.643 223C368.655 223.083 368.648 223.167 368.624 223.247C368.6 223.327 368.559 223.401 368.503 223.463C368.447 223.526 368.379 223.575 368.302 223.609C368.225 223.642 368.142 223.658 368.058 223.655Z" fill="#263238"/>
<path d="M400.231 101.816C396.317 98.6991 389.832 107.03 398.395 111.66C409.127 117.469 407.836 126.849 421.714 124.106C415.773 119.94 419.546 116.763 417.034 110.752C414.23 104.004 406.575 106.859 400.231 101.816Z" fill="#F5F5F5"/>
<path d="M394.262 106.809C395.533 111.468 397.076 112.558 398.508 113.778C397.506 112.174 396.786 110.411 396.38 108.564L394.262 106.809Z" fill="#F5F5F5"/>
<path d="M388.533 128.554C388.533 128.554 391.559 128.322 399.739 129.563C398.418 131.883 396.33 133.597 392.134 132.962C391.599 132.933 391.076 132.792 390.599 132.549C390.122 132.307 389.7 131.967 389.361 131.552C389.022 131.138 388.774 130.657 388.631 130.141C388.489 129.624 388.455 129.084 388.533 128.554Z" fill="#263238"/>
<path d="M394.364 131.287C392.766 130.955 391.103 131.135 389.613 131.802C390.315 132.427 391.192 132.821 392.125 132.931C393.719 133.268 395.38 133.087 396.865 132.417C396.172 131.784 395.296 131.389 394.364 131.287Z" fill="#A02724"/>
<path d="M388.918 128.544C388.955 128.857 389.076 129.155 389.27 129.404C389.464 129.653 389.722 129.844 390.017 129.956C392.448 130.312 394.904 130.467 397.36 130.42C397.747 130.441 398.134 130.366 398.485 130.202C398.837 130.039 399.143 129.791 399.377 129.482C395.92 128.901 392.423 128.587 388.918 128.544Z" fill="white"/>
<path d="M388.363 134.555C388.444 136.744 390.643 138.59 390.068 139.961C392.787 140.167 395.505 139.556 397.874 138.206C398.051 138.075 398.185 137.896 398.261 137.69C398.337 137.484 398.351 137.26 398.302 137.046C398.253 136.832 398.142 136.637 397.984 136.485C397.826 136.333 397.626 136.23 397.41 136.189C395.682 136.018 394.024 135.415 392.589 134.434C392.407 134.281 392.177 134.196 391.939 134.196C391.701 134.196 391.47 134.281 391.288 134.434C389.553 135.796 388.363 134.555 388.363 134.555Z" fill="#F5F5F5"/>
<path d="M425.892 225.522L374.695 189.847L375.26 189.03L426.951 223.978L425.892 225.522Z" fill="#263238"/>
<path d="M421.476 210.856L426.438 213.368C430.392 217.685 423.957 221.8 423.957 221.8L421.668 225.027C421.228 225.571 420.609 225.941 419.922 226.071C419.234 226.2 418.523 226.08 417.916 225.733L414.426 223.999C414.056 223.849 413.72 223.628 413.436 223.348C413.152 223.068 412.927 222.735 412.772 222.368C412.617 222 412.537 221.606 412.535 221.207C412.533 220.809 412.61 220.414 412.762 220.045L414.275 216.948C414.711 216.042 415.366 215.259 416.181 214.669L421.476 210.856Z" fill="#B55B52"/>
</svg>
