<svg width="72" height="36" viewBox="0 0 72 36" fill="none" xmlns="http://www.w3.org/2000/svg">
<path d="M1.29173 24.408H2.88773L5.51573 28.956H5.61173L8.23973 24.408H9.84773V33H8.23973V28.764L8.33573 27.324H8.23973L6.05573 31.176H5.08373L2.88773 27.324H2.79173L2.88773 28.764V33H1.29173V24.408ZM14.837 32.376H14.741C14.557 32.6 14.333 32.792 14.069 32.952C13.813 33.112 13.481 33.192 13.073 33.192C12.769 33.192 12.481 33.14 12.209 33.036C11.945 32.94 11.713 32.804 11.513 32.628C11.313 32.452 11.157 32.24 11.045 31.992C10.933 31.744 10.877 31.472 10.877 31.176C10.877 30.872 10.937 30.6 11.057 30.36C11.177 30.112 11.345 29.9 11.561 29.724C11.777 29.548 12.029 29.416 12.317 29.328C12.613 29.232 12.933 29.184 13.277 29.184C13.661 29.184 13.977 29.216 14.225 29.28C14.473 29.336 14.677 29.396 14.837 29.46V29.28C14.837 28.968 14.713 28.712 14.465 28.512C14.217 28.304 13.909 28.2 13.541 28.2C12.997 28.2 12.537 28.428 12.161 28.884L11.021 28.104C11.645 27.32 12.497 26.928 13.577 26.928C14.489 26.928 15.185 27.144 15.665 27.576C16.145 28 16.385 28.632 16.385 29.472V33H14.837V32.376ZM14.837 30.612C14.653 30.524 14.461 30.456 14.261 30.408C14.069 30.352 13.857 30.324 13.625 30.324C13.249 30.324 12.957 30.408 12.749 30.576C12.549 30.736 12.449 30.936 12.449 31.176C12.449 31.416 12.545 31.608 12.737 31.752C12.937 31.896 13.165 31.968 13.421 31.968C13.629 31.968 13.821 31.932 13.997 31.86C14.173 31.78 14.321 31.68 14.441 31.56C14.569 31.432 14.665 31.288 14.729 31.128C14.801 30.96 14.837 30.788 14.837 30.612ZM17.6349 27.12H19.1109V27.936H19.2069C19.2789 27.792 19.3749 27.66 19.4949 27.54C19.6149 27.42 19.7469 27.316 19.8909 27.228C20.0429 27.14 20.2029 27.072 20.3709 27.024C20.5469 26.976 20.7189 26.952 20.8869 26.952C21.0949 26.952 21.2709 26.972 21.4149 27.012C21.5669 27.052 21.6949 27.104 21.7989 27.168L21.3789 28.596C21.2829 28.548 21.1749 28.512 21.0549 28.488C20.9429 28.456 20.8029 28.44 20.6349 28.44C20.4189 28.44 20.2229 28.484 20.0469 28.572C19.8709 28.652 19.7189 28.768 19.5909 28.92C19.4709 29.072 19.3749 29.252 19.3029 29.46C19.2389 29.66 19.2069 29.88 19.2069 30.12V33H17.6349V27.12ZM22.5802 24.408H24.1522V29.088H24.2242L26.1922 27.12H28.1362V27.216L25.9522 29.34L28.3162 32.904V33H26.4562L24.8482 30.42L24.1522 31.104V33H22.5802V24.408ZM34.3357 31.584C34.0637 32.064 33.6957 32.452 33.2317 32.748C32.7757 33.044 32.2157 33.192 31.5517 33.192C31.1037 33.192 30.6877 33.116 30.3037 32.964C29.9277 32.804 29.5997 32.584 29.3197 32.304C29.0397 32.024 28.8197 31.696 28.6597 31.32C28.5077 30.936 28.4317 30.516 28.4317 30.06C28.4317 29.636 28.5077 29.236 28.6597 28.86C28.8117 28.476 29.0237 28.144 29.2957 27.864C29.5677 27.576 29.8877 27.348 30.2557 27.18C30.6317 27.012 31.0437 26.928 31.4917 26.928C31.9637 26.928 32.3837 27.008 32.7517 27.168C33.1197 27.32 33.4277 27.536 33.6757 27.816C33.9237 28.088 34.1117 28.412 34.2397 28.788C34.3677 29.164 34.4317 29.572 34.4317 30.012C34.4317 30.068 34.4317 30.116 34.4317 30.156C34.4237 30.204 34.4197 30.248 34.4197 30.288C34.4117 30.328 34.4077 30.372 34.4077 30.42H29.9797C30.0117 30.66 30.0757 30.868 30.1717 31.044C30.2757 31.212 30.3997 31.356 30.5437 31.476C30.6957 31.588 30.8597 31.672 31.0357 31.728C31.2117 31.776 31.3917 31.8 31.5757 31.8C31.9357 31.8 32.2317 31.72 32.4637 31.56C32.7037 31.392 32.8917 31.184 33.0277 30.936L34.3357 31.584ZM32.9077 29.304C32.8997 29.2 32.8637 29.084 32.7997 28.956C32.7437 28.828 32.6557 28.708 32.5357 28.596C32.4237 28.484 32.2797 28.392 32.1037 28.32C31.9357 28.248 31.7317 28.212 31.4917 28.212C31.1557 28.212 30.8597 28.308 30.6037 28.5C30.3477 28.692 30.1677 28.96 30.0637 29.304H32.9077ZM35.9079 28.464H34.8759V27.12H35.9079V25.32H37.4799V27.12H38.9199V28.464H37.4799V30.744C37.4799 30.88 37.4919 31.008 37.5159 31.128C37.5479 31.24 37.6039 31.336 37.6839 31.416C37.7959 31.544 37.9559 31.608 38.1639 31.608C38.2999 31.608 38.4079 31.596 38.4879 31.572C38.5679 31.54 38.6439 31.5 38.7159 31.452L39.1599 32.832C38.9759 32.92 38.7759 32.984 38.5599 33.024C38.3519 33.072 38.1199 33.096 37.8639 33.096C37.5679 33.096 37.2999 33.052 37.0599 32.964C36.8279 32.868 36.6319 32.74 36.4719 32.58C36.0959 32.22 35.9079 31.708 35.9079 31.044V28.464ZM42.905 33V24.408H45.929C46.337 24.408 46.717 24.476 47.069 24.612C47.429 24.74 47.741 24.924 48.005 25.164C48.269 25.404 48.477 25.692 48.629 26.028C48.781 26.356 48.857 26.72 48.857 27.12C48.857 27.528 48.781 27.9 48.629 28.236C48.477 28.564 48.269 28.848 48.005 29.088C47.741 29.328 47.429 29.516 47.069 29.652C46.717 29.78 46.337 29.844 45.929 29.844H44.525V33H42.905ZM45.953 28.308C46.377 28.308 46.697 28.188 46.913 27.948C47.129 27.708 47.237 27.432 47.237 27.12C47.237 26.968 47.209 26.82 47.153 26.676C47.105 26.532 47.025 26.408 46.913 26.304C46.809 26.192 46.677 26.104 46.517 26.04C46.357 25.976 46.169 25.944 45.953 25.944H44.525V28.308H45.953ZM49.8732 33V24.408H51.4452V33H49.8732ZM56.3565 32.376H56.2605C56.0765 32.6 55.8525 32.792 55.5885 32.952C55.3325 33.112 55.0005 33.192 54.5925 33.192C54.2885 33.192 54.0005 33.14 53.7285 33.036C53.4645 32.94 53.2325 32.804 53.0325 32.628C52.8325 32.452 52.6765 32.24 52.5645 31.992C52.4525 31.744 52.3965 31.472 52.3965 31.176C52.3965 30.872 52.4565 30.6 52.5765 30.36C52.6965 30.112 52.8645 29.9 53.0805 29.724C53.2965 29.548 53.5485 29.416 53.8365 29.328C54.1325 29.232 54.4525 29.184 54.7965 29.184C55.1805 29.184 55.4965 29.216 55.7445 29.28C55.9925 29.336 56.1965 29.396 56.3565 29.46V29.28C56.3565 28.968 56.2325 28.712 55.9845 28.512C55.7365 28.304 55.4285 28.2 55.0605 28.2C54.5165 28.2 54.0565 28.428 53.6805 28.884L52.5405 28.104C53.1645 27.32 54.0165 26.928 55.0965 26.928C56.0085 26.928 56.7045 27.144 57.1845 27.576C57.6645 28 57.9045 28.632 57.9045 29.472V33H56.3565V32.376ZM56.3565 30.612C56.1725 30.524 55.9805 30.456 55.7805 30.408C55.5885 30.352 55.3765 30.324 55.1445 30.324C54.7685 30.324 54.4765 30.408 54.2685 30.576C54.0685 30.736 53.9685 30.936 53.9685 31.176C53.9685 31.416 54.0645 31.608 54.2565 31.752C54.4565 31.896 54.6845 31.968 54.9405 31.968C55.1485 31.968 55.3405 31.932 55.5165 31.86C55.6925 31.78 55.8405 31.68 55.9605 31.56C56.0885 31.432 56.1845 31.288 56.2485 31.128C56.3205 30.96 56.3565 30.788 56.3565 30.612ZM64.6758 31.5C64.4198 31.996 64.0598 32.404 63.5958 32.724C63.1398 33.036 62.5678 33.192 61.8798 33.192C61.4238 33.192 61.0038 33.116 60.6198 32.964C60.2438 32.804 59.9158 32.584 59.6358 32.304C59.3638 32.024 59.1478 31.696 58.9878 31.32C58.8358 30.936 58.7598 30.516 58.7598 30.06C58.7598 29.604 58.8358 29.184 58.9878 28.8C59.1478 28.416 59.3638 28.088 59.6358 27.816C59.9158 27.536 60.2438 27.32 60.6198 27.168C61.0038 27.008 61.4238 26.928 61.8798 26.928C62.5598 26.928 63.1318 27.084 63.5958 27.396C64.0598 27.708 64.3998 28.112 64.6158 28.608L63.1758 29.208C63.0398 28.936 62.8638 28.732 62.6478 28.596C62.4398 28.452 62.1758 28.38 61.8558 28.38C61.6478 28.38 61.4518 28.42 61.2678 28.5C61.0838 28.58 60.9198 28.692 60.7758 28.836C60.6398 28.98 60.5318 29.156 60.4518 29.364C60.3718 29.572 60.3318 29.804 60.3318 30.06C60.3318 30.316 60.3718 30.548 60.4518 30.756C60.5318 30.964 60.6398 31.14 60.7758 31.284C60.9198 31.428 61.0838 31.54 61.2678 31.62C61.4518 31.7 61.6478 31.74 61.8558 31.74C62.1838 31.74 62.4598 31.668 62.6838 31.524C62.9158 31.372 63.0998 31.156 63.2358 30.876L64.6758 31.5ZM71.1443 31.584C70.8723 32.064 70.5043 32.452 70.0403 32.748C69.5843 33.044 69.0243 33.192 68.3603 33.192C67.9123 33.192 67.4963 33.116 67.1123 32.964C66.7363 32.804 66.4083 32.584 66.1283 32.304C65.8483 32.024 65.6283 31.696 65.4683 31.32C65.3163 30.936 65.2403 30.516 65.2403 30.06C65.2403 29.636 65.3163 29.236 65.4683 28.86C65.6203 28.476 65.8323 28.144 66.1043 27.864C66.3763 27.576 66.6963 27.348 67.0643 27.18C67.4403 27.012 67.8523 26.928 68.3003 26.928C68.7723 26.928 69.1923 27.008 69.5603 27.168C69.9283 27.32 70.2363 27.536 70.4843 27.816C70.7323 28.088 70.9203 28.412 71.0483 28.788C71.1763 29.164 71.2403 29.572 71.2403 30.012C71.2403 30.068 71.2403 30.116 71.2403 30.156C71.2323 30.204 71.2283 30.248 71.2283 30.288C71.2203 30.328 71.2163 30.372 71.2163 30.42H66.7883C66.8203 30.66 66.8843 30.868 66.9803 31.044C67.0843 31.212 67.2083 31.356 67.3523 31.476C67.5043 31.588 67.6683 31.672 67.8443 31.728C68.0203 31.776 68.2003 31.8 68.3843 31.8C68.7443 31.8 69.0403 31.72 69.2723 31.56C69.5123 31.392 69.7003 31.184 69.8363 30.936L71.1443 31.584ZM69.7163 29.304C69.7083 29.2 69.6723 29.084 69.6083 28.956C69.5523 28.828 69.4643 28.708 69.3443 28.596C69.2323 28.484 69.0883 28.392 68.9123 28.32C68.7443 28.248 68.5403 28.212 68.3003 28.212C67.9643 28.212 67.6683 28.308 67.4123 28.5C67.1563 28.692 66.9763 28.96 66.8723 29.304H69.7163Z" fill="white"/>
<path d="M26 1C26 0.447715 26.4477 0 27 0H33.75C34.3023 0 34.75 0.447715 34.75 1V10.25C34.75 10.8023 34.3023 11.25 33.75 11.25H27C26.4477 11.25 26 10.8023 26 10.25V1Z" fill="white"/>
<path d="M37.25 1C37.25 0.447715 37.6977 0 38.25 0H45C45.5523 0 46 0.447715 46 1V5.25C46 5.80228 45.5523 6.25 45 6.25H38.25C37.6977 6.25 37.25 5.80228 37.25 5.25V1Z" fill="white"/>
<path d="M26 14.75C26 14.1977 26.4477 13.75 27 13.75H33.75C34.3023 13.75 34.75 14.1977 34.75 14.75V19C34.75 19.5523 34.3023 20 33.75 20H27C26.4477 20 26 19.5523 26 19V14.75Z" fill="white"/>
<path d="M37.25 9.75C37.25 9.19772 37.6977 8.75 38.25 8.75H45C45.5523 8.75 46 9.19772 46 9.75V19C46 19.5523 45.5523 20 45 20H38.25C37.6977 20 37.25 19.5523 37.25 19V9.75Z" fill="white"/>
</svg>
