<svg width="17" height="20" viewBox="0 0 17 20" fill="none" xmlns="http://www.w3.org/2000/svg">
<path d="M14.6875 2.5H11.25V1.875C11.25 0.839453 10.4105 0 9.375 0H6.875C5.83945 0 5 0.839453 5 1.875V2.5H1.5625C0.69957 2.5 0 3.19957 0 4.0625V5.3125C0 5.6577 0.279805 5.9375 0.625 5.9375H15.625C15.9702 5.9375 16.25 5.6577 16.25 5.3125V4.0625C16.25 3.19957 15.5504 2.5 14.6875 2.5ZM6.25 1.875C6.25 1.53047 6.53047 1.25 6.875 1.25H9.375C9.71953 1.25 10 1.53047 10 1.875V2.5H6.25V1.875Z" fill="#EB5757"/>
<path d="M1.23046 7.1875C1.11894 7.1875 1.03007 7.2807 1.03538 7.39211L1.55101 18.2141C1.59866 19.2156 2.42132 20 3.42366 20H12.9151C13.9174 20 14.7401 19.2156 14.7877 18.2141L15.3034 7.39211C15.3087 7.2807 15.2198 7.1875 15.1083 7.1875H1.23046Z" fill="#EB5757"/>
<path d="M11.5671 15.4699C11.8704 15.7734 11.8704 16.2636 11.5671 16.5671C11.4158 16.7184 11.2172 16.7944 11.0184 16.7944C10.8198 16.7944 10.6212 16.7184 10.4699 16.5671L8.13849 14.2355L5.80707 16.5671C5.65577 16.7184 5.45716 16.7944 5.25856 16.7944C5.05981 16.7944 4.8612 16.7184 4.7099 16.5671C4.40659 16.2636 4.40659 15.7734 4.7099 15.4699L7.04147 13.1385L4.7099 10.8071C4.40659 10.5036 4.40659 10.0134 4.7099 9.7099C5.01335 9.40659 5.50362 9.40659 5.80707 9.7099L8.13849 12.0415L10.4699 9.7099C10.7734 9.40659 11.2636 9.40659 11.5671 9.7099C11.8704 10.0134 11.8704 10.5036 11.5671 10.8071L9.23551 13.1385L11.5671 15.4699Z" fill="#FAFAFA"/>
</svg>
