<svg width="55" height="40" viewBox="0 0 55 40" fill="none" xmlns="http://www.w3.org/2000/svg">
<rect width="54.4585" height="39.3398" rx="7.55961" fill="#FF8019"/>
<path d="M34.3689 18.4805C34.0533 18.4805 33.7506 18.6058 33.5274 18.829C33.3042 19.0522 33.1788 19.3549 33.1788 19.6705V25.6207H21.2785V19.6705C21.2785 19.3549 21.1531 19.0522 20.93 18.829C20.7068 18.6058 20.4041 18.4805 20.0885 18.4805C19.7729 18.4805 19.4702 18.6058 19.247 18.829C19.0238 19.0522 18.8984 19.3549 18.8984 19.6705V26.8107C18.8984 27.1263 19.0238 27.429 19.247 27.6522C19.4702 27.8754 19.7729 28.0007 20.0885 28.0007H34.3689C34.6845 28.0007 34.9872 27.8754 35.2104 27.6522C35.4335 27.429 35.5589 27.1263 35.5589 26.8107V19.6705C35.5589 19.3549 35.4335 19.0522 35.2104 18.829C34.9872 18.6058 34.6845 18.4805 34.3689 18.4805Z" fill="white"/>
<path d="M26.383 22.8951C26.4986 23.0002 26.6315 23.0847 26.7757 23.145C26.9181 23.2079 27.0722 23.2405 27.2279 23.2405C27.3836 23.2405 27.5377 23.2079 27.6801 23.145C27.8243 23.0847 27.9571 23.0002 28.0728 22.8951L31.6429 19.325C31.867 19.1009 31.9929 18.797 31.9929 18.48C31.9929 18.1631 31.867 17.8592 31.6429 17.6351C31.4188 17.411 31.1149 17.2851 30.798 17.2851C30.4811 17.2851 30.1772 17.411 29.9531 17.6351L28.4179 19.1822V12.5299C28.4179 12.2143 28.2925 11.9116 28.0694 11.6884C27.8462 11.4652 27.5435 11.3398 27.2279 11.3398C26.9123 11.3398 26.6096 11.4652 26.3864 11.6884C26.1632 11.9116 26.0379 12.2143 26.0379 12.5299V19.1822L24.5027 17.6351C24.2786 17.411 23.9747 17.2851 23.6578 17.2851C23.3409 17.2851 23.037 17.411 22.8129 17.6351C22.5888 17.8592 22.4629 18.1631 22.4629 18.48C22.4629 18.797 22.5888 19.1009 22.8129 19.325L26.383 22.8951Z" fill="white"/>
</svg>
