<svg width="19" height="20" viewBox="0 0 19 20" fill="none" xmlns="http://www.w3.org/2000/svg">
<path d="M13.6093 10.3701C11.1259 10.3701 9.10547 12.3905 9.10547 14.8739C9.10547 17.3574 11.1259 19.3778 13.6093 19.3778C16.1136 19.3778 18.151 17.3574 18.151 14.8739C18.151 12.3905 16.1136 10.3701 13.6093 10.3701ZM14.9916 14.3291L13.4777 16.1457C13.3692 16.276 13.209 16.35 13.0416 16.35C13.0199 16.35 12.998 16.3487 12.9761 16.3462C12.7858 16.3241 12.6195 16.2075 12.5338 16.0362L11.9282 14.825C11.788 14.5446 11.9017 14.2036 12.1821 14.0634C12.4625 13.9231 12.8036 14.0368 12.9438 14.3173L13.1611 14.752L14.1193 13.6022C14.3201 13.3613 14.6781 13.3288 14.9189 13.5295C15.1598 13.7302 15.1923 14.0882 14.9916 14.3291Z" fill="#F4D067"/>
<path d="M13.3659 3.23417L11.0625 0.852095C11.0614 0.850959 11.0602 0.849786 11.0591 0.848651C10.5288 0.309326 9.79081 0 9.03451 0H1.72657C0.787461 0 0.0234375 0.764024 0.0234375 1.70313V16.4257C0.0234375 17.3648 0.787461 18.1289 1.72657 18.1289H9.00801C8.35541 17.2087 7.97137 16.0854 7.97137 14.874C7.97137 11.7645 10.5011 9.23475 13.6106 9.23475C13.8022 9.23475 13.9916 9.24436 14.1783 9.26287V5.22217C14.1783 4.47397 13.8898 3.76808 13.3659 3.23417ZM6.04116 12.6789H3.01338C2.69985 12.6789 2.44567 12.4247 2.44567 12.1111C2.44567 11.7976 2.69985 11.5434 3.01338 11.5434H6.04116C6.35469 11.5434 6.60887 11.7976 6.60887 12.1111C6.60887 12.4247 6.35469 12.6789 6.04116 12.6789ZM6.04116 9.65107H3.01338C2.69985 9.65107 2.44567 9.39688 2.44567 9.08336C2.44567 8.76983 2.69985 8.51565 3.01338 8.51565H6.04116C6.35469 8.51565 6.60887 8.76983 6.60887 9.08336C6.60887 9.39688 6.35469 9.65107 6.04116 9.65107ZM6.04116 6.62328H3.01338C2.69985 6.62328 2.44567 6.3691 2.44567 6.05557C2.44567 5.74204 2.69985 5.48786 3.01338 5.48786H6.04116C6.35469 5.48786 6.60887 5.74204 6.60887 6.05557C6.60887 6.3691 6.35469 6.62328 6.04116 6.62328ZM9.6745 9.65107H9.06895C8.75542 9.65107 8.50124 9.39688 8.50124 9.08336C8.50124 8.76983 8.75542 8.51565 9.06895 8.51565H9.6745C9.98803 8.51565 10.2422 8.76983 10.2422 9.08336C10.2422 9.39688 9.98803 9.65107 9.6745 9.65107ZM9.6745 6.62328H9.06895C8.75542 6.62328 8.50124 6.3691 8.50124 6.05557C8.50124 5.74204 8.75542 5.48786 9.06895 5.48786H9.6745C9.98803 5.48786 10.2422 5.74204 10.2422 6.05557C10.2422 6.3691 9.98803 6.62328 9.6745 6.62328Z" fill="#F4D067"/>
</svg>
