<svg width="495" height="443" viewBox="0 0 495 443" fill="none" xmlns="http://www.w3.org/2000/svg">
<path d="M478.206 432.402H0.015625" stroke="#66B0F0" stroke-width="2" stroke-miterlimit="10"/>
<path d="M41.7852 441.061H315.621" stroke="#66B0F0" stroke-width="2" stroke-miterlimit="10"/>
<path d="M453.565 324.966H377.088C373.468 324.966 370.527 327.906 370.527 331.524V432.403H460.109V331.524C460.125 327.906 457.185 324.966 453.565 324.966Z" fill="#D0F0E4"/>
<path d="M369.527 432.403V433.403H370.527H460.109H461.109V432.403L461.109 331.529C461.109 331.528 461.109 331.527 461.109 331.527C461.127 327.352 457.735 323.966 453.565 323.966H377.088C372.916 323.966 369.527 327.353 369.527 331.524V432.403Z" stroke="#FFCF2D" stroke-width="2" stroke-miterlimit="10"/>
<path d="M471.58 211.633V210.633H470.58H360.219H359.219V211.633V432.386V433.386H360.219H470.58H471.58V432.386V211.633Z" stroke="#FFCF2D" stroke-width="2" stroke-miterlimit="10"/>
<mask id="path-6-outside-1" maskUnits="userSpaceOnUse" x="92.9961" y="181.994" width="402" height="32" fill="black">
<rect fill="white" x="92.9961" y="181.994" width="402" height="32"/>
<path d="M473.473 183.994H94.9961V211.633H494.753"/>
</mask>
<path d="M94.9961 183.994V181.994H92.9961V183.994H94.9961ZM94.9961 211.633H92.9961V213.633H94.9961V211.633ZM473.473 181.994H94.9961V185.994H473.473V181.994ZM92.9961 183.994V211.633H96.9961V183.994H92.9961ZM94.9961 213.633H494.753V209.633H94.9961V213.633Z" fill="#FFCF2D" mask="url(#path-6-outside-1)"/>
<path d="M377.236 264.518H453.568C457.736 264.518 461.128 261.15 461.128 256.975V230.015C461.128 225.844 457.74 222.457 453.568 222.457H377.236C373.065 222.457 369.676 225.844 369.676 230.015V256.959C369.676 261.13 373.065 264.518 377.236 264.518Z" stroke="#FFCF2D" stroke-width="2" stroke-miterlimit="10"/>
<path d="M377.236 313.302H453.568C457.74 313.302 461.128 309.915 461.128 305.744V278.8C461.128 274.629 457.74 271.241 453.568 271.241H377.236C373.065 271.241 369.676 274.629 369.676 278.8V305.744C369.676 309.915 373.065 313.302 377.236 313.302Z" stroke="#FFCF2D" stroke-width="2" stroke-miterlimit="10"/>
<path d="M415.658 249.398C419.11 249.398 421.909 246.6 421.909 243.148C421.909 239.696 419.11 236.898 415.658 236.898C412.205 236.898 409.406 239.696 409.406 243.148C409.406 246.6 412.205 249.398 415.658 249.398Z" stroke="#66B0F0" stroke-width="2" stroke-miterlimit="10"/>
<path d="M415.658 298.327C419.11 298.327 421.909 295.529 421.909 292.077C421.909 288.625 419.11 285.827 415.658 285.827C412.205 285.827 409.406 288.625 409.406 292.077C409.406 295.529 412.205 298.327 415.658 298.327Z" stroke="#66B0F0" stroke-width="2" stroke-miterlimit="10"/>
<path d="M448.444 358.565L448.331 359.26L448.282 359.664L446.602 370.374L446.424 371.521L445.665 376.399L445.39 378.111L444.679 382.634L444.501 383.781L442.772 394.862V394.911L442.595 396.058L442.498 396.575L440.849 407.171L440.672 408.318L439.896 413.31V413.326L439.621 415.038L438.927 419.432L438.749 420.579L437.02 431.708L437.004 431.773L436.923 432.29L436.907 432.403H391.502L391.486 432.274L391.405 431.821L391.389 431.676L389.644 420.563L389.466 419.399L388.787 415.087L388.529 413.358L387.737 408.286L387.559 407.139L385.911 396.623L385.814 396.025L385.636 394.895V394.878L383.891 383.749L383.714 382.602L383.019 378.16L382.76 376.447L381.985 371.488L381.807 370.341L380.143 359.712L379.965 358.565H448.444Z" fill="white"/>
<path d="M437.343 432.904H391.066L390.872 431.708L379.367 358.064H449.026L437.343 432.904ZM391.922 431.902H436.471L447.846 359.082H380.531L391.922 431.902Z" fill="#66B0F0"/>
<path d="M449.073 358.565C449.073 358.792 449.04 359.034 448.96 359.26C448.41 360.956 445.889 362.523 441.931 363.815C441.64 363.912 441.349 363.993 441.058 364.09C438.505 364.849 435.451 365.511 432.009 366.012C431.686 366.061 431.363 366.109 431.024 366.158C427.986 366.578 424.674 366.884 421.167 367.062C420.812 367.078 420.472 367.094 420.117 367.111C418.194 367.191 416.207 367.24 414.187 367.24C412.636 367.24 411.1 367.208 409.598 367.159C409.226 367.143 408.854 367.127 408.483 367.111C404.443 366.949 400.63 366.61 397.172 366.125C396.752 366.061 396.348 366.012 395.944 365.948C390.078 365.059 385.36 363.751 382.468 362.184C380.787 361.279 379.737 360.294 379.398 359.26L379.301 358.582C379.301 353.8 394.91 349.939 414.171 349.939C433.318 349.939 448.863 353.768 449.04 358.517C449.073 358.517 449.073 358.533 449.073 358.565Z" fill="#66B0F0"/>
<path d="M437.033 431.725V432.371L436.92 432.291L436.904 432.387H436.484L431.33 425.732L430.796 425.038L425.609 418.35L425.076 417.655L419.889 410.968L419.356 410.273L414.169 403.586L413.636 402.891L408.449 396.204L407.916 395.509L402.745 388.821L402.212 388.127L397.025 381.439L396.492 380.745L391.321 374.057L390.788 373.363L385.618 366.675L385.084 365.98L380.124 359.584L380.043 359.115C380.366 360.133 381.4 361.102 383.048 361.991L385.601 365.286L386.135 365.98L391.321 372.668L391.855 373.363L397.042 380.05L397.575 380.745L402.762 387.432L403.295 388.127L408.482 394.814L409.015 395.509L414.202 402.197L414.735 402.891L419.922 409.579L420.455 410.273L425.642 416.961L426.175 417.655L431.362 424.343L431.895 425.038L437.05 431.693L437.033 431.725Z" fill="#66B0F0"/>
<path d="M438.923 419.432L438.745 420.579L437.033 418.366L436.499 417.672L431.313 410.984L430.779 410.29L425.592 403.602L425.059 402.907L419.872 396.22L419.339 395.525L414.152 388.838L413.619 388.143L408.481 381.52L407.948 380.826L402.761 374.138L402.228 373.443L397.041 366.756L396.507 366.061L396.281 365.771C396.669 365.835 397.073 365.884 397.477 365.948L397.558 366.061L402.745 372.749L403.278 373.443L408.465 380.131L408.998 380.826L414.185 387.513L414.718 388.208L419.905 394.895L420.438 395.59L425.625 402.277L426.158 402.972L431.345 409.66L431.878 410.354L437.065 417.042L437.598 417.736L438.923 419.432Z" fill="#66B0F0"/>
<path d="M440.847 407.172L440.669 408.319L437.033 403.634L436.5 402.939L431.313 396.252L430.78 395.557L425.593 388.87L425.06 388.175L419.873 381.488L419.34 380.793L414.153 374.105L413.62 373.411L408.562 366.885C408.934 366.901 409.29 366.917 409.661 366.933L414.153 372.716L414.686 373.411L419.873 380.098L420.407 380.793L425.593 387.48L426.127 388.175L431.313 394.863L431.847 395.557L437.033 402.245L437.567 402.939L440.847 407.172Z" fill="#66B0F0"/>
<path d="M442.771 394.911L442.593 396.058L442.222 395.573L437.035 388.886L436.502 388.191L431.315 381.504L430.782 380.809L425.595 374.122L425.061 373.427L420.004 366.901C420.343 366.885 420.699 366.869 421.038 366.853L425.595 372.732L426.128 373.427L431.315 380.115L431.848 380.809L437.035 387.497L437.568 388.191L442.755 394.879L442.771 394.911Z" fill="#66B0F0"/>
<path d="M403.086 432.145L402.763 432.387L402.747 432.403H402.213L397.043 425.748L396.51 425.054L391.339 418.366L390.806 417.688L388.786 415.087L388.527 413.358L391.339 416.993L391.872 417.688L397.043 424.359L397.576 425.054L402.763 431.741L403.086 432.145Z" fill="#66B0F0"/>
<path d="M391.645 432.145L391.483 432.275L391.402 431.822L391.645 432.145Z" fill="#66B0F0"/>
<path d="M414.508 432.144L414.185 432.387L414.169 432.403H413.635L408.481 425.748L407.948 425.053L402.761 418.366L402.227 417.687L397.041 411L396.507 410.321V410.305L391.337 403.634L390.804 402.939L385.907 396.623L385.811 396.025L385.633 394.895L386.15 395.573L391.337 402.261L391.87 402.939L397.041 409.627L397.574 410.321L402.761 416.993L403.294 417.687L408.481 424.359L409.014 425.053L414.185 431.741L414.508 432.144Z" fill="#66B0F0"/>
<path d="M425.933 432.144L425.61 432.387L425.594 432.403H425.06L419.906 425.748L419.373 425.053L414.186 418.366L413.653 417.687L408.482 411L407.949 410.321L402.762 403.634L402.229 402.939L397.042 396.268L396.509 395.573L391.338 388.885L390.805 388.207L385.618 381.519L385.085 380.841L383.016 378.16L382.758 376.447L385.618 380.146L386.151 380.841L391.338 387.512L391.871 388.207L397.042 394.878L397.575 395.573L402.762 402.261L403.295 402.939L408.482 409.627L409.015 410.321L414.186 416.993L414.719 417.687L419.906 424.358L420.439 425.053L425.61 431.741L425.933 432.144Z" fill="#66B0F0"/>
<path d="M444.676 382.635L444.498 383.781L442.753 381.52L442.22 380.825L437.033 374.138L436.5 373.443L431.313 366.756L430.779 366.061L430.715 365.98C431.038 365.932 431.361 365.883 431.668 365.835L431.846 366.061L437.033 372.749L437.566 373.443L442.753 380.131L443.286 380.825L444.676 382.635Z" fill="#66B0F0"/>
<path d="M446.597 370.374L446.419 371.52L442.751 366.787L442.218 366.093L440.586 363.977C440.877 363.896 441.168 363.799 441.442 363.702L442.751 365.398L443.284 366.093L446.597 370.374Z" fill="#66B0F0"/>
<path d="M448.91 358.824L448.457 359.406L448.328 359.244C448.409 359.018 448.441 358.792 448.441 358.566C448.441 358.533 448.441 358.517 448.441 358.485L448.457 358.469L448.91 358.824Z" fill="#66B0F0"/>
<path d="M445.664 376.398L445.39 378.111L443.289 380.841L442.756 381.519L437.569 388.207L437.036 388.885L431.865 395.573L431.332 396.267L426.145 402.939L425.612 403.633L420.441 410.321L419.908 410.999L414.721 417.687L414.188 418.365L409.017 425.053L408.484 425.747L403.313 432.403H402.78L402.764 432.386L402.457 432.144L402.764 431.74L407.951 425.053L408.484 424.358L413.655 417.687L414.188 416.992L419.375 410.321L419.908 409.626L425.079 402.939L425.612 402.26L430.799 395.573L431.332 394.878L436.503 388.207L437.036 387.512L442.223 380.841L442.756 380.146L445.664 376.398Z" fill="#66B0F0"/>
<path d="M448.282 359.663L443.289 366.109L442.756 366.803L437.569 373.491L437.036 374.185L431.849 380.873L431.316 381.567L426.129 388.255L425.596 388.95L420.441 395.573L419.908 396.267L414.721 402.955L414.188 403.649L409.001 410.337L408.468 411.031L403.281 417.719L402.748 418.414L397.561 425.101L397.028 425.796L391.873 432.451H391.485L391.469 432.322L391.405 431.869L391.34 431.789L391.388 431.724L396.527 425.101L397.06 424.407L402.247 417.719L402.78 417.024L407.967 410.337L408.5 409.642L413.687 402.955L414.22 402.26L419.407 395.573L419.94 394.878L425.127 388.19L425.66 387.496L430.847 380.808L431.38 380.114L436.567 373.426L437.1 372.732L442.271 366.044L442.804 365.349L445.341 362.07C447.005 361.182 448.056 360.213 448.395 359.179L448.282 359.663Z" fill="#66B0F0"/>
<path d="M432.073 365.817L431.846 366.108L431.313 366.803L426.126 373.49L425.593 374.185L420.406 380.872L419.873 381.567L414.686 388.255L414.153 388.949L408.966 395.637L408.433 396.331L403.246 403.019L402.713 403.713L397.526 410.401L396.993 411.096L391.806 417.783L391.273 418.478L389.576 420.658L389.398 419.512L390.74 417.783L391.273 417.089L396.443 410.401L396.977 409.706L402.164 403.019L402.697 402.324L407.867 395.637L408.401 394.942L413.588 388.255L414.121 387.56L419.308 380.872L419.841 380.178L425.028 373.49L425.561 372.796L430.748 366.108L430.828 365.995C431.103 365.963 431.378 365.914 431.636 365.882C431.814 365.85 431.943 365.834 432.073 365.817Z" fill="#66B0F0"/>
<path d="M419.779 366.948L414.722 373.458L414.189 374.153L409.002 380.84L408.469 381.535L403.282 388.222L402.748 388.917L397.562 395.605L397.028 396.299L391.842 402.987L391.308 403.681L387.705 408.333L387.527 407.187L390.775 402.987L391.308 402.292L396.495 395.605L397.028 394.91L402.215 388.222L402.748 387.528L407.935 380.84L408.469 380.146L413.655 373.458L414.189 372.764L418.681 366.981C419.036 366.981 419.408 366.964 419.779 366.948Z" fill="#66B0F0"/>
<path d="M439.896 413.325L439.621 415.037L437.569 417.687L437.036 418.365L431.865 425.053L431.332 425.747L426.161 432.403H425.628L425.612 432.386L425.305 432.144L425.612 431.74L430.799 425.053L431.332 424.358L436.502 417.687L437.036 416.992L439.896 413.325Z" fill="#66B0F0"/>
<path d="M442.495 396.574L437.567 402.938L437.034 403.633L431.863 410.32L431.33 410.999L426.143 417.686L425.61 418.365L420.439 425.052L419.906 425.747L414.735 432.402H414.202L414.186 432.386L413.879 432.144L414.186 431.74L419.373 425.052L419.906 424.358L425.077 417.686L425.61 416.992L430.797 410.32L431.33 409.626L436.501 402.938L437.034 402.26L442.221 395.572L442.754 394.877L442.77 394.861V394.91L442.592 396.057L442.495 396.574Z" fill="#66B0F0"/>
<path d="M408.353 366.933L403.295 373.459L402.762 374.153L397.575 380.841L397.042 381.535L391.855 388.223L391.322 388.918L386.135 395.605L385.795 396.057L385.618 394.943L385.602 394.927L385.618 394.911L390.788 388.239L391.322 387.545L396.492 380.857L397.026 380.162L402.212 373.475L402.746 372.78L407.302 366.9C407.674 366.9 408.013 366.917 408.353 366.933Z" fill="#66B0F0"/>
<path d="M397.655 366.012L397.591 366.109L397.058 366.804L391.871 373.491L391.338 374.186L386.151 380.873L385.618 381.568L383.889 383.797L383.711 382.65L385.084 380.873L385.618 380.179L390.788 373.491L391.321 372.797L396.508 366.109L396.686 365.883C396.944 365.915 397.219 365.964 397.494 365.996L397.655 366.012Z" fill="#66B0F0"/>
<path d="M387.8 363.977L386.152 366.093L385.619 366.787L381.967 371.488L381.789 370.341L385.085 366.093L385.619 365.398L386.944 363.702C387.218 363.799 387.509 363.896 387.8 363.977Z" fill="#66B0F0"/>
<path d="M451.77 350.083H453.064L452.737 348.831C451.948 345.805 449.203 343.544 445.904 343.544H436.855H435.855V344.544V349.083V350.083H436.855H451.77Z" fill="white" stroke="#FFCF2D" stroke-width="2" stroke-miterlimit="10"/>
<path d="M446.014 345.544L446.003 343.544H421.022C416.293 343.544 412.148 346.685 410.896 351.241C410.896 351.241 410.896 351.241 410.896 351.241L407.083 365.035L406.733 366.301H408.047C408.087 366.301 408.132 366.303 408.21 366.308L408.218 366.308C408.28 366.312 408.367 366.316 408.459 366.317L409.555 366.365L409.555 366.365L409.566 366.365C411.076 366.414 412.622 366.447 414.187 366.447C416.223 366.447 418.224 366.398 420.159 366.316L420.163 366.316C420.341 366.308 420.515 366.3 420.689 366.292L420.693 366.292C420.865 366.284 421.037 366.276 421.213 366.268L421.218 366.268C424.75 366.089 428.092 365.779 431.161 365.355L431.165 365.354C431.505 365.306 431.828 365.257 432.148 365.209L432.148 365.209C432.665 365.142 433.177 365.06 433.661 364.979L434.291 364.874L434.46 364.258L437.902 351.773C438.913 348.118 442.223 345.587 446.014 345.544Z" fill="white" stroke="#FFCF2D" stroke-width="2" stroke-miterlimit="10"/>
<path d="M435.793 75.3779L473.943 183.994H334.238L371.37 75.3779H435.793Z" fill="#FFCF2D"/>
<mask id="path-38-outside-2" maskUnits="userSpaceOnUse" x="401.879" y="52.249" width="26" height="117" fill="black">
<rect fill="white" x="401.879" y="52.249" width="26" height="117"/>
<path d="M403.879 62.4388C403.879 57.9159 407.547 54.249 412.071 54.249H416.806C421.33 54.249 424.998 57.9159 424.998 62.4388V168.422"/>
</mask>
<path d="M405.879 62.4388C405.879 59.021 408.651 56.249 412.071 56.249V52.249C406.443 52.249 401.879 56.8107 401.879 62.4388H405.879ZM412.071 56.249H416.806V52.249H412.071V56.249ZM416.806 56.249C420.226 56.249 422.998 59.021 422.998 62.4388H426.998C426.998 56.8107 422.434 52.249 416.806 52.249V56.249ZM422.998 62.4388V168.422H426.998V62.4388H422.998Z" fill="#66B0F0" mask="url(#path-38-outside-2)"/>
<path d="M437.004 184.816H436.004H401.457H400.457V183.816V180.537C400.457 177.512 401.49 174.713 403.221 172.492L437.004 184.816ZM437.004 184.816V183.816M437.004 184.816V183.816M437.004 183.816V180.537M437.004 183.816V180.537M437.004 180.537C437.004 173.48 431.437 167.734 424.437 167.44C424.235 167.422 424.029 167.422 423.886 167.422L423.869 167.422H413.576C409.376 167.422 405.616 169.417 403.221 172.492L437.004 180.537Z" fill="white" stroke="#FE5244" stroke-width="2" stroke-miterlimit="10"/>
<path d="M443.677 75.8301H363.742V73.3263C363.742 67.3334 368.606 62.4873 374.584 62.4873H432.835C438.83 62.4873 443.677 67.3495 443.677 73.3263V75.8301Z" fill="#FE5244"/>
<path d="M443.677 73.8271H363.742" stroke="white" stroke-width="2" stroke-miterlimit="10" stroke-linecap="round"/>
<path d="M435.325 75.8301C435.325 78.6893 433.547 81.0154 431.334 81.0154H375.393C373.196 81.0154 371.402 78.6893 371.402 75.8301H435.325Z" fill="white"/>
<path d="M403.219 172.492L402.944 172.844L403.024 173.284C403.931 178.308 408.773 181.989 414.43 181.989C420.702 181.989 425.997 177.432 425.997 171.588C425.997 170.361 425.763 169.161 425.287 168.046L425.055 167.502L424.467 167.443C424.255 167.422 424.034 167.422 423.883 167.422L423.866 167.422H413.573C409.373 167.422 405.613 169.417 403.219 172.492Z" fill="white" stroke="#FE5244" stroke-width="2" stroke-miterlimit="10"/>
<path d="M414.722 166.209V171.281C414.722 172.315 413.768 173.155 412.605 173.155C411.442 173.155 410.488 172.315 410.488 171.281V166.209H410.521C410.715 167.097 411.571 167.776 412.589 167.776C413.607 167.776 414.463 167.097 414.657 166.209H414.722Z" fill="#FE5244"/>
<path d="M415.223 166.547L415.226 166.529L415.229 166.511C415.23 166.506 415.23 166.501 415.231 166.495C415.246 166.391 415.271 166.217 415.271 166.031C415.271 164.562 414.1 163.286 412.591 163.286C411.065 163.286 409.91 164.546 409.91 166.031C409.91 166.217 409.935 166.391 409.95 166.495C409.951 166.501 409.952 166.506 409.953 166.511L409.956 166.539L409.962 166.566C410.209 167.8 411.265 168.775 412.591 168.775C413.924 168.775 414.996 167.806 415.223 166.547Z" fill="white" stroke="#FE5244" stroke-width="2" stroke-miterlimit="10"/>
<path d="M359.233 110.366H353.707V183.994H359.233V110.366Z" fill="#444444"/>
<path d="M341.927 184.994H351.396C352.95 184.994 354.206 183.739 354.206 182.185V127.457C354.206 125.903 352.95 124.647 351.396 124.647H341.927C340.373 124.647 339.117 125.903 339.117 127.457V182.185C339.117 183.739 340.373 184.994 341.927 184.994Z" fill="white" stroke="#FFCF2D" stroke-width="2" stroke-miterlimit="10"/>
<path d="M358.622 130.972L358.622 130.974L368.381 181.659C368.381 181.66 368.381 181.66 368.381 181.661C368.616 182.907 369.707 183.815 370.979 183.815H381.854C383.516 183.815 384.763 182.307 384.452 180.673L384.452 180.671L374.693 129.986C374.693 129.986 374.693 129.985 374.693 129.984C374.458 128.738 373.367 127.83 372.094 127.83H361.22C359.558 127.83 358.311 129.338 358.622 130.972Z" stroke="#66B0F0" stroke-width="2" stroke-miterlimit="10"/>
<path d="M337.953 183.993H286.732C285.536 183.993 284.566 183.024 284.566 181.829V171.345C284.566 170.15 285.536 169.181 286.732 169.181H337.953C339.149 169.181 340.119 170.15 340.119 171.345V181.829C340.119 183.024 339.149 183.993 337.953 183.993Z" fill="#FE5244"/>
<path d="M147.138 4.30273V3.30273H146.138H109.087H108.087V4.30273V37.7082C108.087 43.713 103.22 48.5648 97.2266 48.5648V49.5648V50.5648H134.278C141.374 50.5648 147.138 44.8029 147.138 37.7082V4.30273Z" fill="white" stroke="#FFCF2D" stroke-width="2" stroke-miterlimit="10"/>
<path d="M129.024 1.07227H126.035V8.19595H129.024V1.07227Z" fill="#FE5244"/>
<path d="M135.362 16.9996C134.942 16.9996 134.522 16.838 134.183 16.5311L132.938 15.4327C132.551 15.0935 132.033 15.0935 131.646 15.4327L130.466 16.4827C129.771 17.0965 128.802 17.0965 128.091 16.4827L127.008 15.5296C126.62 15.1904 126.103 15.1904 125.716 15.5296L124.714 16.418C124.019 17.0319 123.049 17.0319 122.338 16.418L121.514 15.6911C121.127 15.3519 120.61 15.3519 120.222 15.6911L119.333 16.4827C118.638 17.0965 117.669 17.0965 116.958 16.4827L116.134 15.7558C115.746 15.4165 115.229 15.4165 114.841 15.7558C114.679 15.9011 114.421 15.885 114.275 15.7235C114.13 15.5619 114.146 15.3035 114.308 15.1581C115.003 14.5442 115.972 14.5442 116.683 15.1581L117.507 15.885C117.895 16.2242 118.412 16.2242 118.8 15.885L119.688 15.0935C120.383 14.4796 121.353 14.4796 122.064 15.0935L122.888 15.8204C123.276 16.1596 123.793 16.1596 124.181 15.8204L125.182 14.9319C125.877 14.3181 126.847 14.3181 127.558 14.9319L128.64 15.885C129.028 16.2242 129.545 16.2242 129.933 15.885L131.112 14.835C131.807 14.2212 132.777 14.2212 133.488 14.835L134.732 15.9334C135.12 16.2727 135.637 16.2727 136.025 15.9334L137.317 14.7865C138.012 14.1727 138.982 14.1727 139.692 14.7865C139.854 14.9319 139.87 15.1904 139.725 15.3519C139.579 15.5135 139.321 15.5296 139.159 15.3842C138.771 15.045 138.254 15.045 137.867 15.3842L136.574 16.5311C136.186 16.838 135.782 16.9996 135.362 16.9996Z" fill="#FFCF2D"/>
<path d="M135.362 23.6392C134.942 23.6392 134.522 23.4777 134.183 23.1707L132.938 22.0723C132.551 21.7331 132.033 21.7331 131.646 22.0723L130.466 23.1223C129.771 23.7361 128.802 23.7361 128.091 23.1223L127.008 22.1693C126.62 21.83 126.103 21.83 125.716 22.1693L124.714 23.0577C124.019 23.6715 123.049 23.6715 122.338 23.0577L121.514 22.3308C121.127 21.9916 120.61 21.9916 120.222 22.3308L119.333 23.1223C118.638 23.7361 117.669 23.7361 116.958 23.1223L116.134 22.3954C115.746 22.0562 115.229 22.0562 114.841 22.3954C114.679 22.5408 114.421 22.5246 114.275 22.3631C114.13 22.2015 114.146 21.9431 114.308 21.7977C115.003 21.1839 115.972 21.1839 116.683 21.7977L117.507 22.5246C117.895 22.8638 118.412 22.8638 118.8 22.5246L119.688 21.7331C120.383 21.1193 121.353 21.1193 122.064 21.7331L122.888 22.46C123.276 22.7992 123.793 22.7992 124.181 22.46L125.182 21.5716C125.877 20.9577 126.847 20.9577 127.558 21.5716L128.64 22.5246C129.028 22.8638 129.545 22.8638 129.933 22.5246L131.112 21.4746C131.807 20.8608 132.777 20.8608 133.488 21.4746L134.732 22.5731C135.12 22.9123 135.637 22.9123 136.025 22.5731L137.317 21.4262C138.012 20.8124 138.982 20.8124 139.692 21.4262C139.854 21.5716 139.87 21.83 139.725 21.9916C139.579 22.1531 139.321 22.1692 139.159 22.0239C138.771 21.6846 138.254 21.6846 137.867 22.0239L136.574 23.1707C136.186 23.4938 135.782 23.6392 135.362 23.6392Z" fill="#FFCF2D"/>
<path d="M135.362 30.2779C134.942 30.2779 134.522 30.1164 134.183 29.8094L132.938 28.711C132.551 28.3718 132.033 28.3718 131.646 28.711L130.466 29.761C129.771 30.3748 128.802 30.3748 128.091 29.761L127.008 28.8079C126.62 28.4687 126.103 28.4687 125.716 28.8079L124.714 29.6964C124.019 30.3102 123.049 30.3102 122.338 29.6964L121.514 28.9695C121.127 28.6302 120.61 28.6302 120.222 28.9695L119.333 29.761C118.638 30.3748 117.669 30.3748 116.958 29.761L116.134 29.0341C115.746 28.6949 115.229 28.6949 114.841 29.0341C114.679 29.1795 114.421 29.1633 114.275 29.0018C114.13 28.8402 114.146 28.5818 114.308 28.4364C115.003 27.8226 115.972 27.8226 116.683 28.4364L117.507 29.1633C117.895 29.5025 118.412 29.5025 118.8 29.1633L119.688 28.3718C120.383 27.7579 121.353 27.7579 122.064 28.3718L122.888 29.0987C123.276 29.4379 123.793 29.4379 124.181 29.0987L125.182 28.2102C125.877 27.5964 126.847 27.5964 127.558 28.2102L128.64 29.1633C129.028 29.5025 129.545 29.5025 129.933 29.1633L131.112 28.1133C131.807 27.4995 132.777 27.4995 133.488 28.1133L134.732 29.2118C135.12 29.551 135.637 29.551 136.025 29.2118L137.317 28.0649C138.012 27.451 138.982 27.451 139.692 28.0649C139.854 28.2102 139.87 28.4687 139.725 28.6302C139.579 28.7918 139.321 28.8079 139.159 28.6625C138.771 28.3233 138.254 28.3233 137.867 28.6625L136.574 29.8094C136.186 30.1325 135.782 30.2779 135.362 30.2779Z" fill="#FFCF2D"/>
<path d="M135.362 36.9332C134.942 36.9332 134.522 36.7716 134.183 36.4647L132.938 35.3663C132.551 35.0271 132.033 35.0271 131.646 35.3663L130.466 36.4163C129.771 37.0301 128.802 37.0301 128.091 36.4163L127.008 35.4632C126.62 35.124 126.103 35.124 125.716 35.4632L124.714 36.3516C124.019 36.9655 123.049 36.9655 122.338 36.3516L121.514 35.6247C121.127 35.2855 120.61 35.2855 120.222 35.6247L119.333 36.4163C118.638 37.0301 117.669 37.0301 116.958 36.4163L116.134 35.6893C115.746 35.3501 115.229 35.3501 114.841 35.6893C114.679 35.8347 114.421 35.8186 114.275 35.657C114.13 35.4955 114.146 35.2371 114.308 35.0917C115.003 34.4778 115.972 34.4778 116.683 35.0917L117.507 35.8186C117.895 36.1578 118.412 36.1578 118.8 35.8186L119.688 35.0271C120.383 34.4132 121.353 34.4132 122.064 35.0271L122.888 35.754C123.276 36.0932 123.793 36.0932 124.181 35.754L125.182 34.8655C125.877 34.2517 126.847 34.2517 127.558 34.8655L128.64 35.8186C129.028 36.1578 129.545 36.1578 129.933 35.8186L131.112 34.7686C131.807 34.1548 132.777 34.1548 133.488 34.7686L134.732 35.867C135.12 36.2063 135.637 36.2063 136.025 35.867L137.317 34.7201C138.012 34.1063 138.982 34.1063 139.692 34.7201C139.854 34.8655 139.87 35.124 139.725 35.2855C139.579 35.447 139.321 35.4632 139.159 35.3178C138.771 34.9786 138.254 34.9786 137.867 35.3178L136.574 36.4647C136.186 36.7716 135.782 36.9332 135.362 36.9332Z" fill="#FFCF2D"/>
<path d="M184.289 4.30273H158.371V30.2129H184.289V4.30273Z" fill="#66B0F0"/>
<path d="M164.067 3.19449L162.188 0.870117L155.338 6.40409L157.217 8.72846L164.067 3.19449Z" fill="#FFCF2D"/>
<path d="M185.633 8.72574L187.512 6.40137L180.662 0.867384L178.783 3.19176L185.633 8.72574Z" fill="#FFCF2D"/>
<path d="M178.812 10.4414H163.09V11.4106H178.812V10.4414Z" fill="white"/>
<path d="M178.812 14.625H163.09V15.5942H178.812V14.625Z" fill="white"/>
<path d="M178.812 18.8252H163.09V19.7944H178.812V18.8252Z" fill="white"/>
<path d="M178.812 23.0088H163.09V23.978H178.812V23.0088Z" fill="white"/>
<path d="M283.357 184.994H284.907L284.269 183.582L275.575 164.359L275.575 164.359L270.857 153.94L270.591 153.353H269.946H236.353H235.707L235.441 153.941L233.729 157.736L233.729 157.737L222.03 183.582L221.391 184.994H222.941H283.357Z" fill="white" stroke="#66B0F0" stroke-width="2" stroke-miterlimit="10"/>
<path d="M274.665 164.772L234.641 158.149L236.353 154.353H269.947L274.665 164.772Z" fill="#66B0F0"/>
<path d="M182.14 155.353H324.349C330.105 155.353 334.786 150.672 334.786 144.903V52.1172C334.786 46.3644 330.121 41.6836 324.349 41.6836H182.14C176.386 41.6836 171.703 46.346 171.703 52.1172V144.919C171.703 150.672 176.367 155.353 182.14 155.353Z" fill="white" stroke="#66B0F0" stroke-width="2" stroke-miterlimit="10"/>
<path d="M281.739 147.795H224.732C221.953 147.795 219.707 145.549 219.707 142.771V135.873C219.707 133.095 221.953 130.85 224.732 130.85H281.739C284.518 130.85 286.764 133.095 286.764 135.873V142.771C286.764 145.549 284.502 147.795 281.739 147.795Z" fill="#66B0F0"/>
<path d="M266.778 143.191H262.932C261.979 143.191 261.203 142.416 261.203 141.462V138.458C261.203 137.505 261.979 136.729 262.932 136.729H266.778C267.731 136.729 268.507 137.505 268.507 138.458V141.462C268.507 142.416 267.731 143.191 266.778 143.191Z" fill="white"/>
<path d="M271.673 142.69L270.251 141.785C269.863 141.543 269.621 141.107 269.621 140.638V139.281C269.621 138.813 269.863 138.377 270.251 138.134L271.673 137.23C272.013 137.02 272.449 137.262 272.449 137.65V142.254C272.465 142.657 272.013 142.9 271.673 142.69Z" fill="white"/>
<path d="M252.202 141.673H251.846C250.44 141.673 249.293 140.526 249.293 139.121V137.618C249.293 137.489 249.406 137.376 249.535 137.376H254.496C254.625 137.376 254.738 137.489 254.738 137.618V139.121C254.755 140.526 253.607 141.673 252.202 141.673ZM249.778 137.861V139.121C249.778 140.251 250.699 141.188 251.846 141.188H252.202C253.333 141.188 254.27 140.267 254.27 139.121V137.861H249.778Z" fill="white"/>
<path d="M252.024 144.467C251.894 144.467 251.781 144.354 251.781 144.225V142.4C251.781 142.27 251.894 142.157 252.024 142.157C252.153 142.157 252.266 142.27 252.266 142.4V144.225C252.266 144.354 252.153 144.467 252.024 144.467Z" fill="white"/>
<path d="M253.303 144.467H250.766C250.637 144.467 250.523 144.354 250.523 144.225C250.523 144.095 250.637 143.982 250.766 143.982H253.303C253.432 143.982 253.545 144.095 253.545 144.225C253.545 144.354 253.432 144.467 253.303 144.467Z" fill="white"/>
<path d="M252.137 140.542H251.911C251.103 140.542 250.457 139.896 250.457 139.088V136.148C250.457 135.34 251.103 134.694 251.911 134.694H252.137C252.945 134.694 253.592 135.34 253.592 136.148V139.088C253.592 139.896 252.945 140.542 252.137 140.542Z" fill="white"/>
<path d="M237.27 138.717L237.254 138.733C236.947 139.105 237.044 139.67 237.448 140.01L238.934 141.205C239.338 141.528 239.92 141.496 240.227 141.124L240.243 141.108C240.55 140.736 241.132 140.72 241.52 141.06L242.861 142.271C243.281 142.659 243.281 143.305 242.861 143.596C241.455 144.581 239.629 144.226 238.126 143.014L235.864 141.189C234.361 139.961 233.634 138.249 234.297 136.666C234.507 136.181 235.137 136.052 235.589 136.391L237.06 137.457C237.464 137.78 237.561 138.346 237.27 138.717Z" fill="white"/>
<path d="M241.213 139.653C241.084 139.653 240.987 139.556 240.971 139.427C240.89 138.264 239.888 137.376 238.725 137.456C238.596 137.456 238.483 137.359 238.466 137.23C238.45 137.101 238.563 136.988 238.693 136.972C240.131 136.875 241.359 137.973 241.456 139.395C241.472 139.524 241.375 139.637 241.213 139.653C241.23 139.653 241.23 139.653 241.213 139.653Z" fill="white"/>
<path d="M242.733 139.411C242.603 139.411 242.506 139.314 242.49 139.185C242.426 138.216 241.989 137.311 241.246 136.665C240.503 136.019 239.566 135.696 238.596 135.761C238.467 135.761 238.354 135.664 238.337 135.534C238.321 135.405 238.434 135.292 238.564 135.276C239.662 135.211 240.729 135.567 241.569 136.294C242.409 137.021 242.894 138.038 242.975 139.137C242.991 139.298 242.878 139.411 242.733 139.411C242.749 139.411 242.749 139.411 242.733 139.411Z" fill="white"/>
<path d="M297.38 52.4224C298.86 52.4224 300.06 51.2229 300.06 49.7425C300.06 48.262 298.86 47.0625 297.38 47.0625C295.9 47.0625 294.699 48.262 294.699 49.7425C294.699 51.2229 295.9 52.4224 297.38 52.4224Z" stroke="#FFCF2D" stroke-width="2" stroke-miterlimit="10"/>
<path d="M304.247 52.4224C305.727 52.4224 306.927 51.2229 306.927 49.7425C306.927 48.262 305.727 47.0625 304.247 47.0625C302.767 47.0625 301.566 48.2621 301.566 49.7425C301.566 51.2228 302.767 52.4224 304.247 52.4224Z" stroke="#FFCF2D" stroke-width="2" stroke-miterlimit="10"/>
<path d="M311.13 52.4224C312.61 52.4224 313.81 51.2228 313.81 49.7425C313.81 48.2621 312.61 47.0625 311.13 47.0625C309.65 47.0625 308.449 48.2621 308.449 49.7425C308.449 51.2228 309.65 52.4224 311.13 52.4224Z" stroke="#FFCF2D" stroke-width="2" stroke-miterlimit="10"/>
<path d="M196.62 127.714H247.26C249.367 127.714 251.055 126.003 251.055 123.92V96.8141C251.055 94.7307 249.367 93.0195 247.26 93.0195H196.62C194.536 93.0195 192.824 94.707 192.824 96.8141V123.92C192.824 126.003 194.513 127.714 196.62 127.714Z" stroke="#66B0F0" stroke-width="2" stroke-miterlimit="10"/>
<path d="M311.131 126.714H260.491C258.94 126.714 257.695 125.454 257.695 123.92V96.8141C257.695 95.2634 258.956 94.0195 260.491 94.0195H311.131C312.682 94.0195 313.926 95.2795 313.926 96.8141V123.92C313.926 125.454 312.682 126.714 311.131 126.714Z" fill="#444444"/>
<path d="M301.565 126.634H268.473C271.817 122.514 276.923 119.865 282.644 119.865H287.394C293.114 119.881 298.22 122.514 301.565 126.634Z" fill="#FE5244"/>
<path d="M283.985 119.881C283.662 122.32 281.578 124.194 279.057 124.194C277.199 124.194 275.583 123.176 274.727 121.674C277.118 120.527 279.8 119.881 282.628 119.881H283.985Z" fill="white"/>
<path d="M293.761 121.012C293.034 122.87 291.24 124.178 289.124 124.178C286.603 124.178 284.518 122.304 284.195 119.865H287.411C289.641 119.881 291.774 120.269 293.761 121.012Z" fill="white"/>
<path d="M290.126 112.677V120.01C290.126 121.157 287.832 122.078 285.02 122.078C284.503 122.078 284.002 122.046 283.534 121.997C281.433 121.739 279.914 120.947 279.914 120.01V112.677H290.126Z" fill="#A0505A"/>
<path d="M289.447 114.18C289.447 117.362 286.668 121.223 283.534 121.982C281.433 121.723 279.914 120.932 279.914 119.995V112.661H289.286L289.447 114.18Z" fill="#73325A"/>
<path d="M292.742 111.74V111.918C292.742 113.162 291.724 114.179 290.48 114.179H288.315C287.329 116.295 285.18 117.749 282.691 117.749H282.271C279.492 117.749 277.246 115.504 277.246 112.725V107.54C280.462 107.75 284.55 104.939 284.55 104.939C285.891 110.125 289.72 110.06 291.498 109.721C292.225 110.092 292.742 110.868 292.742 111.74Z" fill="#A0505A"/>
<path d="M289.559 112.531C289.43 112.531 289.316 112.418 289.316 112.289C289.316 111.255 290.157 110.415 291.191 110.415C291.32 110.415 291.433 110.528 291.433 110.657C291.433 110.787 291.32 110.9 291.191 110.9C290.431 110.9 289.801 111.513 289.801 112.289C289.801 112.418 289.688 112.531 289.559 112.531Z" fill="#73325A"/>
<path d="M290.125 114.179H290.48C291.724 114.179 292.742 113.161 292.742 111.918V111.74C292.742 110.852 292.241 110.092 291.498 109.721C291.013 109.818 290.351 109.882 289.64 109.834C287.798 109.688 285.52 108.687 284.55 104.939C284.55 104.939 280.462 107.75 277.246 107.54C276.649 107.508 276.083 107.362 275.582 107.072C272.916 105.553 279.363 98.4457 286.764 99.5118C292.678 100.368 292.548 107.443 292.435 109.123C292.726 109.091 293.017 109.075 293.308 109.075C297.638 109.075 301.145 112.402 301.145 116.521C301.145 119.203 299.658 121.561 297.412 122.87C295.263 121.448 292.791 120.479 290.125 120.075V114.179Z" fill="#FFCF2D"/>
<path d="M280.511 112.709C280.479 112.709 280.447 112.709 280.43 112.693C280.301 112.644 280.237 112.499 280.285 112.386C280.285 112.37 280.77 111.061 279.962 109.656C279.267 108.444 277.732 108.654 277.667 108.67C277.538 108.687 277.409 108.606 277.393 108.46C277.377 108.331 277.457 108.202 277.603 108.186C277.684 108.17 279.526 107.911 280.398 109.413C281.319 111.013 280.77 112.499 280.754 112.547C280.689 112.644 280.608 112.709 280.511 112.709Z" fill="#73325A"/>
<path d="M286.022 109.64C285.974 109.64 285.925 109.624 285.877 109.592C284.471 108.509 282.597 108.639 282.58 108.639C282.451 108.655 282.338 108.542 282.322 108.412C282.306 108.283 282.419 108.17 282.548 108.154C282.629 108.154 284.616 108.009 286.168 109.204C286.281 109.285 286.297 109.43 286.216 109.543C286.151 109.608 286.087 109.64 286.022 109.64Z" fill="#73325A"/>
<path d="M279.672 113.259C279.672 113.259 280.06 115.811 282.693 113.323C282.693 113.323 280.851 113.566 279.672 113.259Z" fill="white"/>
<path d="M283.726 111.11C283.913 111.11 284.065 110.77 284.065 110.351C284.065 109.932 283.913 109.592 283.726 109.592C283.539 109.592 283.387 109.932 283.387 110.351C283.387 110.77 283.539 111.11 283.726 111.11Z" fill="#73325A"/>
<path d="M278.685 110.981C278.846 110.981 278.976 110.699 278.976 110.351C278.976 110.003 278.846 109.721 278.685 109.721C278.525 109.721 278.395 110.003 278.395 110.351C278.395 110.699 278.525 110.981 278.685 110.981Z" fill="#73325A"/>
<path d="M310.502 89.6741H259.862C258.311 89.6741 257.066 88.4142 257.066 86.8796V59.774C257.066 58.2233 258.327 56.9795 259.862 56.9795H310.502C312.053 56.9795 313.297 58.2395 313.297 59.774V86.8796C313.297 88.4142 312.037 89.6741 310.502 89.6741Z" fill="#66B0F0"/>
<path d="M300.192 89.6736H269.281C272.4 85.5222 277.166 82.873 282.515 82.873H286.958C292.307 82.873 297.074 85.5222 300.192 89.6736Z" fill="#FFCF2D"/>
<path d="M283.099 88.2851H283.794C286.815 88.2851 289.271 85.8298 289.271 82.8091V78.9161C289.271 78.8999 289.255 78.8838 289.239 78.8838H279.075C279.059 78.8838 279.043 78.8999 279.043 78.9161V84.2629C279.059 86.4921 280.869 88.2851 283.099 88.2851Z" fill="white"/>
<path d="M279.059 78.8838V84.1337C279.059 84.1983 279.059 84.2791 279.059 84.3437C279.204 87.3483 286.685 86.169 288.931 78.8838H279.059Z" fill="#FFCF2D"/>
<path d="M292.226 76.5411C292.226 77.1872 291.968 77.7687 291.532 78.2049C291.112 78.6249 290.53 78.8833 289.867 78.8833H287.654C286.862 80.9833 284.826 82.4694 282.451 82.4694H280.722C278.314 82.4694 276.375 80.5148 276.375 78.1241V71.3396C278.863 71.5496 280.964 69.5466 281.045 69.4658C281.013 69.5789 279.752 73.1327 282.612 73.3265C285.456 73.5203 286.393 71.4689 286.426 71.3881C286.426 71.4689 286.442 74.215 288.688 74.3603H289.867C291.176 74.3603 292.226 75.2488 292.226 76.5411Z" fill="white"/>
<path d="M288.897 74.3604H288.849C288.801 74.3604 288.752 74.3604 288.704 74.3604C286.458 74.215 286.441 71.4851 286.441 71.3881C286.409 71.4689 285.456 73.5204 282.628 73.3266C279.784 73.1327 281.028 69.579 281.061 69.4659C280.98 69.5305 278.879 71.5497 276.391 71.3397C275.841 71.2912 275.292 71.1458 274.726 70.8389C271.091 68.8682 273.434 64.8137 277.005 64.7652C279.849 64.7329 281.061 66.2836 281.061 66.2836C281.061 66.2836 281.675 63.1014 285.165 63.6506C288.655 64.1998 288.025 67.2852 288.025 67.2852C288.025 67.2852 290.95 65.9283 292.565 68.4321C294.472 71.372 291.612 74.3604 288.897 74.3604Z" fill="#FE5244"/>
<path d="M279.349 77.3166C279.333 77.3166 279.317 77.3166 279.285 77.3166C279.155 77.2843 279.075 77.1551 279.107 77.0259C279.107 77.0097 279.495 75.4105 278.8 74.1021C278.041 72.7129 276.732 72.939 276.683 72.939C276.554 72.9552 276.425 72.8744 276.409 72.7452C276.376 72.616 276.473 72.4867 276.602 72.4706C276.619 72.4706 278.315 72.1637 279.236 73.8759C280.028 75.3459 279.608 77.0743 279.592 77.1389C279.543 77.2359 279.446 77.3166 279.349 77.3166Z" fill="#FFCF2D"/>
<path d="M280.206 79.1898C279.867 79.1898 279.56 79.1414 279.333 79.0768C279.204 79.0444 279.123 78.9152 279.156 78.786C279.188 78.6568 279.317 78.576 279.446 78.6083C279.527 78.6245 281.369 79.1091 282.048 77.6876C282.113 77.5745 282.242 77.5099 282.371 77.5745C282.5 77.6391 282.549 77.7683 282.484 77.8976C282.016 78.9152 281.03 79.1898 280.206 79.1898Z" fill="#FFCF2D"/>
<path d="M282.546 75.3778C282.734 75.3778 282.886 75.0379 282.886 74.6186C282.886 74.1993 282.734 73.8594 282.546 73.8594C282.359 73.8594 282.207 74.1993 282.207 74.6186C282.207 75.0379 282.359 75.3778 282.546 75.3778Z" fill="#FFCF2D"/>
<path d="M277.521 75.2492C277.682 75.2492 277.812 74.9672 277.812 74.6192C277.812 74.2713 277.682 73.9893 277.521 73.9893C277.361 73.9893 277.23 74.2713 277.23 74.6192C277.23 74.9672 277.361 75.2492 277.521 75.2492Z" fill="#FFCF2D"/>
<path d="M288.656 77.4296C288.527 77.4296 288.414 77.3165 288.414 77.1873C288.414 76.1535 289.254 75.3135 290.288 75.3135C290.418 75.3135 290.531 75.4266 290.531 75.5558C290.531 75.685 290.418 75.7981 290.288 75.7981C289.529 75.7981 288.899 76.4119 288.899 77.1873C288.899 77.3165 288.786 77.4296 288.656 77.4296Z" fill="#FFCF2D"/>
<path d="M246.611 89.6741H195.971C194.42 89.6741 193.176 88.4142 193.176 86.8796V59.774C193.176 58.2233 194.436 56.9795 195.971 56.9795H246.611C248.163 56.9795 249.407 58.2395 249.407 59.774V86.8796C249.423 88.4142 248.163 89.6741 246.611 89.6741Z" fill="#FFCF2D"/>
<path d="M234.381 89.6736H202.969C206.136 84.9406 210.983 81.9199 216.412 81.9199H220.937C226.366 81.9199 231.197 84.9406 234.381 89.6736Z" fill="white"/>
<path d="M234.381 89.6736H202.969C203.066 89.5282 203.163 89.399 203.26 89.2536C203.276 89.2213 203.292 89.189 203.324 89.1729H234.041C234.057 89.2052 234.074 89.2213 234.106 89.2536C234.187 89.3828 234.284 89.5282 234.381 89.6736Z" fill="#FEB040"/>
<path d="M233.055 87.9129H204.293C204.438 87.7352 204.584 87.5736 204.729 87.4121H232.619C232.764 87.5736 232.909 87.7352 233.055 87.9129Z" fill="#FEB040"/>
<path d="M231.277 86.072H206.07C206.264 85.8943 206.458 85.7328 206.652 85.5713H230.696C230.889 85.7328 231.083 85.8943 231.277 86.072Z" fill="#FEB040"/>
<path d="M228.563 84.0525H208.77C209.06 83.8748 209.367 83.7133 209.674 83.5518H227.642C227.966 83.7133 228.256 83.8748 228.563 84.0525Z" fill="#FEB040"/>
<path d="M223.685 75.877V83.0976C223.685 83.8406 221.39 84.4383 218.579 84.4383C215.832 84.4383 213.586 83.873 213.473 83.1461C213.473 83.1299 213.473 83.1137 213.473 83.0976V75.877H223.685Z" fill="#E57281"/>
<path d="M223.62 75.8785V76.04C223.62 79.5938 219.208 83.6645 216.025 84.1329C215.524 84.2137 213.973 83.9068 213.488 83.1314C213.488 83.1152 213.488 83.0991 213.488 83.0829V75.8623H223.62V75.8785Z" fill="#9A3B82"/>
<path d="M226.462 73.6011V73.7626C226.462 75.0064 225.444 76.0241 224.2 76.0241H222.245C221.615 78.2856 219.546 79.9332 217.09 79.9332H215.006C212.695 79.9332 210.805 78.0594 210.805 75.7333V66.542C214.683 67.6243 221.615 66.6066 221.615 66.6066C221.615 66.6066 220.984 68.8681 222.18 71.3234H224.216C225.444 71.3396 226.462 72.3573 226.462 73.6011Z" fill="#E57281"/>
<path d="M224.692 72.049L224.982 71.5576L224.121 71.049C224.982 71.5576 224.982 71.5574 224.982 71.5571L224.983 71.5566L224.983 71.5554L224.985 71.5519L224.992 71.5413L225.012 71.5057C225.029 71.4757 225.053 71.4333 225.082 71.3797C225.141 71.2727 225.222 71.1205 225.315 70.9328C225.499 70.5595 225.737 70.036 225.941 69.4424C226.144 68.8536 226.326 68.1642 226.379 67.4658C226.432 66.7742 226.365 65.996 225.989 65.2955C225.845 65.0254 225.629 64.8008 225.432 64.6256C225.223 64.4395 224.973 64.2556 224.7 64.0771C224.154 63.7195 223.457 63.3446 222.672 62.9788C221.099 62.2461 219.098 61.5142 217.082 61.0106C215.084 60.5115 212.984 60.2143 211.249 60.4191C209.523 60.6228 207.837 61.3868 207.35 63.2889C207.062 64.4057 207.303 65.3969 207.997 66.1594C208.634 66.8587 209.571 67.276 210.525 67.5387L210.525 67.5387C212.632 68.1179 215.475 68.1228 217.702 68.0052C218.728 67.9511 219.65 67.8691 220.353 67.7956C220.353 67.8026 220.353 67.8096 220.353 67.8166C220.32 68.7779 220.537 70.069 221.418 71.5582L221.709 72.049H222.279H224.121H224.692Z" fill="white" stroke="#FEB040" stroke-width="2" stroke-miterlimit="10"/>
<path d="M216.944 76.0073C216.895 76.0558 216.847 76.0719 216.782 76.0719C216.717 76.0719 216.653 76.0396 216.604 75.9911L216.378 75.7488C215.683 76.3627 215.021 76.6696 214.407 76.6696C214.342 76.6696 214.278 76.6696 214.229 76.6534C213.551 76.5888 213.211 76.1365 213.195 76.1204C213.114 76.0073 213.13 75.8619 213.244 75.7811C213.357 75.7004 213.502 75.7165 213.583 75.8296C213.599 75.8458 213.825 76.1365 214.294 76.185C214.811 76.2334 215.409 75.9588 216.055 75.3935L215.926 75.2481C215.829 75.1512 215.845 74.9896 215.942 74.9089C216.039 74.8119 216.2 74.8281 216.281 74.925L216.96 75.6681C217.057 75.765 217.041 75.9104 216.944 76.0073Z" fill="#9A3B82"/>
<path d="M219.402 71.1941C219.337 71.1941 219.272 71.178 219.224 71.1295C217.802 69.7403 215.992 70.0149 215.976 70.0149C215.847 70.031 215.717 69.9503 215.701 69.8211C215.685 69.6918 215.766 69.5626 215.895 69.5464C215.976 69.5303 217.963 69.2072 219.563 70.7903C219.66 70.8872 219.66 71.0326 219.563 71.1295C219.531 71.178 219.466 71.1941 219.402 71.1941Z" fill="#9A3B82"/>
<path d="M213.891 74.5862C213.875 74.5862 213.842 74.5862 213.826 74.5701C213.697 74.5378 213.632 74.3924 213.665 74.2632C213.665 74.247 214.165 72.5993 213.358 71.194C212.663 69.9825 211.095 70.354 211.079 70.3701C210.95 70.4025 210.821 70.3217 210.788 70.1925C210.756 70.0632 210.837 69.934 210.966 69.9017C211.629 69.7402 213.083 69.7402 213.778 70.9678C214.699 72.567 214.165 74.3439 214.133 74.4247C214.085 74.5216 214.004 74.5862 213.891 74.5862Z" fill="#9A3B82"/>
<path d="M212.08 72.6965C212.241 72.6965 212.371 72.4144 212.371 72.0665C212.371 71.7186 212.241 71.4365 212.08 71.4365C211.919 71.4365 211.789 71.7186 211.789 72.0665C211.789 72.4144 211.919 72.6965 212.08 72.6965Z" fill="#9A3B82"/>
<path d="M217.105 72.826C217.292 72.826 217.444 72.4861 217.444 72.0668C217.444 71.6475 217.292 71.3076 217.105 71.3076C216.918 71.3076 216.766 71.6475 216.766 72.0668C216.766 72.4861 216.918 72.826 217.105 72.826Z" fill="#9A3B82"/>
<path d="M222.938 74.4248C222.808 74.4248 222.695 74.3117 222.695 74.1825C222.695 73.1325 223.552 72.2764 224.602 72.2764C224.731 72.2764 224.844 72.3894 224.844 72.5187C224.844 72.6479 224.731 72.761 224.602 72.761C223.81 72.761 223.18 73.391 223.18 74.1825C223.18 74.3117 223.083 74.4248 222.938 74.4248Z" fill="#9A3B82"/>
<path d="M306.122 379.16C305.686 379.031 305.444 378.966 305.444 378.966L300.16 396.267L280.269 391.049C280.107 390.904 280.027 390.823 280.027 390.823C280.027 390.823 199.477 327.711 195.244 297.423C191.026 267.135 224.765 238.398 224.765 238.398C224.765 238.398 296.718 374.362 305.621 378.805C305.799 378.902 305.977 379.015 306.122 379.16Z" fill="#A0505A"/>
<path d="M241.794 270.205C239.273 283.693 230.419 311.009 221.257 337.436C207.684 322.817 196.728 308.069 195.242 297.407C192.56 278.217 205.147 259.624 214.713 248.608C218.219 245.797 222 243.212 226.088 240.902C228.593 245.603 234.393 256.49 241.794 270.205Z" fill="#73325A"/>
<path d="M351.872 391.648L352.416 391.3L352.322 390.661L351.332 390.807C352.322 390.661 352.321 390.66 352.321 390.659L352.321 390.657L352.32 390.653L352.319 390.642L352.313 390.611C352.309 390.588 352.303 390.557 352.296 390.52C352.28 390.445 352.257 390.344 352.223 390.221C352.154 389.974 352.042 389.636 351.863 389.239C351.504 388.443 350.875 387.412 349.79 386.407C347.603 384.378 343.702 382.58 336.821 382.813L336.821 382.813C330.267 383.035 322.502 381.847 316.335 380.587C313.261 379.959 310.6 379.317 308.709 378.832C307.763 378.59 307.011 378.387 306.495 378.245C306.238 378.173 306.039 378.118 305.906 378.08C305.84 378.061 305.789 378.046 305.756 378.037L305.718 378.026L305.709 378.023L305.707 378.023L305.707 378.023L304.759 377.746L304.47 378.69L299.467 395.072L280.263 390.033L279.153 389.742L279.016 390.882L280.009 391.001C279.016 390.882 279.016 390.882 279.016 390.883L279.016 390.885L279.016 390.889L279.014 390.904L279.008 390.956C279.004 391 278.997 391.063 278.99 391.145C278.976 391.308 278.957 391.546 278.94 391.852C278.905 392.463 278.877 393.346 278.898 394.452C278.939 396.663 279.179 399.77 279.968 403.376C281.546 410.59 285.33 419.815 294.137 427.827L294.705 428.344L295.351 427.929L308.358 419.578L309.107 419.097L308.717 418.298L306.556 413.868L313.386 409.539L321.597 410.776L321.97 410.832L322.286 410.629L351.872 391.648Z" fill="white" stroke="#444444" stroke-width="2" stroke-miterlimit="10"/>
<mask id="path-125-outside-3" maskUnits="userSpaceOnUse" x="310.207" y="365.93" width="17" height="18" fill="black">
<rect fill="white" x="310.207" y="365.93" width="17" height="18"/>
<path d="M317.708 381.292C317.708 381.292 316.463 368.143 313.345 368.967C310.226 369.807 314.137 382.923 317.643 381.486C321.149 380.048 324.656 370.728 324.656 370.728"/>
</mask>
<path d="M313.345 368.967L312.834 367.033L312.825 367.036L313.345 368.967ZM317.708 381.292C319.699 381.104 319.699 381.103 319.699 381.103C319.699 381.103 319.699 381.102 319.699 381.102C319.699 381.101 319.698 381.1 319.698 381.099C319.698 381.097 319.698 381.094 319.697 381.09C319.697 381.083 319.696 381.072 319.694 381.058C319.692 381.031 319.688 380.991 319.682 380.94C319.672 380.838 319.656 380.691 319.636 380.506C319.594 380.135 319.531 379.609 319.446 378.982C319.277 377.732 319.015 376.056 318.649 374.391C318.29 372.76 317.801 370.998 317.133 369.655C316.805 368.995 316.354 368.269 315.718 367.732C315.018 367.141 314.004 366.724 312.834 367.033L313.856 370.901C313.465 371.004 313.172 370.817 313.138 370.788C313.137 370.787 313.149 370.798 313.174 370.826C313.198 370.853 313.231 370.894 313.27 370.95C313.351 371.064 313.446 371.224 313.551 371.435C313.994 372.326 314.4 373.696 314.742 375.25C315.077 376.77 315.321 378.329 315.483 379.519C315.563 380.111 315.622 380.606 315.661 380.951C315.68 381.124 315.694 381.258 315.703 381.349C315.708 381.394 315.711 381.428 315.714 381.45C315.715 381.462 315.716 381.47 315.716 381.475C315.716 381.477 315.716 381.479 315.717 381.48C315.717 381.48 315.717 381.481 315.717 381.481C315.717 381.481 315.717 381.481 315.717 381.481C315.717 381.481 315.717 381.48 317.708 381.292ZM312.825 367.036C311.658 367.35 310.988 368.223 310.649 369.025C310.322 369.796 310.218 370.661 310.208 371.454C310.187 373.06 310.549 374.956 311.105 376.69C311.658 378.418 312.468 380.19 313.476 381.484C313.977 382.126 314.618 382.77 315.415 383.177C316.27 383.613 317.328 383.777 318.402 383.336L316.884 379.635C317.082 379.554 317.25 379.623 317.233 379.614C317.157 379.575 316.942 379.423 316.631 379.025C316.017 378.237 315.387 376.947 314.914 375.471C314.444 374.001 314.194 372.55 314.208 371.505C314.214 370.973 314.289 370.687 314.332 370.585C314.362 370.514 314.253 370.794 313.865 370.898L312.825 367.036ZM318.402 383.336C319.789 382.768 320.933 381.557 321.807 380.412C322.725 379.211 323.552 377.801 324.236 376.496C324.925 375.181 325.495 373.921 325.892 372.993C326.091 372.528 326.248 372.143 326.356 371.872C326.41 371.736 326.452 371.629 326.481 371.554C326.495 371.517 326.507 371.487 326.514 371.467C326.518 371.457 326.521 371.449 326.524 371.443C326.525 371.44 326.526 371.437 326.526 371.436C326.527 371.435 326.527 371.434 326.527 371.433C326.527 371.433 326.527 371.433 326.528 371.432C326.528 371.432 326.528 371.432 324.656 370.728C322.784 370.023 322.784 370.023 322.784 370.023C322.784 370.023 322.784 370.023 322.784 370.023C322.784 370.023 322.784 370.023 322.784 370.023C322.784 370.023 322.783 370.024 322.783 370.026C322.782 370.029 322.78 370.034 322.777 370.042C322.771 370.057 322.762 370.08 322.75 370.111C322.726 370.174 322.689 370.268 322.641 370.39C322.543 370.634 322.399 370.989 322.214 371.42C321.844 372.284 321.319 373.444 320.693 374.639C320.062 375.844 319.355 377.034 318.629 377.984C317.859 378.992 317.251 379.485 316.884 379.635L318.402 383.336Z" fill="#444444" mask="url(#path-125-outside-3)"/>
<mask id="path-127-outside-4" maskUnits="userSpaceOnUse" x="282.098" y="386.222" width="70" height="26" fill="black">
<rect fill="white" x="282.098" y="386.222" width="70" height="26"/>
<path d="M283.098 409.77L302.924 410.077L312.764 404.197L322.104 405.7L350.106 388.222"/>
</mask>
<path d="M302.924 410.077L302.893 412.077L303.462 412.086L303.95 411.794L302.924 410.077ZM312.764 404.197L313.082 402.223L312.363 402.107L311.739 402.481L312.764 404.197ZM322.104 405.7L321.786 407.674L322.527 407.793L323.163 407.396L322.104 405.7ZM283.067 411.77L302.893 412.077L302.955 408.078L283.129 407.771L283.067 411.77ZM303.95 411.794L313.79 405.914L311.739 402.481L301.898 408.361L303.95 411.794ZM312.447 406.172L321.786 407.674L322.421 403.725L313.082 402.223L312.447 406.172ZM323.163 407.396L351.165 389.918L349.047 386.525L321.045 404.003L323.163 407.396Z" fill="#444444" mask="url(#path-127-outside-4)"/>
<path d="M313.604 380.549L311.762 389.126" stroke="#444444" stroke-width="2" stroke-miterlimit="10"/>
<path d="M317.612 381.519L315.77 390.096" stroke="#444444" stroke-width="2" stroke-miterlimit="10"/>
<path d="M321.795 382.213L319.953 390.79" stroke="#444444" stroke-width="2" stroke-miterlimit="10"/>
<path d="M217.929 231.792C217.929 231.792 229.773 237.316 229.773 257.573C229.773 277.151 184.562 397.042 184.562 397.042L170.65 408.834L156.527 393.375C163.427 386.817 143.617 268.25 217.929 231.792Z" fill="#A0505A"/>
<path d="M217.317 432.804L217.581 432.214L216.669 431.805C217.581 432.214 217.582 432.213 217.582 432.212L217.583 432.21L217.585 432.206L217.589 432.196L217.601 432.168C217.61 432.146 217.622 432.117 217.635 432.081C217.662 432.01 217.697 431.912 217.735 431.789C217.81 431.544 217.898 431.199 217.961 430.767C218.087 429.902 218.113 428.692 217.742 427.259C216.993 424.367 214.679 420.745 208.761 417.231C203.131 413.885 197.294 408.688 192.839 404.29C190.618 402.098 188.752 400.117 187.443 398.684C186.788 397.968 186.273 397.39 185.922 396.991C185.747 396.792 185.612 396.637 185.522 396.533C185.477 396.481 185.443 396.442 185.421 396.416L185.395 396.386L185.389 396.379L185.388 396.378L185.388 396.377L184.743 395.622L183.983 396.261L170.711 407.417L157.332 392.687L156.568 391.845L155.831 392.711L156.592 393.359C155.831 392.711 155.83 392.712 155.83 392.712L155.829 392.713L155.826 392.717L155.816 392.729L155.783 392.768C155.755 392.802 155.716 392.851 155.666 392.914C155.566 393.04 155.423 393.224 155.246 393.465C154.892 393.946 154.4 394.654 153.837 395.574C152.71 397.414 151.295 400.107 150.12 403.544C147.767 410.426 146.386 420.276 150.211 432.175L150.434 432.87L151.164 432.869L164.947 432.853L165.836 432.852L165.939 431.97L166.514 427.075L174.602 427.117L180.849 432.589L181.133 432.837L181.509 432.837L216.67 432.805L217.317 432.804Z" fill="white" stroke="#444444" stroke-width="2" stroke-miterlimit="10"/>
<mask id="path-134-outside-5" maskUnits="userSpaceOnUse" x="190.473" y="390.512" width="20" height="18" fill="black">
<rect fill="white" x="190.473" y="390.512" width="20" height="18"/>
<path d="M192.643 405.329C192.643 405.329 206.442 396.429 202.516 393.02C198.589 389.612 190.688 404.408 192.837 405.588C194.986 406.767 209.868 402.292 209.868 402.292"/>
</mask>
<path d="M192.643 405.329C193.727 407.01 193.727 407.01 193.728 407.009C193.728 407.009 193.728 407.009 193.729 407.009C193.729 407.008 193.73 407.008 193.731 407.007C193.734 407.005 193.737 407.003 193.741 407.001C193.749 406.996 193.76 406.988 193.775 406.979C193.803 406.96 193.845 406.933 193.898 406.898C194.004 406.828 194.157 406.726 194.349 406.597C194.732 406.337 195.272 405.965 195.907 405.508C197.17 404.598 198.834 403.333 200.386 401.942C201.902 400.584 203.463 398.974 204.371 397.365C204.827 396.558 205.216 395.583 205.219 394.533C205.222 393.383 204.757 392.318 203.827 391.51L201.205 394.531C201.254 394.574 201.246 394.581 201.231 394.547C201.215 394.513 201.219 394.495 201.219 394.522C201.218 394.612 201.174 394.891 200.888 395.398C200.313 396.416 199.16 397.67 197.717 398.963C196.31 400.224 194.77 401.397 193.569 402.262C192.971 402.693 192.464 403.043 192.108 403.283C191.93 403.404 191.79 403.497 191.696 403.559C191.649 403.59 191.613 403.613 191.59 403.628C191.578 403.636 191.57 403.641 191.565 403.645C191.562 403.646 191.56 403.647 191.559 403.648C191.559 403.648 191.558 403.649 191.558 403.649C191.558 403.649 191.558 403.649 191.558 403.649C191.559 403.649 191.559 403.648 192.643 405.329ZM203.827 391.51C202.881 390.689 201.744 390.396 200.612 390.552C199.568 390.695 198.632 391.201 197.86 391.769C196.315 392.905 194.87 394.705 193.715 396.503C192.545 398.323 191.555 400.327 190.993 402.015C190.717 402.842 190.504 403.712 190.476 404.499C190.455 405.099 190.513 406.594 191.875 407.341L193.799 403.834C194.623 404.286 194.458 405.061 194.473 404.64C194.482 404.405 194.563 403.952 194.788 403.28C195.225 401.968 196.053 400.264 197.08 398.665C198.123 397.041 199.256 395.708 200.23 394.991C200.717 394.633 201.025 394.533 201.156 394.515C201.199 394.509 201.169 394.499 201.205 394.531L203.827 391.51ZM191.875 407.341C192.648 407.765 193.597 407.794 194.217 407.784C194.955 407.773 195.811 407.681 196.7 407.548C198.486 407.281 200.616 406.816 202.631 406.325C204.656 405.833 206.607 405.303 208.049 404.899C208.771 404.696 209.368 404.524 209.785 404.402C209.993 404.341 210.157 404.293 210.269 404.26C210.325 404.243 210.368 404.23 210.397 404.221C210.412 404.217 210.423 404.214 210.431 404.211C210.435 404.21 210.438 404.209 210.44 404.209C210.441 404.208 210.442 404.208 210.442 404.208C210.443 404.208 210.443 404.208 210.443 404.208C210.443 404.208 210.444 404.208 209.868 402.292C209.292 400.377 209.292 400.377 209.292 400.377C209.292 400.377 209.292 400.377 209.292 400.377C209.291 400.377 209.291 400.377 209.29 400.378C209.288 400.378 209.286 400.379 209.283 400.38C209.276 400.382 209.266 400.385 209.253 400.389C209.225 400.397 209.185 400.409 209.131 400.425C209.024 400.457 208.866 400.503 208.663 400.562C208.258 400.681 207.675 400.849 206.968 401.047C205.553 401.445 203.649 401.961 201.685 402.439C199.711 402.92 197.717 403.352 196.109 403.592C195.3 403.713 194.641 403.777 194.155 403.785C193.549 403.794 193.563 403.705 193.799 403.834L191.875 407.341Z" fill="#444444" mask="url(#path-134-outside-5)"/>
<mask id="path-136-outside-6" maskUnits="userSpaceOnUse" x="147.305" y="409.241" width="70" height="21" fill="black">
<rect fill="white" x="147.305" y="409.241" width="70" height="21"/>
<path d="M149.305 411.241L165.802 421.644H177.259L184.514 427.734H216.944"/>
</mask>
<path d="M165.802 421.644L164.736 423.336L165.224 423.644H165.802V421.644ZM177.259 421.644L178.544 420.112L177.987 419.644H177.259V421.644ZM184.514 427.734L183.228 429.266L183.786 429.734H184.514V427.734ZM148.238 412.933L164.736 423.336L166.869 419.952L150.371 409.549L148.238 412.933ZM165.802 423.644H177.259V419.644H165.802V423.644ZM175.973 423.176L183.228 429.266L185.8 426.202L178.544 420.112L175.973 423.176ZM184.514 429.734H216.944V425.734H184.514V429.734Z" fill="#444444" mask="url(#path-136-outside-6)"/>
<path d="M189.572 401.97L183.367 408.173" stroke="#444444" stroke-width="2" stroke-miterlimit="10"/>
<path d="M192.416 404.958L186.211 411.161" stroke="#444444" stroke-width="2" stroke-miterlimit="10"/>
<path d="M195.552 407.801L189.348 414.004" stroke="#444444" stroke-width="2" stroke-miterlimit="10"/>
<path d="M217.93 231.793C189.992 245.491 175.353 270.82 167.613 297.425H82.8299C61.1293 297.425 44.9548 277.41 49.5276 256.201L55.7486 227.318H203.161C208.623 227.318 213.696 228.966 217.93 231.793Z" fill="#FE5244"/>
<path d="M154.977 259.48L185.5 259.415L180.975 266.83L154.977 259.48Z" fill="#A0505A"/>
<mask id="path-143-outside-7" maskUnits="userSpaceOnUse" x="83.1562" y="224.318" width="137" height="38" fill="black">
<rect fill="white" x="83.1562" y="224.318" width="137" height="38"/>
<path d="M218.091 231.631C204.195 238.448 193.595 248.14 185.484 259.431H108.134C94.1889 259.431 83.7829 246.622 86.6268 232.972L87.8064 227.318"/>
</mask>
<path d="M218.972 233.427C219.964 232.94 220.373 231.742 219.887 230.751C219.4 229.759 218.202 229.349 217.21 229.836L218.972 233.427ZM185.484 259.431V261.431H186.509L187.108 260.598L185.484 259.431ZM86.6268 232.972L84.669 232.564L84.6689 232.564L86.6268 232.972ZM89.7642 227.727C89.9898 226.646 89.2961 225.586 88.2149 225.361C87.1336 225.135 86.0741 225.829 85.8485 226.91L89.7642 227.727ZM217.21 229.836C202.988 236.813 192.142 246.735 183.859 258.265L187.108 260.598C195.048 249.545 205.402 240.084 218.972 233.427L217.21 229.836ZM185.484 257.431H108.134V261.431H185.484V257.431ZM108.134 257.431C95.4587 257.431 85.9994 245.789 88.5848 233.38L84.6689 232.564C81.5665 247.455 92.9191 261.431 108.134 261.431V257.431ZM88.5847 233.381L89.7642 227.727L85.8485 226.91L84.669 232.564L88.5847 233.381Z" fill="white" mask="url(#path-143-outside-7)"/>
<mask id="path-145-outside-8" maskUnits="userSpaceOnUse" x="151.977" y="256.464" width="32" height="43" fill="black">
<rect fill="white" x="151.977" y="256.464" width="32" height="43"/>
<path d="M167.725 297.408C170.812 286.796 174.981 276.377 180.652 266.83L154.977 259.464"/>
</mask>
<path d="M165.805 296.85C165.497 297.911 166.106 299.02 167.167 299.329C168.228 299.637 169.337 299.028 169.646 297.967L165.805 296.85ZM180.652 266.83L182.372 267.851L183.696 265.622L181.204 264.907L180.652 266.83ZM155.528 257.541C154.466 257.237 153.359 257.851 153.054 258.912C152.75 259.974 153.363 261.082 154.425 261.386L155.528 257.541ZM169.646 297.967C172.696 287.477 176.805 277.221 182.372 267.851L178.933 265.808C173.156 275.532 168.927 286.114 165.805 296.85L169.646 297.967ZM181.204 264.907L155.528 257.541L154.425 261.386L180.101 268.752L181.204 264.907Z" fill="white" mask="url(#path-145-outside-8)"/>
<path d="M35.9373 149.732L51.4655 210.63H22.4936C5.62426 210.63 -5.23414 192.716 2.5865 177.774L24.8365 135.242C31.1383 123.208 43.5964 115.664 57.1856 115.664H62.437C44.5982 115.648 31.5261 132.448 35.9373 149.732Z" fill="#444444"/>
<path d="M214.745 133.934C223.874 133.934 231.468 132.723 233.311 131.027L204.985 192.41C199.863 203.524 188.73 210.631 176.498 210.631C172.911 210.631 169.388 210.017 166.06 208.838C162.731 207.659 159.596 205.93 156.801 203.669L138.946 189.26C138.946 189.26 137.168 199.711 124.484 202.377V227.285H55.7304L35.9364 149.716C31.5252 132.432 44.5973 115.616 62.4361 115.616H110.572C114.821 115.616 119.006 116.149 123.046 117.183C134.098 119.994 144.02 126.488 151.032 135.792L174.559 167L195.694 130.074C195.694 130.106 195.678 130.154 195.678 130.187C195.694 132.335 204.242 133.934 214.745 133.934Z" fill="#444444"/>
<path d="M35.7773 149.732L50.9823 211.116" stroke="white" stroke-width="2" stroke-miterlimit="10" stroke-linecap="round"/>
<path d="M139.11 190.084L125.602 175.707" stroke="white" stroke-width="2" stroke-miterlimit="10" stroke-linecap="round"/>
<path d="M233.732 130.122L233.312 131.027C231.47 132.739 223.875 133.935 214.746 133.935C204.243 133.935 195.695 132.335 195.695 130.219C195.695 130.187 195.695 130.139 195.711 130.106C196.002 128.039 204.437 126.262 214.762 126.262C225.071 126.262 233.441 128.039 233.732 130.122C233.732 130.106 233.732 130.106 233.732 130.122Z" fill="#FE5244"/>
<path d="M242.197 99.1078C242.197 100.029 241.971 100.933 241.551 101.725C241.131 102.516 240.517 103.211 239.757 103.744L239.386 104.002L236.493 119.429C236.025 121.933 234.538 124.146 232.389 125.519L228.43 128.039L225.296 130.042L223.841 133.515C221.143 133.789 218.057 133.951 214.761 133.951C211.432 133.951 208.297 133.789 205.566 133.499V109.575C205.566 108.541 205.793 107.524 206.229 106.587L211.497 95.2471C211.497 95.2471 217.249 96.6686 214.599 103.728C212.191 110.141 217.685 108.493 220.771 107.346C223.534 106.312 235.605 100.174 240.323 97.9286C241.196 97.5086 242.197 98.1547 242.197 99.1078Z" fill="#A0505A"/>
<mask id="path-153-outside-9" maskUnits="userSpaceOnUse" x="222.957" y="110.564" width="17" height="16" fill="black">
<rect fill="white" x="222.957" y="110.564" width="17" height="16"/>
<path d="M237.155 113.564C236.686 116.068 235.2 118.265 233.051 119.638L225.957 124.161"/>
</mask>
<path d="M239.121 113.932C239.324 112.847 238.608 111.802 237.523 111.599C236.437 111.395 235.392 112.111 235.189 113.197L239.121 113.932ZM233.051 119.638L234.126 121.325L234.127 121.324L233.051 119.638ZM224.882 122.475C223.95 123.069 223.677 124.305 224.271 125.236C224.865 126.168 226.101 126.441 227.032 125.848L224.882 122.475ZM235.189 113.197C234.822 115.155 233.659 116.876 231.974 117.953L234.127 121.324C236.74 119.654 238.55 116.982 239.121 113.932L235.189 113.197ZM231.975 117.952L224.882 122.475L227.032 125.848L234.126 121.325L231.975 117.952Z" fill="#73325A" mask="url(#path-153-outside-9)"/>
<mask id="path-155-outside-10" maskUnits="userSpaceOnUse" x="224.121" y="104.022" width="17" height="16" fill="black">
<rect fill="white" x="224.121" y="104.022" width="17" height="16"/>
<path d="M238.319 107.022C237.85 109.526 236.364 111.723 234.215 113.096L227.121 117.619"/>
</mask>
<path d="M240.285 107.39C240.488 106.305 239.772 105.26 238.687 105.057C237.601 104.853 236.556 105.569 236.353 106.655L240.285 107.39ZM234.215 113.096L235.29 114.783L235.291 114.782L234.215 113.096ZM226.046 115.933C225.114 116.527 224.841 117.763 225.435 118.694C226.029 119.626 227.265 119.899 228.196 119.306L226.046 115.933ZM236.353 106.655C235.986 108.613 234.823 110.334 233.138 111.411L235.291 114.782C237.904 113.112 239.714 110.44 240.285 107.39L236.353 106.655ZM233.139 111.41L226.046 115.933L228.196 119.306L235.29 114.783L233.139 111.41Z" fill="#73325A" mask="url(#path-155-outside-10)"/>
<path d="M238.869 104.18L227.461 111.416" stroke="#73325A" stroke-width="2" stroke-miterlimit="10" stroke-linecap="round"/>
<path d="M229.045 127.635L228.415 128.038L225.28 130.041L223.826 133.514C221.127 133.789 218.041 133.951 214.745 133.951C211.416 133.951 208.282 133.789 205.551 133.498V126.778C208.282 126.455 211.416 126.278 214.745 126.278C220.449 126.262 225.555 126.795 229.045 127.635Z" fill="#73325A"/>
<path d="M121.545 116.809C119.202 119.959 110.476 127.374 81.1003 127.374C43.306 127.374 67.495 115.678 67.495 115.678L83.5241 88.9121L100.717 99.4603V107.941C100.717 112.222 104.191 115.678 108.456 115.678H109.571C113.579 115.662 117.715 115.84 121.545 116.809Z" fill="#A0505A"/>
<path d="M100.702 99.4467V101.611L67.4805 115.665L83.5095 88.8984L100.702 99.4467Z" fill="#73325A"/>
<path d="M101.605 100.496H105.257C108.618 100.496 111.348 97.7665 111.348 94.4066V74.0693H89.5508V88.4459C89.5508 95.1012 94.9477 100.496 101.605 100.496Z" fill="#A0505A"/>
<path d="M110.882 94.2276H115.176L111.324 92.3305L108.043 90.7152L105.078 89.2547L106.737 92.1141L107.602 91.6123C106.737 92.1141 106.737 92.1146 106.737 92.1151L106.738 92.1161L106.739 92.1181L106.742 92.1227L106.748 92.1337C106.753 92.1418 106.759 92.1515 106.766 92.1626C106.78 92.1848 106.798 92.213 106.821 92.2462C106.866 92.3124 106.93 92.3993 107.012 92.4997C107.177 92.6999 107.421 92.9579 107.755 93.2138C108.432 93.7326 109.461 94.2276 110.882 94.2276Z" stroke="#73325A" stroke-width="2" stroke-miterlimit="10" stroke-linecap="round"/>
<path d="M108.764 86.7174C109.192 86.7174 109.539 86.0448 109.539 85.2151C109.539 84.3855 109.192 83.7129 108.764 83.7129C108.336 83.7129 107.988 84.3855 107.988 85.2151C107.988 86.0448 108.336 86.7174 108.764 86.7174Z" fill="#73325A"/>
<path d="M64.9574 177.79C77.039 177.799 86.846 169.869 91.7847 161.615C93.9391 158.014 95.2261 154.256 95.3222 150.971C96.7773 151.051 98.2806 150.857 99.7469 150.263C102.961 148.96 105.751 145.837 107.459 140.117L107.459 140.117C109.293 133.971 109.022 128.807 107.537 124.3C106.06 119.816 103.402 116.042 100.565 112.642C99.3892 111.232 98.1698 109.872 96.9872 108.554C96.7447 108.283 96.5037 108.014 96.2649 107.747C94.8545 106.169 93.5189 104.645 92.3515 103.115C90.0115 100.048 88.4323 97.0615 88.288 93.766C87.9804 86.7423 89.5475 82.5487 91.1002 80.143C91.8798 78.9351 92.6676 78.1591 93.2428 77.6925C93.4204 77.5485 93.578 77.4337 93.7093 77.3446C93.7973 77.3943 93.8957 77.4494 94.0039 77.5092C94.5194 77.7944 95.2597 78.1895 96.1656 78.6329C97.9733 79.5177 100.459 80.6046 103.146 81.3922C105.819 82.1761 108.766 82.6863 111.469 82.351C114.207 82.0113 116.732 80.7929 118.388 78.1179C119.132 76.9175 119.418 75.7039 119.227 74.5142C119.038 73.3405 118.404 72.3145 117.54 71.4336C115.837 69.6978 113.042 68.3255 109.985 67.2601C103.834 65.1163 96.0443 64.0246 91.9627 64.008L91.9624 64.008L64.9581 176.79M64.9574 177.79L64.9581 176.79M64.9574 177.79C64.9576 177.79 64.9579 177.79 64.9581 177.79V176.79M64.9574 177.79C55.0179 177.79 47.8241 173.715 42.8943 168.004C37.9892 162.321 35.3493 155.051 34.3834 148.622M64.9581 176.79C45.6974 176.79 37.2627 161.057 35.3722 148.473M34.3834 148.622C34.3834 148.623 34.3835 148.623 34.3835 148.623L35.3722 148.473M34.3834 148.622C34.3834 148.622 34.3833 148.622 34.3833 148.622L35.3722 148.473M34.3834 148.622L35.3722 148.473M94.306 149.86C94.3266 150.19 94.3326 150.528 94.3244 150.873L94.306 149.86ZM94.306 149.86C94.639 149.911 94.9753 149.948 95.3135 149.968L94.306 149.86ZM36.5448 140.974C36.3737 141.257 36.2155 141.555 36.0723 141.869C35.8037 141.776 35.5351 141.677 35.2668 141.571C35.2225 141.553 35.1783 141.535 35.134 141.517C35.2729 141.207 35.4255 140.909 35.5906 140.623C35.9087 140.75 36.2272 140.867 36.5448 140.974ZM94.1255 77.093L94.1252 77.0931C94.1277 77.0919 94.1286 77.0915 94.1278 77.0919L94.1255 77.093Z" fill="#FFCF2D" stroke="white" stroke-width="2" stroke-miterlimit="10"/>
<path d="M92.4414 84.8281H105.303" stroke="#FE5244" stroke-width="2" stroke-miterlimit="10"/>
<path d="M109.261 90.997C112.048 90.997 113.913 88.2058 113.913 85.3124C113.913 82.4191 112.048 79.6279 109.261 79.6279C106.475 79.6279 104.609 82.4191 104.609 85.3124C104.609 88.2058 106.475 90.997 109.261 90.997Z" stroke="#FE5244" stroke-width="2" stroke-miterlimit="10"/>
<mask id="path-167-outside-11" maskUnits="userSpaceOnUse" x="83.625" y="59.7607" width="16" height="20" fill="black">
<rect fill="white" x="83.625" y="59.7607" width="16" height="20"/>
<path d="M85.625 79.0611V65.4599C85.625 63.4246 87.2732 61.7607 89.3253 61.7607H93.3648C95.4008 61.7607 97.0651 63.4084 97.0651 65.4599"/>
</mask>
<path d="M87.625 79.0611V65.4599H83.625V79.0611H87.625ZM87.625 65.4599C87.625 64.524 88.3828 63.7607 89.3253 63.7607V59.7607C86.1635 59.7607 83.625 62.3251 83.625 65.4599H87.625ZM89.3253 63.7607H93.3648V59.7607H89.3253V63.7607ZM93.3648 63.7607C94.3025 63.7607 95.0651 64.5192 95.0651 65.4599H99.0651C99.0651 62.2976 96.4991 59.7607 93.3648 59.7607V63.7607Z" fill="#66B0F0" mask="url(#path-167-outside-11)"/>
<path d="M94.1233 90.4417H94.1233V90.4336V82.6638C94.1233 80.1243 92.0595 78.0615 89.52 78.0615H81.7478C79.2084 78.0615 77.1445 80.1243 77.1445 82.6638V90.4336C77.1445 92.9731 79.2084 95.0358 81.7478 95.0358H89.52C92.0668 95.0358 94.1028 92.9674 94.1233 90.4417Z" fill="white" stroke="#66B0F0" stroke-width="2" stroke-miterlimit="10"/>
<path d="M83.7036 92.4671H87.5008C89.701 92.4671 91.474 90.6951 91.474 88.4949V84.6988C91.474 82.495 89.6813 80.7266 87.5008 80.7266H83.7036C81.4999 80.7266 79.7305 82.5183 79.7305 84.6988V88.4949C79.7305 90.6986 81.5232 92.4671 83.7036 92.4671Z" fill="white" stroke="#66B0F0" stroke-width="2" stroke-miterlimit="10"/>
<path d="M89.0043 82.1143L82.25 91.0956" stroke="#66B0F0" stroke-width="2" stroke-miterlimit="10"/>
<path d="M86.7712 81.8076L80.9219 89.5613" stroke="#66B0F0" stroke-width="2" stroke-miterlimit="10"/>
<path d="M90.3103 83.7139L84.4609 91.4675" stroke="#66B0F0" stroke-width="2" stroke-miterlimit="10"/>
<path d="M90.4727 86.6055L86.8047 91.4676" stroke="#66B0F0" stroke-width="2" stroke-miterlimit="10"/>
<path d="M84.3978 81.8076L80.7461 86.6375" stroke="#66B0F0" stroke-width="2" stroke-miterlimit="10"/>
<mask id="path-176-outside-12" maskUnits="userSpaceOnUse" x="52.1094" y="306.615" width="30" height="19" fill="black">
<rect fill="white" x="52.1094" y="306.615" width="30" height="19"/>
<path d="M79.8694 306.615V315.516C79.8694 319.813 76.3792 323.302 72.0811 323.302H52.1094"/>
</mask>
<path d="M77.8694 306.615V315.516H81.8694V306.615H77.8694ZM77.8694 315.516C77.8694 318.708 75.2752 321.302 72.0811 321.302V325.302C77.4832 325.302 81.8694 320.918 81.8694 315.516H77.8694ZM72.0811 321.302H52.1094V325.302H72.0811V321.302Z" fill="#FF8019" mask="url(#path-176-outside-12)"/>
<path d="M87.3203 306.712V388.368" stroke="#FF8019" stroke-width="2" stroke-miterlimit="10"/>
<mask id="path-179-outside-13" maskUnits="userSpaceOnUse" x="49.1602" y="386.368" width="77" height="29" fill="black">
<rect fill="white" x="49.1602" y="386.368" width="77" height="29"/>
<path d="M51.1602 414.553C51.1602 400.096 65.5249 388.368 83.2345 388.368H91.2813C108.991 388.368 123.356 400.096 123.356 414.553"/>
</mask>
<path d="M53.1602 414.553C53.1602 401.56 66.2311 390.368 83.2345 390.368V386.368C64.8188 386.368 49.1602 398.631 49.1602 414.553H53.1602ZM83.2345 390.368H91.2813V386.368H83.2345V390.368ZM91.2813 390.368C108.285 390.368 121.356 401.56 121.356 414.553H125.356C125.356 398.631 109.697 386.368 91.2813 386.368V390.368Z" fill="#FF8019" mask="url(#path-179-outside-13)"/>
<path d="M165.024 308.955H165.796L165.991 308.208L168.77 297.579L169.098 296.326H167.803H37.082H36.082V297.326C36.082 303.741 41.2796 308.955 47.7142 308.955H165.024Z" fill="#999999" stroke="#999999" stroke-width="2"/>
<path d="M50.446 432.869C55.7813 432.869 60.1069 428.545 60.1069 423.211C60.1069 417.877 55.7813 413.553 50.446 413.553C45.1108 413.553 40.7852 417.877 40.7852 423.211C40.7852 428.545 45.1108 432.869 50.446 432.869Z" fill="#999999" stroke="#999999" stroke-width="2"/>
<path d="M46.034 326.514H63.4204C65.3943 326.514 66.9896 324.92 66.9896 322.946V322.752C66.9896 320.778 65.3943 319.184 63.4204 319.184H46.034C44.0601 319.184 42.4648 320.778 42.4648 322.752V322.946C42.4648 324.92 44.0601 326.514 46.034 326.514Z" fill="#999999" stroke="#999999" stroke-width="2"/>
<path d="M36.1421 297.986L36.3791 298.65H37.0838H120.315H121.734L121.257 297.314L93.4164 219.324L93.416 219.323C91.3351 213.516 85.837 209.631 79.6611 209.631H18.4694C11.7023 209.631 6.98669 216.325 9.25428 222.694L9.2546 222.695L36.1421 297.986Z" stroke="#999999" stroke-width="2" stroke-miterlimit="10"/>
<mask id="path-185-outside-14" maskUnits="userSpaceOnUse" x="12.3281" y="211.522" width="105" height="89" fill="black">
<rect fill="white" x="12.3281" y="211.522" width="105" height="89"/>
<path d="M41.2031 297.65H113.56L86.6564 222.245C84.7821 217.012 79.8376 213.522 74.2792 213.522H12.3281"/>
</mask>
<path d="M113.56 297.65V299.65H116.397L115.444 296.978L113.56 297.65ZM86.6564 222.245L88.5401 221.573L88.5393 221.571L86.6564 222.245ZM41.2031 299.65H113.56V295.65H41.2031V299.65ZM115.444 296.978L88.5401 221.573L84.7728 222.917L111.676 298.322L115.444 296.978ZM88.5393 221.571C86.3809 215.544 80.6843 211.522 74.2792 211.522V215.522C78.991 215.522 83.1833 218.479 84.7736 222.92L88.5393 221.571ZM74.2792 211.522H12.3281V215.522H74.2792V211.522Z" fill="#999999" mask="url(#path-185-outside-14)"/>
<path d="M123.208 432.869C128.543 432.869 132.869 428.545 132.869 423.211C132.869 417.877 128.543 413.553 123.208 413.553C117.872 413.553 113.547 417.877 113.547 423.211C113.547 428.545 117.872 432.869 123.208 432.869Z" fill="#999999" stroke="#999999" stroke-width="2"/>
</svg>
