<svg width="62" height="60" viewBox="0 0 62 60" fill="none" xmlns="http://www.w3.org/2000/svg">
<path d="M60.0924 28.0297C59.1804 27.1884 57.9399 26.6687 56.6886 26.6037C55.2677 26.5302 53.9365 27.0369 52.9451 28.0288L46.1711 34.7317C46.0372 34.4998 45.8843 34.2808 45.7128 34.0777C44.8794 33.0881 43.6607 32.5434 42.2816 32.5434H32.7987C31.0106 32.5434 29.2662 32.3115 27.6143 31.8546C23.3074 30.6633 19.193 31.5334 15.7148 34.3724C14.3004 35.527 13.2686 36.7829 12.616 37.6985L10.9157 36.0485C10.6922 35.8314 10.3891 35.7082 10.0772 35.7082C10.0744 35.7082 10.0721 35.7082 10.0693 35.7082C9.7463 35.7106 9.43395 35.8449 9.20991 36.0773L0.94432 44.658C0.723074 44.8876 0.60269 45.1963 0.609662 45.5151C0.616634 45.8344 0.750032 46.1375 0.981039 46.3573L14.9609 59.6688C15.1929 59.8896 15.4903 59.9998 15.7873 59.9998C16.0992 59.9998 16.4111 59.8785 16.6458 59.6377L24.8343 51.2368C25.0578 51.0072 25.1819 50.6935 25.1759 50.3728C25.1699 50.0567 25.0374 49.7518 24.8106 49.5315L24.0976 48.8399L25.7295 48.6563C26.7167 48.5415 27.7207 48.4834 28.7144 48.4834H43.1424C45.4869 48.4834 47.4781 47.9707 49.0612 46.9593C49.0742 46.9509 49.0872 46.9421 49.1002 46.9332C49.6673 46.5391 50.1818 46.072 50.629 45.5453L60.3517 34.107C62.0157 32.1497 61.9116 29.7072 60.0924 28.0297ZM15.7562 57.1166L3.50678 45.4528L10.1056 38.6021L22.2834 50.4197L15.7562 57.1166ZM58.5255 32.5546L48.8028 43.9934C48.4941 44.3564 48.1404 44.6789 47.7505 44.9522C46.562 45.7048 45.0118 46.0868 43.1424 46.0868H28.714C27.6287 46.0868 26.5313 46.1505 25.4571 46.2755L21.8698 46.6781L14.3585 39.389C14.8805 38.6151 15.8403 37.3643 17.2306 36.2293C20.1207 33.8699 23.3994 33.1751 26.9752 34.1646C28.8353 34.6792 30.7944 34.9404 32.7987 34.9404H42.2816C43.9846 34.9404 44.4392 36.4157 44.4392 37.2872C44.4392 37.924 44.2347 38.5301 43.8782 38.9502C43.4915 39.4053 42.9416 39.6358 42.2439 39.6358H33.989C33.3271 39.6358 32.7908 40.1727 32.7908 40.8346C32.7908 41.4964 33.3271 42.0328 33.989 42.0328H42.2439C43.6374 42.0328 44.8664 41.489 45.7049 40.5018C46.4025 39.6809 46.8004 38.6016 46.8339 37.448L54.6356 29.7281C55.7506 28.613 57.4927 28.8928 58.4674 29.7918C58.9713 30.2566 59.6489 31.2331 58.5255 32.5546Z" fill="white"/>
<path d="M30.2521 40.515C30.101 39.8703 29.4563 39.471 28.8117 39.6216C28.1674 39.7727 27.7673 40.4174 27.9188 41.062L27.9299 41.1108C28.0596 41.663 28.5518 42.0358 29.0957 42.0358C29.1863 42.0358 29.2783 42.0256 29.3704 42.0042C30.015 41.8531 30.4148 41.208 30.2637 40.5638L30.2521 40.515Z" fill="white"/>
<path d="M8.71036 25.2853H20.3881C21.0239 25.2853 21.6124 25.0789 22.0911 24.7303C22.5699 25.0789 23.1583 25.2853 23.7941 25.2853H35.4723C36.1082 25.2853 36.6966 25.0789 37.1754 24.7303C37.6541 25.0789 38.2426 25.2853 38.8784 25.2853H50.5561C52.156 25.2853 53.4574 23.9834 53.4574 22.3835V16.9379C53.4574 14.4921 52.0886 12.3675 50.0397 11.3193C51.0325 10.122 51.6303 8.58631 51.6303 6.91302C51.6303 3.10117 48.5291 0 44.7173 0C40.9054 0 37.8042 3.10117 37.8042 6.91302C37.8042 8.58631 38.402 10.1225 39.3948 11.3193C38.5093 11.773 37.7513 12.4279 37.1754 13.2223C36.5995 12.4274 35.8414 11.7725 34.9555 11.3193C35.9483 10.1225 36.546 8.58631 36.546 6.91302C36.546 3.10117 33.4449 0 29.633 0C25.8212 0 22.72 3.10117 22.72 6.91302C22.72 8.58631 23.3182 10.1225 24.311 11.3198C23.4251 11.773 22.667 12.4279 22.0911 13.2227C21.5152 12.4279 20.7571 11.773 19.8712 11.3193C20.864 10.1225 21.4618 8.58631 21.4618 6.91348C21.4618 3.10117 18.3606 0 14.5488 0C10.7374 0 7.6362 3.10117 7.6362 6.91348C7.6362 8.58631 8.23394 10.1225 9.22676 11.3198C7.1779 12.3679 5.80859 14.493 5.80859 16.9384V22.3835C5.80859 23.9834 7.11051 25.2853 8.71036 25.2853ZM44.7177 2.39699C47.2077 2.39699 49.2337 4.4226 49.2337 6.91302C49.2337 9.40297 47.2077 11.429 44.7177 11.429C42.2273 11.429 40.2017 9.40343 40.2017 6.91302C40.2012 4.4226 42.2273 2.39699 44.7177 2.39699ZM41.604 13.0823C42.5406 13.5569 43.598 13.826 44.7173 13.826C45.837 13.826 46.8944 13.5569 47.8305 13.0823C49.693 13.4068 51.0609 15.0117 51.0609 16.9379V22.3835C51.0609 22.6619 50.8345 22.8883 50.5561 22.8883H38.8784C38.6005 22.8883 38.3741 22.6619 38.3741 22.3835V16.9379C38.3736 15.0122 39.742 13.4068 41.604 13.0823ZM29.6335 2.39699C32.1234 2.39699 34.1495 4.4226 34.1495 6.91302C34.1495 9.40297 32.1234 11.429 29.6335 11.429C27.1431 11.429 25.1174 9.40343 25.1174 6.91302C25.1174 4.4226 27.1431 2.39699 29.6335 2.39699ZM26.5202 13.0823C27.4563 13.5569 28.5138 13.826 29.6335 13.826C30.7532 13.826 31.8101 13.5569 32.7467 13.0823C34.6087 13.4068 35.9771 15.0117 35.9771 16.9379V22.3835C35.9771 22.6619 35.7507 22.8883 35.4723 22.8883H23.7946C23.5162 22.8883 23.2898 22.6619 23.2898 22.3835V16.9379C23.2898 15.0122 24.6582 13.4068 26.5202 13.0823ZM14.5492 2.39699C17.0392 2.39699 19.0652 4.4226 19.0652 6.91302C19.0652 9.40297 17.0392 11.429 14.5492 11.429C12.0593 11.429 10.0332 9.40297 10.0332 6.91302C10.0332 4.4226 12.0593 2.39699 14.5492 2.39699ZM8.20558 16.9379C8.20558 15.0122 9.57396 13.4068 11.436 13.0823C12.3725 13.5569 13.4295 13.826 14.5492 13.826C15.6689 13.826 16.7259 13.5569 17.6625 13.0823C19.5249 13.4068 20.8928 15.0117 20.8928 16.9379V22.3835C20.8928 22.6619 20.6665 22.8883 20.3881 22.8883H8.71036C8.43194 22.8883 8.20558 22.6619 8.20558 22.3835V16.9379Z" fill="white"/>
</svg>
