<svg width="25" height="25" viewBox="0 0 25 25" fill="none" xmlns="http://www.w3.org/2000/svg">
<path d="M18.9333 4.22202C18.6437 4.22202 18.3605 4.3079 18.1198 4.46879C17.879 4.62969 17.6913 4.85838 17.5804 5.12594C17.4696 5.39351 17.4406 5.68792 17.4971 5.97197C17.5536 6.25601 17.6931 6.51692 17.8979 6.7217C18.1026 6.92649 18.3636 7.06595 18.6476 7.12245C18.9316 7.17895 19.2261 7.14995 19.4936 7.03912C19.7612 6.92829 19.9899 6.74061 20.1508 6.49981C20.3117 6.25901 20.3975 5.97591 20.3975 5.6863C20.3975 5.29795 20.2433 4.9255 19.9687 4.6509C19.6941 4.37629 19.3216 4.22202 18.9333 4.22202ZM24.5463 7.17499C24.5226 6.16256 24.333 5.16087 23.985 4.20981C23.6748 3.39608 23.1919 2.65923 22.5696 2.05C21.9653 1.42454 21.2268 0.944678 20.4097 0.646725C19.4612 0.288172 18.4584 0.0942144 17.4446 0.0732141C16.1511 -6.8186e-08 15.7362 0 12.4172 0C9.09816 0 8.68328 -6.8186e-08 7.38983 0.0732141C6.376 0.0942144 5.3732 0.288172 4.42466 0.646725C3.60915 0.947694 2.87122 1.42714 2.26484 2.05C1.63938 2.65423 1.15952 3.39279 0.861569 4.20981C0.503016 5.15836 0.309058 6.16116 0.288058 7.17499C0.214844 8.46844 0.214844 8.88332 0.214844 12.2024C0.214844 15.5214 0.214844 15.9363 0.288058 17.2297C0.309058 18.2436 0.503016 19.2464 0.861569 20.1949C1.15952 21.0119 1.63938 21.7505 2.26484 22.3547C2.87122 22.9776 3.60915 23.457 4.42466 23.758C5.3732 24.1165 6.376 24.3105 7.38983 24.3315C8.68328 24.4047 9.09816 24.4047 12.4172 24.4047C15.7362 24.4047 16.1511 24.4047 17.4446 24.3315C18.4584 24.3105 19.4612 24.1165 20.4097 23.758C21.2268 23.46 21.9653 22.9802 22.5696 22.3547C23.1946 21.7478 23.678 21.0103 23.985 20.1949C24.333 19.2438 24.5226 18.2422 24.5463 17.2297C24.5463 15.9363 24.6196 15.5214 24.6196 12.2024C24.6196 8.88332 24.6196 8.46844 24.5463 7.17499ZM22.3499 17.0833C22.341 17.8579 22.2008 18.6253 21.935 19.3529C21.7402 19.884 21.4273 20.3638 21.0199 20.7562C20.6241 21.1595 20.1452 21.4718 19.6166 21.6714C18.889 21.9371 18.1215 22.0774 17.347 22.0863C16.1267 22.1473 15.6752 22.1595 12.466 22.1595C9.25679 22.1595 8.8053 22.1595 7.58507 22.0863C6.7808 22.1013 5.97996 21.9775 5.21781 21.7202C4.71237 21.5104 4.25548 21.1989 3.87555 20.805C3.47054 20.413 3.16152 19.9328 2.97258 19.4018C2.67466 18.6637 2.50943 17.8788 2.48448 17.0833C2.48448 15.8631 2.41127 15.4116 2.41127 12.2024C2.41127 8.99314 2.41127 8.54165 2.48448 7.32142C2.48995 6.52955 2.63451 5.7448 2.91157 5.00297C3.12638 4.48792 3.45611 4.0288 3.87555 3.66071C4.24628 3.24115 4.70444 2.90794 5.21781 2.68452C5.96161 2.41612 6.74554 2.27584 7.53626 2.26964C8.7565 2.26964 9.20798 2.19642 12.4172 2.19642C15.6264 2.19642 16.0779 2.19642 17.2981 2.26964C18.0727 2.27852 18.8402 2.41881 19.5678 2.68452C20.1223 2.89031 20.62 3.2249 21.0199 3.66071C21.4197 4.03554 21.7322 4.4938 21.935 5.00297C22.2062 5.74601 22.3466 6.53043 22.3499 7.32142C22.4109 8.54165 22.4231 8.99314 22.4231 12.2024C22.4231 15.4116 22.4109 15.8631 22.3499 17.0833ZM12.4172 5.94255C11.1797 5.94496 9.97058 6.31414 8.94277 7.00344C7.91496 7.69275 7.11452 8.67124 6.6426 9.81528C6.17068 10.9593 6.04845 12.2176 6.29137 13.4311C6.53428 14.6445 7.13143 15.7588 8.00736 16.633C8.8833 17.5072 9.99871 18.1022 11.2127 18.3428C12.4266 18.5833 13.6846 18.4586 14.8277 17.9845C15.9709 17.5103 16.9478 16.708 17.6351 15.6789C18.3224 14.6497 18.6892 13.4399 18.6892 12.2024C18.6908 11.3788 18.5296 10.5631 18.2148 9.8021C17.9001 9.0411 17.4379 8.34984 16.855 7.76808C16.2722 7.18633 15.58 6.72555 14.8184 6.41225C14.0568 6.09896 13.2407 5.93933 12.4172 5.94255ZM12.4172 16.2657C11.6135 16.2657 10.8279 16.0274 10.1597 15.5809C9.49149 15.1345 8.97067 14.4998 8.66312 13.7573C8.35558 13.0149 8.27511 12.1979 8.43189 11.4096C8.58868 10.6214 8.97568 9.89739 9.54396 9.32911C10.1122 8.76084 10.8363 8.37384 11.6245 8.21705C12.4127 8.06026 13.2297 8.14073 13.9722 8.44828C14.7147 8.75583 15.3493 9.27664 15.7958 9.94486C16.2423 10.6131 16.4806 11.3987 16.4806 12.2024C16.4806 12.736 16.3755 13.2644 16.1713 13.7573C15.9671 14.2503 15.6678 14.6983 15.2905 15.0756C14.9131 15.4529 14.4652 15.7522 13.9722 15.9564C13.4792 16.1606 12.9508 16.2657 12.4172 16.2657Z" fill="white"/>
</svg>
