<svg width="365" height="488" viewBox="0 0 365 488" fill="none" xmlns="http://www.w3.org/2000/svg">
<path fill-rule="evenodd" clip-rule="evenodd" d="M308.583 0H56.4168C26.675 0 2.56439 24.1106 2.56439 53.8525L2.5644 98.3021C1.14812 98.3021 0 99.4503 0 100.867V123.091C0 124.508 1.14812 125.656 2.5644 125.656V151.3C1.14812 151.3 0 152.448 0 153.864V201.733C0 203.149 1.14812 204.297 2.5644 204.297V217.974C1.14812 217.974 0 219.123 0 220.539V268.408C0 269.824 1.14812 270.972 2.5644 270.972L2.56439 679.567C2.56439 709.309 26.675 733.419 56.4168 733.419H308.583C338.325 733.419 362.436 709.309 362.436 679.567L362.435 253.876C363.852 253.876 365 252.728 365 251.311V170.96C365 169.544 363.852 168.396 362.435 168.396L362.436 53.8525C362.436 24.1106 338.325 0 308.583 0ZM6.83839 53.8525C6.83839 26.471 29.0354 4.274 56.4168 4.274H308.583C335.965 4.274 358.162 26.471 358.162 53.8525V679.567C358.162 706.948 335.965 729.145 308.583 729.145H56.4168C29.0354 729.145 6.83839 706.948 6.83839 679.567V53.8525Z" fill="#AABBCC"/>
<mask id="mask0" mask-type="alpha" maskUnits="userSpaceOnUse" x="18" y="18" width="325" height="703">
<path d="M308.217 720.169H53.3614C34.2688 720.169 18.8047 704.699 18.8047 685.599V52.9489C18.8047 33.8485 34.2688 18.3779 53.3614 18.3779H308.217C327.31 18.3779 342.774 33.8485 342.774 52.9489V685.599C342.774 704.699 327.31 720.169 308.217 720.169Z" fill="white"/>
</mask>
<g mask="url(#mask0)">
<rect x="18.8047" y="18.3779" width="323.97" height="701.792" fill="#FFF9E8"/>
</g>
<path fill-rule="evenodd" clip-rule="evenodd" d="M342.777 53.8529C342.777 34.9618 327.476 19.6608 308.585 19.6608H276.53C273.697 19.6608 271.401 21.9571 271.401 24.7896V27.354C271.401 37.7826 263.024 46.1597 252.595 46.1597H112.408C101.979 46.1597 93.6021 37.7826 93.6021 27.354V24.7896C93.6021 21.9571 91.3059 19.6608 88.4733 19.6608H56.4183C37.5272 19.6608 22.2263 34.9618 22.2263 53.8529V679.567C22.2263 698.458 37.5272 713.759 56.4183 713.759H308.585C327.476 713.759 342.777 698.458 342.777 679.567V53.8529ZM56.4183 4.27441H308.585C335.938 4.27441 358.163 26.4992 358.163 53.8529V679.567C358.163 706.921 335.938 729.146 308.585 729.146H56.4183C29.0647 729.146 6.83984 706.921 6.83984 679.567V53.8529C6.83984 26.4992 29.0647 4.27441 56.4183 4.27441Z" fill="#333333"/>
<g opacity="0.2">
<path d="M226.95 27.3547C226.95 30.6594 224.271 33.3383 220.967 33.3383C217.662 33.3383 214.983 30.6594 214.983 27.3547C214.983 24.05 217.662 21.3711 220.967 21.3711C224.271 21.3711 226.95 24.05 226.95 27.3547Z" fill="white"/>
<path d="M163.268 24.7903C161.851 24.7903 160.703 25.9384 160.703 27.3547C160.703 28.771 161.851 29.9191 163.268 29.9191H200.879C202.295 29.9191 203.443 28.771 203.443 27.3547C203.443 25.9384 202.295 24.7903 200.879 24.7903H163.268Z" fill="white"/>
</g>
</svg>
