<svg width="26" height="25" viewBox="0 0 26 25" fill="none" xmlns="http://www.w3.org/2000/svg">
<path d="M5.79189 24.4047V7.9389H0.322681V24.4047H5.79189ZM3.05799 5.68942C4.9652 5.68942 6.15235 4.42503 6.15235 2.84498C6.11681 1.22929 4.96527 0 3.09418 0C1.22339 0 0 1.22931 0 2.84498C0 4.42511 1.18685 5.68942 3.02229 5.68942H3.05782H3.05799ZM8.81908 24.4047H14.2883V15.2094C14.2883 14.7173 14.3238 14.2257 14.4682 13.8739C14.8636 12.8906 15.7635 11.8723 17.2744 11.8723C19.2534 11.8723 20.0452 13.3822 20.0452 15.5957V24.4046H25.514V14.9633C25.514 9.9056 22.8158 7.55233 19.2174 7.55233C16.267 7.55233 14.9716 9.20262 14.2519 10.3266H14.2884V7.93855H8.8192C8.89098 9.48362 8.8192 24.4044 8.8192 24.4044L8.81908 24.4047Z" fill="white"/>
</svg>
