<svg width="20" height="20" viewBox="0 0 20 20" fill="none" xmlns="http://www.w3.org/2000/svg">
<path d="M10.0731 0.251953C4.85788 0.251953 0.636719 4.52517 0.636719 9.8063C0.636719 15.0867 4.85718 19.3606 10.0731 19.3606C15.2883 19.3606 19.5095 15.0874 19.5095 9.8063C19.5095 4.52588 15.289 0.251953 10.0731 0.251953Z" fill="#F4D067"/>
<path d="M10.0739 5.04785C8.44786 5.04785 7.125 6.38725 7.125 8.03359C7.125 8.44584 7.45505 8.78002 7.86222 8.78002C8.26938 8.78002 8.59944 8.44584 8.59944 8.03359C8.59944 7.21042 9.26087 6.54072 10.0739 6.54072C10.8869 6.54072 11.5483 7.21042 11.5483 8.03359C11.5483 8.85675 10.8869 9.52645 10.0739 9.52645C9.66671 9.52645 9.33665 9.86063 9.33665 10.2729V12.139C9.33665 12.5512 9.66671 12.8854 10.0739 12.8854C10.481 12.8854 10.8111 12.5512 10.8111 12.139V10.9249C12.0815 10.5926 13.0227 9.42229 13.0227 8.03359C13.0227 6.38725 11.6999 5.04785 10.0739 5.04785Z" fill="white"/>
<path d="M10.0739 15.3114C10.5828 15.3114 10.9954 14.8937 10.9954 14.3784C10.9954 13.863 10.5828 13.4453 10.0739 13.4453C9.56492 13.4453 9.15234 13.863 9.15234 14.3784C9.15234 14.8937 9.56492 15.3114 10.0739 15.3114Z" fill="white"/>
</svg>
