<svg width="94" height="16" viewBox="0 0 94 16" fill="none" xmlns="http://www.w3.org/2000/svg">
<g clip-path="url(#clip0)">
<path d="M15.3374 6.36494C15.2372 6.05104 14.9622 5.82809 14.6368 5.7984L10.2177 5.39212L8.47025 1.25093C8.3414 0.947433 8.04796 0.750977 7.72193 0.750977C7.39589 0.750977 7.10245 0.947433 6.9736 1.25164L5.22616 5.39212L0.806315 5.7984C0.481568 5.8288 0.207284 6.05104 0.106472 6.36494C0.00566011 6.67885 0.0987623 7.02315 0.344426 7.24019L3.68477 10.2063L2.69978 14.5994C2.62771 14.9224 2.75153 15.2563 3.01624 15.4501C3.15852 15.5542 3.32498 15.6071 3.49284 15.6071C3.63758 15.6071 3.78115 15.5676 3.90999 15.4896L7.72193 13.1828L11.5325 15.4896C11.8113 15.6594 12.1628 15.6439 12.4269 15.4501C12.6917 15.2557 12.8154 14.9217 12.7434 14.5994L11.7584 10.2063L15.0987 7.24078C15.3444 7.02315 15.4382 6.67944 15.3374 6.36494Z" fill="#FFC107"/>
</g>
<g clip-path="url(#clip1)">
<path d="M34.9741 6.36494C34.8739 6.05104 34.5989 5.82809 34.2736 5.7984L29.8544 5.39212L28.107 1.25093C27.9781 0.947433 27.6847 0.750977 27.3586 0.750977C27.0326 0.750977 26.7392 0.947433 26.6103 1.25164L24.8629 5.39212L20.443 5.7984C20.1183 5.8288 19.844 6.05104 19.7432 6.36494C19.6424 6.67885 19.7355 7.02315 19.9811 7.24019L23.3215 10.2063L22.3365 14.5994C22.2644 14.9224 22.3883 15.2563 22.653 15.4501C22.7952 15.5542 22.9617 15.6071 23.1296 15.6071C23.2743 15.6071 23.4179 15.5676 23.5467 15.4896L27.3586 13.1828L31.1692 15.4896C31.448 15.6594 31.7995 15.6439 32.0636 15.4501C32.3285 15.2557 32.4522 14.9217 32.3801 14.5994L31.3951 10.2063L34.7354 7.24078C34.9811 7.02315 35.0749 6.67944 34.9741 6.36494Z" fill="#FFC107"/>
</g>
<g clip-path="url(#clip2)">
<path d="M54.6108 6.36494C54.5106 6.05104 54.2356 5.82809 53.9103 5.7984L49.4911 5.39212L47.7437 1.25093C47.6148 0.947433 47.3214 0.750977 46.9954 0.750977C46.6693 0.750977 46.3759 0.947433 46.247 1.25164L44.4996 5.39212L40.0798 5.7984C39.755 5.8288 39.4807 6.05104 39.3799 6.36494C39.2791 6.67885 39.3722 7.02315 39.6179 7.24019L42.9582 10.2063L41.9732 14.5994C41.9011 14.9224 42.025 15.2563 42.2897 15.4501C42.432 15.5542 42.5984 15.6071 42.7663 15.6071C42.911 15.6071 43.0546 15.5676 43.1834 15.4896L46.9954 13.1828L50.8059 15.4896C51.0847 15.6594 51.4362 15.6439 51.7004 15.4501C51.9652 15.2557 52.0889 14.9217 52.0168 14.5994L51.0318 10.2063L54.3722 7.24078C54.6178 7.02315 54.7116 6.67944 54.6108 6.36494Z" fill="#FFC107"/>
</g>
<g clip-path="url(#clip3)">
<path d="M74.2436 6.36494C74.1434 6.05104 73.8684 5.82809 73.5431 5.7984L69.1239 5.39212L67.3765 1.25093C67.2477 0.947433 66.9542 0.750977 66.6282 0.750977C66.3021 0.750977 66.0087 0.947433 65.8799 1.25164L64.1324 5.39212L59.7126 5.7984C59.3878 5.8288 59.1135 6.05104 59.0127 6.36494C58.9119 6.67885 59.005 7.02315 59.2507 7.24019L62.591 10.2063L61.606 14.5994C61.534 14.9224 61.6578 15.2563 61.9225 15.4501C62.0648 15.5542 62.2312 15.6071 62.3991 15.6071C62.5438 15.6071 62.6874 15.5676 62.8162 15.4896L66.6282 13.1828L70.4387 15.4896C70.7175 15.6594 71.069 15.6439 71.3332 15.4501C71.598 15.2557 71.7217 14.9217 71.6496 14.5994L70.6646 10.2063L74.005 7.24078C74.2506 7.02315 74.3444 6.67944 74.2436 6.36494Z" fill="#FFC107"/>
</g>
<g clip-path="url(#clip4)">
<path d="M93.8803 6.36494C93.7801 6.05104 93.5051 5.82809 93.1798 5.7984L88.7607 5.39212L87.0132 1.25093C86.8844 0.947433 86.5909 0.750977 86.2649 0.750977C85.9389 0.750977 85.6454 0.947433 85.5166 1.25164L83.7691 5.39212L79.3493 5.7984C79.0245 5.8288 78.7503 6.05104 78.6494 6.36494C78.5486 6.67885 78.6417 7.02315 78.8874 7.24019L82.2277 10.2063L81.2428 14.5994C81.1707 14.9224 81.2945 15.2563 81.5592 15.4501C81.7015 15.5542 81.8679 15.6071 82.0358 15.6071C82.1805 15.6071 82.3241 15.5676 82.453 15.4896L86.2649 13.1828L90.0754 15.4896C90.3543 15.6594 90.7058 15.6439 90.9699 15.4501C91.2347 15.2557 91.3584 14.9217 91.2863 14.5994L90.3013 10.2063L93.6417 7.24078C93.8874 7.02315 93.9812 6.67944 93.8803 6.36494Z" fill="#C5C7CD"/>
</g>
<defs>
<clipPath id="clip0">
<rect width="15.3109" height="15.5023" fill="white" transform="translate(0.0664062 0.418945)"/>
</clipPath>
<clipPath id="clip1">
<rect width="15.3109" height="15.5023" fill="white" transform="translate(19.7031 0.418945)"/>
</clipPath>
<clipPath id="clip2">
<rect width="15.3109" height="15.5023" fill="white" transform="translate(39.3398 0.418945)"/>
</clipPath>
<clipPath id="clip3">
<rect width="15.3109" height="15.5023" fill="white" transform="translate(58.9727 0.418945)"/>
</clipPath>
<clipPath id="clip4">
<rect width="15.3109" height="15.5023" fill="white" transform="translate(78.6094 0.418945)"/>
</clipPath>
</defs>
</svg>
