<svg width="545" height="493" viewBox="0 0 545 493" fill="none" xmlns="http://www.w3.org/2000/svg">
<path d="M189.266 490.554H401.1" stroke="#FFCF2D" stroke-width="3" stroke-miterlimit="10" stroke-linecap="round"/>
<path d="M295.109 303.091V386.105C295.109 411.662 308.349 435.391 330.092 448.804L360.692 467.683" stroke="#66B0F0" stroke-width="6" stroke-miterlimit="10" stroke-linecap="round" stroke-linejoin="round"/>
<path d="M278.532 303.091V386.105C278.532 411.662 265.293 435.391 243.55 448.804L212.949 467.683" stroke="#66B0F0" stroke-width="6" stroke-miterlimit="10" stroke-linecap="round" stroke-linejoin="round"/>
<path d="M267.401 303.091H304.714C308.015 303.091 310.681 300.423 310.681 297.121V287.7H261.434V297.121C261.434 300.423 264.1 303.091 267.401 303.091Z" fill="white" stroke="#66B0F0" stroke-width="6" stroke-miterlimit="10"/>
<path d="M362.073 490.554C354.502 490.554 348.367 484.416 348.367 476.842C348.367 469.268 354.502 463.131 362.073 463.131C369.644 463.131 375.779 469.268 375.779 476.842C375.779 484.416 369.644 490.554 362.073 490.554Z" fill="white" stroke="#FFCF2D" stroke-width="2" stroke-miterlimit="10"/>
<path d="M212.651 490.554C205.08 490.554 198.945 484.416 198.945 476.842C198.945 469.268 205.08 463.131 212.651 463.131C220.222 463.131 226.357 469.268 226.357 476.842C226.357 484.416 220.222 490.554 212.651 490.554Z" fill="white" stroke="#FFCF2D" stroke-width="2" stroke-miterlimit="10"/>
<path d="M212.651 487.662C206.684 487.662 201.836 482.812 201.836 476.842C201.836 470.873 206.684 466.022 212.651 466.022C218.619 466.022 223.467 470.873 223.467 476.842C223.467 482.812 218.619 487.662 212.651 487.662Z" fill="white" stroke="#FFCF2D" stroke-width="2" stroke-miterlimit="10"/>
<path d="M362.019 487.662C356.051 487.662 351.203 482.812 351.203 476.842C351.203 470.873 356.051 466.022 362.019 466.022C367.986 466.022 372.834 470.873 372.834 476.842C372.834 482.812 367.986 487.662 362.019 487.662Z" fill="white" stroke="#FFCF2D" stroke-width="2" stroke-miterlimit="10"/>
<path d="M266.672 426.213C266.672 426.213 284.424 413.192 307.006 426.213" stroke="#66B0F0" stroke-width="6" stroke-miterlimit="10" stroke-linecap="round" stroke-linejoin="round"/>
<path d="M294.679 280.257L277.523 455.855H330.389L373.856 297.848C381.856 272.067 364.644 245.838 337.848 245.782H334.118C314.277 245.726 297.458 260.445 294.679 280.257Z" fill="#444444"/>
<path d="M287.853 455.855H315.713L311.33 470.201C305.829 464.717 298.165 460.762 289.793 460.258C289.01 460.202 288.245 460.183 287.48 460.183L287.853 455.855Z" fill="#E57281"/>
<path d="M319.815 490.441C321.27 476.935 307.023 461.302 289.774 460.239C272.525 459.175 261.878 470.574 261.039 484.117C260.908 486.169 260.722 488.669 261.169 490.497L319.815 490.441Z" fill="white" stroke="#FE5244" stroke-width="3" stroke-miterlimit="10"/>
<path d="M261.543 485.535L319.816 486.225" stroke="#FE5244" stroke-width="3" stroke-miterlimit="10"/>
<path d="M309.709 455.855L353.811 428.992L255.203 263.729C242.728 243.936 211.065 237.817 191.093 249.98C168.064 264.008 163.551 295.554 181.714 315.477L309.709 455.855Z" fill="#444444"/>
<path d="M309.897 455.109L354.185 428.619L255.391 263.729C242.915 243.936 211.252 237.817 191.281 249.98C168.251 264.008 163.738 295.554 181.901 315.477L309.897 455.109Z" stroke="white" stroke-width="3" stroke-miterlimit="10"/>
<path d="M353.122 427.817C351.164 424.571 339.696 427.873 327.5 435.223C315.305 442.555 307.044 451.397 309.002 454.643C310.96 457.889 322.391 454.326 334.586 446.994C346.763 439.663 355.061 431.082 353.122 427.817Z" fill="#73325A"/>
<path d="M350.436 448.822L329.849 461.768L324.031 455.239L322.259 453.243L314.875 444.96C318.045 441.714 322.39 438.282 327.518 435.223C331.658 432.741 335.741 430.764 339.434 429.421L345.196 439.55L346.464 441.77L350.436 448.822Z" fill="#E57281"/>
<path d="M382.92 462.87L331.639 490.535C330.353 489.154 329.253 487.531 328.376 485.684C327.63 484.136 327.052 482.513 326.605 480.871C323.584 469.529 327.854 456.527 341.485 450.035C353.513 444.308 368.487 447.591 377.139 455.128C379.694 457.385 381.708 460.015 382.92 462.87Z" fill="white" stroke="#FE5244" stroke-width="3" stroke-miterlimit="10"/>
<path d="M380.178 458.672L328.879 486.337" stroke="#FE5244" stroke-width="3" stroke-miterlimit="10" stroke-linecap="round"/>
<path d="M345.158 439.532C342.212 441.994 338.595 444.569 334.548 446.994C330.222 449.606 325.97 451.732 322.222 453.243L314.465 444.96C317.635 441.714 322.353 438.282 327.481 435.223C331.62 432.741 335.704 430.578 339.396 429.234L345.158 439.532Z" fill="#9A3B82"/>
<path d="M351.983 424.944C350.025 421.698 337.643 424.925 325.243 432.387C312.842 439.849 304.973 448.599 306.931 451.845" stroke="white" stroke-width="6" stroke-miterlimit="10"/>
<path d="M523.65 287.7C528.517 287.7 532.471 283.745 532.471 278.876V245.111C532.471 240.242 528.517 236.287 523.65 236.287H33.1484C28.2814 236.287 24.3281 240.242 24.3281 245.111V278.876C24.3281 283.745 28.2814 287.7 33.1484 287.7H523.65Z" fill="#F77D27"/>
<path d="M523.503 228.639H33.2812C28.4142 228.639 24.4609 232.594 24.4609 237.462V271.228C24.4609 276.097 28.4142 280.052 33.2812 280.052H523.503C528.37 280.052 532.324 276.097 532.324 271.228V237.462C532.324 232.594 528.37 228.639 523.503 228.639Z" fill="white" stroke="#FFCF2D" stroke-width="3" stroke-miterlimit="10"/>
<path d="M497.973 280.089V490.628" stroke="#FFCF2D" stroke-width="3" stroke-miterlimit="10" stroke-linecap="round"/>
<path d="M70.0312 280.089V490.628" stroke="#FFCF2D" stroke-width="3" stroke-miterlimit="10" stroke-linecap="round"/>
<path d="M53.9227 438.226L53.1395 438.729L24.6835 394.872L16.1243 395.525C14.2969 395.674 12.8424 394.014 13.2153 392.204C13.6069 390.413 15.6022 389.48 17.2245 390.376L24.2546 394.237L19.0893 386.253L10.5301 386.925C8.70266 387.074 7.24816 385.395 7.63975 383.604C8.03135 381.813 10.0266 380.881 11.649 381.776L18.679 385.619L13.5137 377.635L4.95454 378.306C3.12709 378.455 1.67258 376.776 2.06418 374.986C2.45577 373.195 4.45106 372.262 6.07339 373.157L13.1035 377.019L9.98935 372.225L4.20864 367.281C2.81009 366.087 2.95927 363.886 4.48836 362.879C6.03609 361.871 8.10595 362.636 8.62808 364.408L10.7725 371.702L13.9799 376.646L13.3086 368.438C13.1594 366.61 14.819 365.154 16.6092 365.528C18.3993 365.901 19.3317 367.915 18.4553 369.52L14.3155 377.168L19.5555 385.246L18.8842 377.056C18.735 375.228 20.3946 373.773 22.1847 374.146C23.9749 374.519 24.9073 376.534 24.0308 378.138L19.8911 385.787L25.1311 393.864L24.4597 385.675C24.3106 383.847 25.9702 382.373 27.7603 382.765C29.5505 383.138 30.4829 385.152 29.6064 386.757L25.4667 394.405L53.9227 438.226Z" fill="#F77D27"/>
<path d="M101.734 422.724C88.0651 450.277 69.6041 469.436 58.6954 468.111C57.8003 467.999 56.9612 467.757 56.178 467.365C45.81 462.216 49.3903 433.879 64.1964 404.069C70.5365 391.29 77.9022 380.34 85.0629 372.374C94.629 361.76 103.822 356.48 109.752 359.428C120.12 364.576 116.521 392.913 101.734 422.724Z" fill="#F77D27"/>
<path d="M84.6162 400.953C81.5766 435.875 70.4068 464.044 58.7149 468.111C57.8198 467.999 56.9807 467.756 56.1975 467.365C45.8295 462.216 49.4098 433.879 64.2159 404.069C70.556 391.29 77.9217 380.34 85.0824 372.374C85.6045 381.16 85.4926 390.842 84.6162 400.953Z" fill="#FFCF2D"/>
<path d="M109.753 359.428L58.7148 468.111" stroke="#FFCF2D" stroke-width="3" stroke-miterlimit="10"/>
<path d="M108.781 440.016L101.565 442.441L96.7539 445.818L104.921 444.848C106.749 444.624 108.259 446.228 107.961 448.038C107.644 449.847 105.686 450.855 104.026 450.034L96.2318 446.172L88.3439 451.713L96.5115 450.743C98.3389 450.519 99.8494 452.123 99.551 453.933C99.234 455.742 97.276 456.749 95.6164 455.929L87.8218 452.067L79.9526 457.608L88.1201 456.638C89.9476 456.414 91.458 458.018 91.141 459.828C90.824 461.637 88.866 462.644 87.2064 461.824L79.4118 457.962L64.9973 468.092H63.375L78.9083 457.178L77.9386 448.653C77.7335 446.825 79.3372 445.314 81.146 445.631C82.9548 445.948 83.9431 447.926 83.1226 449.567L79.5237 456.749L87.2997 451.284L86.33 442.758C86.1249 440.93 87.7285 439.419 89.5373 439.736C91.3461 440.053 92.3345 442.031 91.514 443.672L87.9337 450.836L95.7096 445.37L94.74 436.845C94.5349 435.016 96.1385 433.505 97.9473 433.823C99.7561 434.14 100.744 436.117 99.924 437.759L96.325 444.941L101.006 441.658L105.723 435.688C106.861 434.252 109.08 434.308 110.124 435.819C111.224 437.33 110.534 439.438 108.781 440.016Z" fill="#FFCF2D"/>
<path d="M50.2875 466.655C49.3552 466.972 48.3668 467.196 47.3599 467.327C35.612 468.856 19.3887 457.887 9.58014 441.228C-1.06755 423.133 -0.0978899 405.187 11.7432 401.12C15.5846 399.796 20.116 400.113 24.8151 401.755C34.6237 405.169 45.2527 414.31 52.4506 426.528C63.0797 444.642 62.11 462.588 50.2875 466.655Z" fill="white" stroke="#FFCF2D" stroke-width="3" stroke-miterlimit="10"/>
<path d="M50.2866 466.655C49.3542 466.972 48.3659 467.196 47.3589 467.327C36.5061 462.402 27.0705 441.546 25.0752 416.212C24.6836 411.213 24.6091 406.363 24.8142 401.755C34.6227 405.169 45.2517 414.31 52.4497 426.529C63.0787 444.642 62.109 462.588 50.2866 466.655Z" fill="#FFCF2D"/>
<path d="M7.25 403.751L47.342 467.327" stroke="#FFCF2D" stroke-width="3" stroke-miterlimit="10"/>
<path d="M55.0622 468.857C68.0385 468.857 78.5579 437.545 78.5579 398.92C78.5579 360.294 68.0385 328.982 55.0622 328.982C42.0858 328.982 31.5664 360.294 31.5664 398.92C31.5664 437.545 42.0858 468.857 55.0622 468.857Z" fill="white" stroke="#FFCF2D" stroke-width="3" stroke-miterlimit="10"/>
<path d="M55.0625 328.964V468.857" stroke="#FFCF2D" stroke-width="3" stroke-miterlimit="10"/>
<path d="M70.0361 345.734L55.0622 365.807L42.3633 340.66" stroke="#FFCF2D" stroke-width="6" stroke-miterlimit="10" stroke-linecap="round"/>
<path d="M74.9037 362.748L54.9136 390.245L36.9375 355.454" stroke="#FFCF2D" stroke-width="3" stroke-miterlimit="10" stroke-linecap="round"/>
<path d="M78.0166 382.373L54.7259 414.497L33.4492 373.456" stroke="#FFCF2D" stroke-width="3" stroke-miterlimit="10" stroke-linecap="round"/>
<path d="M79.4704 408.564L54.8371 443.038L31.6211 398.976" stroke="#FFCF2D" stroke-width="3" stroke-miterlimit="10" stroke-linecap="round"/>
<path d="M89.8942 490.627H20.1715C14.801 490.627 10.4375 486.262 10.4375 480.889V477.848C10.4375 472.476 14.801 468.11 20.1715 468.11H89.8942C95.2647 468.11 99.6282 472.476 99.6282 477.848V480.889C99.6282 486.28 95.2647 490.627 89.8942 490.627Z" fill="white" stroke="#66B0F0" stroke-width="3" stroke-miterlimit="10"/>
<path d="M500.361 248.245C500.361 251.024 498.142 253.282 495.42 253.282H419.469C416.728 253.282 414.527 251.024 414.527 248.245C414.527 245.465 416.746 243.208 419.469 243.208H495.42C498.142 243.208 500.361 245.465 500.361 248.245Z" fill="#FE5244"/>
<path d="M468.308 195.787H437.223V217.427H497.267C493.463 204.592 481.678 195.787 468.308 195.787Z" fill="white" stroke="#FFCF2D" stroke-width="6" stroke-miterlimit="10"/>
<path d="M442.816 195.787V217.427L429.949 217.445V195.787H442.816Z" fill="#FFCF2D" stroke="#FFCF2D" stroke-width="6" stroke-miterlimit="10"/>
<path d="M544.873 216.998L497.266 217.427C497.266 217.427 509.182 201.272 541.889 205.544C541.889 205.544 516.305 200.209 490.348 205.544" stroke="#FFCF2D" stroke-width="3" stroke-miterlimit="10"/>
<path d="M497.266 217.427C497.266 217.427 518.132 205.955 543.567 211.514" stroke="#FFCF2D" stroke-width="3" stroke-miterlimit="10"/>
<path d="M502.581 235.131C502.581 237.164 502.898 239.011 503.402 240.373H480.559C479.384 240.373 478.414 239.347 478.414 238.097V232.183C478.414 230.915 479.365 229.907 480.559 229.907H503.402C502.898 231.25 502.581 233.097 502.581 235.131Z" fill="#FFCF2D"/>
<path d="M478.434 232.183V238.097C478.434 239.365 479.46 240.372 480.709 240.372H505.249V240.802C505.249 241.846 504.41 242.686 503.366 242.686H417.532C416.488 242.686 415.648 241.846 415.648 240.802V229.459C415.648 228.415 416.488 227.575 417.532 227.575H503.366C504.41 227.575 505.249 228.415 505.249 229.459V229.888H480.709C479.46 229.907 478.434 230.914 478.434 232.183Z" fill="white"/>
<path d="M478.434 232.183V238.097C478.434 239.365 479.46 240.372 480.709 240.372H505.249V240.802C505.249 241.846 504.41 242.686 503.366 242.686H417.532C416.488 242.686 415.648 241.846 415.648 240.802V229.459C415.648 228.415 416.488 227.575 417.532 227.575H503.366C504.41 227.575 505.249 228.415 505.249 229.459V229.888H480.709C479.46 229.907 478.434 230.914 478.434 232.183Z" stroke="#FFCF2D" stroke-width="6" stroke-miterlimit="10"/>
<path d="M446.45 257.33C445.555 258.169 444.995 259.699 444.995 260.986C444.995 263.542 447.233 266.172 449.993 266.172H518.764C518.764 267.366 517.795 268.354 516.583 268.354H433.583C431.364 268.354 429.35 267.515 427.896 266.172C426.441 264.829 425.527 262.963 425.527 260.893C425.527 256.77 429.126 253.431 433.583 253.431H516.583C517.776 253.431 518.764 254.401 518.764 255.613V256.005H449.993C448.594 255.986 447.345 256.509 446.45 257.33Z" fill="#FFCF2D"/>
<path d="M513.786 255.987V265.986H518.746V266.825H449.751C448.986 266.825 448.24 266.676 447.569 266.396C446.842 266.098 446.17 265.669 445.63 265.109C444.567 264.046 443.914 262.591 443.914 260.986C443.914 257.759 446.525 255.147 449.751 255.147H518.746V255.987H513.786Z" fill="#FE5244"/>
<path d="M515.707 255.986V265.985H449.994C447.234 265.985 444.996 263.747 444.996 260.986C444.996 259.605 445.555 258.355 446.451 257.441C447.346 256.546 448.595 255.986 449.975 255.986H515.707Z" fill="white"/>
<path d="M515.707 255.986V265.985" stroke="#FE5244" stroke-width="5" stroke-miterlimit="10"/>
<path d="M459.147 263.076V271.414H453.385V264.139C453.385 262.404 451.986 260.986 450.234 260.986H447.66V259.923H455.996C457.748 259.923 459.147 261.341 459.147 263.076Z" fill="#FE5244"/>
<path d="M519.026 217.894H421.052C418.516 217.894 416.465 219.946 416.465 222.483C416.483 225.001 418.516 227.053 421.052 227.053H519.026C521.562 227.053 523.613 225.001 523.613 222.464C523.594 219.946 521.543 217.894 519.026 217.894Z" fill="#66B0F0"/>
<path d="M496.797 227.072H495.809C495.92 227.37 496.2 228.116 496.816 228.116C497.188 228.116 499.016 227.836 499.016 222.483C499.016 220.58 498.792 219.125 498.345 218.136C497.804 216.961 497.095 216.83 496.834 216.83C496.2 216.83 495.92 217.595 495.809 217.893H496.797C496.834 217.819 496.871 217.781 496.89 217.763C497.226 217.856 498.121 218.789 498.121 222.483C498.121 226.176 497.226 227.09 496.89 227.202C496.853 227.165 496.816 227.128 496.797 227.072Z" fill="#9A3B82"/>
<path d="M504.891 227.072H503.902C504.014 227.37 504.294 228.116 504.909 228.116C505.282 228.116 507.11 227.836 507.11 222.483C507.11 220.58 506.886 219.125 506.438 218.136C505.898 216.961 505.189 216.83 504.928 216.83C504.294 216.83 504.014 217.595 503.902 217.893H504.891C504.928 217.819 504.965 217.781 504.984 217.763C505.32 217.856 506.215 218.789 506.215 222.483C506.215 226.176 505.32 227.09 504.984 227.202C504.965 227.165 504.928 227.128 504.891 227.072Z" fill="#9A3B82"/>
<path d="M513.003 227.072H512.015C512.127 227.37 512.406 228.116 513.022 228.116C513.544 228.116 515.222 227.706 515.222 222.482C515.222 217.24 513.544 216.849 513.022 216.849C512.388 216.849 512.108 217.613 511.996 217.912H512.984C513.022 217.837 513.059 217.8 513.078 217.781C513.451 217.875 514.308 218.845 514.308 222.501C514.308 224.74 513.991 225.896 513.712 226.493C513.488 226.978 513.245 227.183 513.078 227.221C513.059 227.165 513.04 227.127 513.003 227.072Z" fill="#9A3B82"/>
<path d="M472.464 227.072H471.476C471.588 227.37 471.867 228.116 472.483 228.116C472.856 228.116 474.683 227.836 474.683 222.482C474.683 217.24 473.005 216.849 472.483 216.849C471.849 216.849 471.569 217.613 471.457 217.912H472.445C472.483 217.837 472.52 217.8 472.539 217.781C472.912 217.875 473.769 218.845 473.769 222.501C473.769 226.195 472.874 227.109 472.539 227.221C472.539 227.165 472.501 227.127 472.464 227.072Z" fill="#9A3B82"/>
<path d="M480.577 227.072H479.589C479.701 227.37 479.981 228.116 480.596 228.116C480.95 228.116 481.603 227.967 482.106 226.922C482.554 225.971 482.796 224.478 482.796 222.482C482.796 220.486 482.573 218.994 482.106 218.043C481.603 216.998 480.95 216.849 480.596 216.849C479.962 216.849 479.682 217.613 479.57 217.912H480.559C480.596 217.837 480.633 217.8 480.652 217.781C480.876 217.819 481.099 218.061 481.286 218.453C481.547 219.013 481.883 220.169 481.883 222.501C481.883 224.814 481.566 225.971 481.286 226.549C481.099 226.941 480.857 227.183 480.652 227.221C480.633 227.165 480.615 227.127 480.577 227.072Z" fill="#9A3B82"/>
<path d="M488.687 227.072H487.698C487.81 227.37 488.09 228.116 488.705 228.116C489.227 228.116 490.906 227.706 490.906 222.482C490.906 217.11 489.078 216.849 488.705 216.849C488.071 216.849 487.792 217.613 487.68 217.912H488.668C488.705 217.837 488.743 217.8 488.761 217.781C489.097 217.875 489.992 218.807 489.992 222.501C489.992 226.157 489.134 227.127 488.761 227.221C488.743 227.165 488.724 227.127 488.687 227.072Z" fill="#9A3B82"/>
<path d="M448.147 227.072H447.158C447.27 227.37 447.55 228.116 448.165 228.116C448.445 228.116 449.154 227.986 449.676 226.811C450.123 225.84 450.347 224.367 450.347 222.464C450.347 220.71 450.105 219.237 449.676 218.229C449.284 217.334 448.725 216.812 448.147 216.812C447.513 216.812 447.233 217.576 447.121 217.875H448.109C448.147 217.819 448.165 217.763 448.184 217.744C448.296 217.8 448.557 218.005 448.818 218.602C449.098 219.218 449.415 220.393 449.415 222.445C449.415 226.139 448.52 227.053 448.184 227.165C448.203 227.165 448.184 227.128 448.147 227.072Z" fill="#9A3B82"/>
<path d="M456.26 227.072H455.272C455.384 227.37 455.663 228.116 456.279 228.116C456.558 228.116 457.267 227.986 457.789 226.81C458.237 225.84 458.46 224.367 458.46 222.464C458.46 217.222 456.782 216.83 456.26 216.83C455.626 216.83 455.346 217.595 455.234 217.893H456.223C456.26 217.819 456.297 217.781 456.316 217.763C456.689 217.856 457.547 218.826 457.547 222.483C457.547 226.176 456.652 227.09 456.316 227.202C456.316 227.165 456.297 227.128 456.26 227.072Z" fill="#9A3B82"/>
<path d="M464.37 227.072H463.382C463.494 227.37 463.774 228.116 464.389 228.116C464.911 228.116 466.589 227.706 466.589 222.482C466.589 220.486 466.366 218.994 465.899 218.043C465.396 216.998 464.743 216.849 464.389 216.849C463.755 216.849 463.475 217.613 463.363 217.912H464.352C464.389 217.837 464.426 217.8 464.445 217.781C464.669 217.819 464.892 218.061 465.079 218.453C465.34 219.013 465.676 220.169 465.676 222.501C465.676 226.157 464.818 227.127 464.445 227.221C464.426 227.165 464.389 227.127 464.37 227.072Z" fill="#9A3B82"/>
<path d="M423.831 227.072H422.843C422.955 227.37 423.234 228.116 423.85 228.116C424.428 228.116 424.969 227.594 425.379 226.699C425.826 225.691 426.05 224.236 426.05 222.464C426.05 220.393 425.677 219.087 425.379 218.36C424.969 217.39 424.409 216.83 423.85 216.83C423.216 216.83 422.936 217.595 422.824 217.893H423.813C423.85 217.837 423.868 217.8 423.887 217.763C424.018 217.837 424.297 218.099 424.558 218.807C424.819 219.46 425.118 220.617 425.118 222.464C425.118 224.535 424.801 225.691 424.521 226.325C424.26 226.922 423.999 227.128 423.887 227.184C423.887 227.165 423.85 227.128 423.831 227.072Z" fill="#9A3B82"/>
<path d="M431.925 227.072H430.937C431.048 227.37 431.328 228.116 431.944 228.116C432.522 228.116 433.063 227.594 433.473 226.699C433.92 225.691 434.144 224.236 434.144 222.464C434.144 218.807 433.007 216.83 431.944 216.83C431.31 216.83 431.03 217.595 430.918 217.893H431.906C431.944 217.837 431.962 217.8 431.981 217.763C432.111 217.837 432.372 218.099 432.652 218.77C432.913 219.404 433.212 220.58 433.212 222.464C433.212 224.535 432.895 225.691 432.615 226.325C432.354 226.922 432.093 227.128 431.981 227.184C431.981 227.165 431.962 227.128 431.925 227.072Z" fill="#9A3B82"/>
<path d="M440.034 227.072H439.046C439.158 227.37 439.438 228.116 440.053 228.116C440.333 228.116 441.023 227.986 441.582 226.736C442.03 225.728 442.253 224.292 442.253 222.483C442.253 220.729 442.011 219.255 441.582 218.248C441.19 217.352 440.631 216.83 440.053 216.83C439.419 216.83 439.139 217.595 439.027 217.893H440.016C440.053 217.837 440.072 217.781 440.09 217.763C440.202 217.819 440.463 218.024 440.724 218.621C441.004 219.237 441.321 220.412 441.321 222.464C441.321 224.572 441.004 225.728 440.724 226.344C440.463 226.922 440.202 227.128 440.09 227.165C440.09 227.165 440.072 227.128 440.034 227.072Z" fill="#9A3B82"/>
<path d="M484.421 86.7676H419.043C415.257 86.7676 412.199 83.7082 412.199 79.9213V14.5172C412.199 10.7303 415.257 7.6709 419.043 7.6709H484.421C488.206 7.6709 491.264 10.7303 491.264 14.5172V79.9213C491.264 83.7082 488.188 86.7676 484.421 86.7676Z" fill="#FFCF2D"/>
<path d="M479.645 82.3839H412.98C409.195 82.3839 406.137 79.3245 406.137 75.5376V8.84635C406.137 5.0594 409.195 2 412.98 2H479.645C483.43 2 486.488 5.0594 486.488 8.84635V75.5376C486.488 79.3245 483.43 82.3839 479.645 82.3839Z" fill="white" stroke="#FFCF2D" stroke-width="3" stroke-miterlimit="10"/>
<path d="M446.323 72.9625C463.316 72.9625 477.091 59.1816 477.091 42.1819C477.091 25.1823 463.316 11.4014 446.323 11.4014C429.33 11.4014 415.555 25.1823 415.555 42.1819C415.555 59.1816 429.33 72.9625 446.323 72.9625Z" stroke="#FFCF2D" stroke-width="3" stroke-miterlimit="10"/>
<path d="M429.016 28.9756L446.32 42.1833L442.069 29.1435" stroke="#FFCF2D" stroke-width="3" stroke-miterlimit="10" stroke-linecap="round"/>
<path d="M391.534 280.051H338.818L316.684 253.449H368.132L391.534 280.051Z" fill="#FFCF2D"/>
<path d="M420.082 281.431V297.848L378.312 298.016C372.96 298.034 368.615 293.706 368.615 288.352V283.259C368.615 279.864 367.366 276.6 365.128 274.081L351.348 258.598H402.796L415.961 271.6C418.609 274.193 420.082 277.719 420.082 281.431Z" fill="white" stroke="#66B0F0" stroke-width="6" stroke-miterlimit="10"/>
<path d="M438.88 292.064C437.109 295.609 433.454 298.034 429.221 298.034H377.754C381.968 298.034 385.623 295.609 387.413 292.064H438.88Z" fill="white" stroke="#66B0F0" stroke-width="6" stroke-miterlimit="10"/>
<path d="M406.973 189.818L375.571 134.636C368.075 121.447 354.071 113.314 338.91 113.314H221.301L225.422 104.415C225.087 105.143 223.315 105.329 220.611 104.956C216.471 104.397 210.169 102.587 203.455 99.6024C199.614 97.9048 196.127 96.1326 193.237 94.491C187.773 91.3756 184.472 88.652 185.013 87.4395L124.968 185.956C111.785 205.189 125.547 231.325 148.856 231.325C151.989 231.325 155.084 230.821 158.03 229.832C160.977 228.844 163.755 227.388 166.254 225.504L212.369 190.825C215.147 188.736 219.119 190.359 219.679 193.772L225.702 231.325H382.825C404.139 231.343 417.509 208.323 406.973 189.818ZM337.083 194.127L342.118 182.673C342.976 180.714 345.735 180.677 346.63 182.617L352.094 194.145H337.083V194.127Z" fill="#FE5244"/>
<path d="M240.023 113.276C240.023 103.631 259.92 91.711 284.05 88.6702C320.245 84.1371 328.077 103.631 328.077 113.276" stroke="#FE5244" stroke-width="6" stroke-miterlimit="10"/>
<path d="M323.898 113.444C323.898 122.082 284.049 139.766 284.049 139.766C284.049 139.766 244.199 122.082 244.199 113.444C244.199 104.807 263.145 94.8082 284.981 92.1405C316.402 88.2976 323.898 104.789 323.898 113.444Z" fill="#FE5244"/>
<path d="M323.898 113.444C323.898 122.081 284.049 139.766 284.049 139.766C284.049 139.766 244.199 122.081 244.199 113.444C244.199 113.407 244.199 113.369 244.199 113.332H323.898C323.898 113.351 323.898 113.388 323.898 113.444Z" fill="white"/>
<path d="M328.059 113.258C328.059 122.79 284.051 144.467 284.051 144.467C284.051 144.467 240.043 122.809 240.043 113.258" stroke="white" stroke-width="3" stroke-miterlimit="10"/>
<path d="M318.008 230.914C320.469 230.914 322.465 222.762 322.465 212.726C322.465 202.689 320.469 194.537 318.008 194.537" stroke="white" stroke-width="5" stroke-miterlimit="10" stroke-linecap="round"/>
<path d="M224.509 108.071L189.992 177.113" stroke="white" stroke-width="3" stroke-miterlimit="10"/>
<path d="M217.012 175.527L222.718 213.098" stroke="white" stroke-width="3" stroke-miterlimit="10" stroke-linecap="round"/>
<path d="M282.184 148.889H285.913" stroke="white" stroke-width="3" stroke-miterlimit="10" stroke-linecap="round"/>
<path d="M282.184 153.328H285.913" stroke="white" stroke-width="3" stroke-miterlimit="10" stroke-linecap="round"/>
<path d="M282.184 157.75H285.913" stroke="white" stroke-width="3" stroke-miterlimit="10" stroke-linecap="round"/>
<path d="M282.184 162.171H285.913" stroke="white" stroke-width="3" stroke-miterlimit="10" stroke-linecap="round"/>
<path d="M282.184 166.592H285.913" stroke="white" stroke-width="3" stroke-miterlimit="10" stroke-linecap="round"/>
<path d="M282.184 171.032H285.913" stroke="white" stroke-width="3" stroke-miterlimit="10" stroke-linecap="round"/>
<path d="M282.184 171.237H285.913" stroke="white" stroke-width="3" stroke-miterlimit="10" stroke-linecap="round"/>
<path d="M282.184 175.658H285.913" stroke="white" stroke-width="3" stroke-miterlimit="10" stroke-linecap="round"/>
<path d="M282.184 180.079H285.913" stroke="white" stroke-width="3" stroke-miterlimit="10" stroke-linecap="round"/>
<path d="M282.184 184.296H285.913" stroke="white" stroke-width="3" stroke-miterlimit="10" stroke-linecap="round"/>
<path d="M282.184 188.735H285.913" stroke="white" stroke-width="3" stroke-miterlimit="10" stroke-linecap="round"/>
<path d="M282.184 193.157H285.913" stroke="white" stroke-width="3" stroke-miterlimit="10" stroke-linecap="round"/>
<path d="M282.184 197.578H285.913" stroke="white" stroke-width="3" stroke-miterlimit="10" stroke-linecap="round"/>
<path d="M282.184 201.999H285.913" stroke="white" stroke-width="5" stroke-miterlimit="10" stroke-linecap="round"/>
<path d="M282.184 206.439H285.913" stroke="white" stroke-width="5" stroke-miterlimit="10" stroke-linecap="round"/>
<path d="M282.184 210.86H285.913" stroke="white" stroke-width="5" stroke-miterlimit="10" stroke-linecap="round"/>
<path d="M282.184 215.281H285.913" stroke="white" stroke-width="5" stroke-miterlimit="10" stroke-linecap="round"/>
<path d="M282.184 219.702H285.913" stroke="white" stroke-width="5" stroke-miterlimit="10" stroke-linecap="round"/>
<path d="M282.184 219.927H285.913" stroke="white" stroke-width="5" stroke-miterlimit="10" stroke-linecap="round"/>
<path d="M282.184 224.348H285.913" stroke="white" stroke-width="5" stroke-miterlimit="10" stroke-linecap="round"/>
<path d="M282.184 228.769H285.913" stroke="white" stroke-width="5" stroke-miterlimit="10" stroke-linecap="round"/>
<path d="M281.793 142.863V213.099" stroke="white" stroke-width="3" stroke-miterlimit="10"/>
<path d="M315.844 194.5H360.691" stroke="white" stroke-width="5" stroke-miterlimit="10" stroke-linecap="round"/>
<path d="M191.055 267.908H334.248L320.785 231.475H206.569L191.055 267.908Z" fill="white" stroke="#66B0F0" stroke-width="4" stroke-miterlimit="10"/>
<path d="M191.055 267.907C191.055 262.758 204.705 253.45 226.876 252.181C250.615 250.838 263.052 265.762 262.698 267.907H191.055Z" fill="#66B0F0"/>
<path d="M262.681 267.907C262.681 267.907 256.378 238.432 201.051 244.439L213.004 215.356C213.004 215.356 258.317 207.111 262.699 231.474L262.681 267.907Z" fill="white" stroke="#66B0F0" stroke-width="4" stroke-miterlimit="10" stroke-linejoin="round"/>
<path d="M333.409 265.612C330.109 261.042 317.391 256.266 298.445 255.184C275.919 253.897 263.575 264.605 262.68 267.515V231.474C262.68 231.474 278.754 213.117 320.785 231.474L333.409 265.612Z" fill="white" stroke="#66B0F0" stroke-width="6" stroke-miterlimit="10" stroke-linejoin="round"/>
<path d="M314.071 250.539C309.372 249.345 303.684 248.45 297.195 248.077C293.969 247.89 290.967 247.983 288.207 248.282C281.363 249.047 275.974 251.099 272.133 253.3" stroke="#66B0F0" stroke-width="4" stroke-miterlimit="10" stroke-linecap="round" stroke-linejoin="round"/>
<path d="M312.411 244.327C307.917 243.264 302.565 242.461 296.523 242.107C293.297 241.92 290.295 242.014 287.535 242.312C280.691 243.077 275.302 245.129 271.461 247.33" stroke="#66B0F0" stroke-width="4" stroke-miterlimit="10" stroke-linecap="round" stroke-linejoin="round"/>
<path d="M310.885 238.134C306.596 237.183 301.617 236.474 296.023 236.138C292.797 235.952 289.795 236.045 287.035 236.343C280.191 237.108 274.802 239.16 270.961 241.362" stroke="#66B0F0" stroke-width="4" stroke-miterlimit="10" stroke-linecap="round" stroke-linejoin="round"/>
<path d="M317.035 229.832L328.895 262.142" stroke="#66B0F0" stroke-width="4" stroke-miterlimit="10"/>
<path d="M334.267 267.907H262.68V267.515C263.575 264.605 275.919 253.897 298.445 255.184C317.391 256.266 330.109 261.042 333.409 265.612L334.267 267.907Z" fill="#66B0F0"/>
<path d="M306.892 113.313C306.892 113.313 293.54 120.272 275.005 117.473C270.399 116.783 265.457 115.477 260.348 113.313V90.8528L284.366 75.8916L287.965 81.8798L306.892 113.313Z" fill="#E57281"/>
<path d="M285.69 77.6644C287.125 80.332 287.368 83.5033 286.324 86.3575L275.005 117.474C270.399 116.784 265.457 115.478 260.348 113.314V90.8534L284.477 75.4258L285.69 77.6644Z" fill="#D66574"/>
<path d="M283.62 67.6097C283.62 67.6097 286.436 42.5562 276.422 40.2617C268.777 38.5081 264.973 44.2725 264.973 44.2725C264.973 44.2725 260.833 38.2283 254.418 41.0638C248.321 43.7501 248.749 52.1262 251.491 51.4546C254.232 50.783 248.843 45.4104 243.081 49.3839C236.703 53.7678 243.081 61.0059 243.081 61.0059C243.081 61.0059 238.363 58.73 236.181 63.3751C233.477 69.1394 248.917 81.5636 248.917 81.5636L283.62 67.6097Z" fill="#323232"/>
<path d="M268.365 55.5028L252.347 61.9387C248.487 63.4871 246.603 67.9083 248.151 71.7512L255.144 89.1935C257.717 95.6295 265.102 98.7635 271.516 96.1891L278.173 93.5215C284.607 90.9471 287.74 83.5598 285.166 77.1425L278.173 59.7001C276.626 55.8386 272.206 53.9544 268.365 55.5028Z" fill="#E57281"/>
<path d="M288.392 75.8368L285.166 77.1426L281.66 68.4122L284.886 67.1063C286.807 66.3415 288.97 67.2742 289.735 69.177L290.462 70.9865C291.245 72.8893 290.313 75.0533 288.392 75.8368Z" fill="#E57281"/>
<path d="M251.677 89.8651L254.903 88.5592L251.64 80.4443L248.414 81.7502C246.493 82.515 245.579 84.6977 246.344 86.6005L246.829 87.7944C247.593 89.6972 249.756 90.6299 251.677 89.8651Z" fill="#CA5867"/>
<path d="M284.458 73.0391C283.862 71.5281 284.589 69.8305 286.099 69.2148" stroke="#D66574" stroke-width="3" stroke-miterlimit="10" stroke-linecap="round"/>
<path d="M268.777 64.9607C268.777 64.9607 272.563 66.3784 277.374 64.1025" stroke="#D66574" stroke-width="3" stroke-miterlimit="10" stroke-linecap="round"/>
<path d="M260.777 71.3408C260.777 71.3408 266.428 70.7625 268.479 80.2765" stroke="#D66574" stroke-width="3" stroke-miterlimit="10" stroke-linecap="round"/>
<path d="M276.814 83.3732C276.814 83.3732 268.479 81.1347 268.777 85.4439" stroke="#D66574" stroke-width="3" stroke-miterlimit="10" stroke-linecap="round"/>
<path d="M275.65 74.5495C276.048 74.4085 276.089 73.499 275.742 72.5182C275.395 71.5373 274.791 70.8565 274.393 70.9975C273.995 71.1386 273.953 72.0481 274.301 73.0289C274.648 74.0098 275.252 74.6906 275.65 74.5495Z" fill="#D66574"/>
<path d="M260.267 80.9694C260.665 80.8284 260.707 79.9189 260.359 78.9381C260.012 77.9572 259.408 77.2764 259.01 77.4175C258.612 77.5585 258.571 78.468 258.918 79.4488C259.265 80.4297 259.869 81.1105 260.267 80.9694Z" fill="#D66574"/>
<path d="M275.471 78.1312C278.447 78.1312 280.86 75.7174 280.86 72.7399C280.86 69.7624 278.447 67.3486 275.471 67.3486C272.495 67.3486 270.082 69.7624 270.082 72.7399C270.082 75.7174 272.495 78.1312 275.471 78.1312Z" stroke="#FFCF2D" stroke-width="5" stroke-miterlimit="10" stroke-linecap="round"/>
<path d="M259.62 84.2874C262.596 84.2874 265.009 81.8736 265.009 78.8961C265.009 75.9186 262.596 73.5049 259.62 73.5049C256.643 73.5049 254.23 75.9186 254.23 78.8961C254.23 81.8736 256.643 84.2874 259.62 84.2874Z" stroke="#FFCF2D" stroke-width="5" stroke-miterlimit="10" stroke-linecap="round"/>
<path d="M264.656 76.9554L270.344 74.3438" stroke="#FFCF2D" stroke-width="5" stroke-miterlimit="10" stroke-linecap="round"/>
<path d="M226.542 102.364C226.225 103.092 224.435 103.278 221.731 102.905C217.591 102.346 211.288 100.536 204.575 97.5513C200.734 95.835 197.247 94.0815 194.375 92.4398C188.911 89.3245 185.611 86.6009 186.151 85.3883C186.692 84.1944 190.888 84.7727 196.818 86.6941C200.006 87.7202 203.68 89.1379 207.559 90.8728C214.197 93.8203 219.959 96.6931 223.353 98.9131C225.665 100.405 226.877 101.618 226.542 102.364Z" fill="white" stroke="#FE5244" stroke-width="6" stroke-miterlimit="10"/>
<path d="M258.185 64.5316L253.112 84.1379L248.544 72.7584C246.791 68.3931 248.898 63.3936 253.206 61.5654L258.185 64.5316Z" fill="#CA5867"/>
<path d="M258.372 64.1775L248.303 81.6385C247.146 83.6532 244.983 84.9031 242.652 84.9031H232.247C230.718 84.9031 229.357 85.8358 228.779 87.2349L223.371 98.9315L221.786 102.345C217.217 101.73 210.859 99.7523 204.78 97.0474C202.505 96.04 200.286 94.9767 198.234 93.9134L200.976 88.1863L205.88 77.9448C208.229 72.4043 212.276 67.7406 217.441 64.6439L227.585 58.5437C228.928 57.7416 230.476 57.3125 232.042 57.3125H249.272C250.223 57.3125 251.156 57.5177 251.995 57.9281L257.179 60.3906C258.615 61.0808 259.155 62.8157 258.372 64.1775Z" fill="#E57281"/>
<path d="M234.02 64.7373H246.327C247.241 64.7373 248.136 64.9425 248.956 65.3343L253.935 67.7221C255.296 68.375 255.818 70.0539 255.072 71.3598" stroke="#D66574" stroke-width="3" stroke-miterlimit="10" stroke-linecap="round"/>
<path d="M230.961 70.0352H243.268C244.182 70.0352 245.077 70.2404 245.898 70.6321L250.876 73.0199C252.238 73.6729 252.76 75.3518 252.014 76.6576" stroke="#D66574" stroke-width="3" stroke-miterlimit="10" stroke-linecap="round"/>
<path d="M227.363 76.9561H239.671C240.584 76.9561 241.479 77.1613 242.3 77.553L247.279 79.9408C248.64 80.5938 249.162 82.2727 248.416 83.5785" stroke="#D66574" stroke-width="3" stroke-miterlimit="10" stroke-linecap="round"/>
<path d="M221.806 102.346C217.237 101.73 210.878 99.7528 204.799 97.0479C202.524 96.0405 200.305 94.9772 198.254 93.9138L201.349 87.5898C203.419 88.3733 205.452 89.2688 207.727 90.2948C214.365 93.2423 220.165 96.3203 223.559 98.5403L221.806 102.346Z" fill="#CA5867"/>
<path d="M223.727 84.3994H232.454" stroke="#D66574" stroke-width="3" stroke-miterlimit="10" stroke-linecap="round"/>
<path d="M315.769 231.326C318.231 231.326 320.226 222.999 320.226 212.727C320.226 202.455 318.231 194.128 315.769 194.128C313.308 194.128 311.312 202.455 311.312 212.727C311.312 222.999 313.308 231.326 315.769 231.326Z" fill="white"/>
<path d="M320.225 212.727C320.225 215.917 320.039 218.92 319.685 221.55C318.529 224.498 316.16 226.83 313.177 227.93C311.965 228.378 310.641 228.639 309.261 228.639H292.348C290.222 228.639 288.488 230.374 288.488 232.501V233.023C288.488 236.138 285.168 238.153 282.408 236.698L274.465 232.538C273.047 231.792 272.152 230.318 272.152 228.714V222.502C272.152 220.17 273.253 217.987 275.099 216.588L287.219 207.466C289.271 205.918 291.769 205.097 294.324 205.097H319.815C320.095 207.429 320.225 210.003 320.225 212.727Z" fill="#E57281"/>
<path d="M290.278 211.104L279.145 219.48C277.448 220.767 276.441 222.781 276.441 224.908V230.617C276.441 232.09 277.262 233.452 278.567 234.124" stroke="#9A3B82" stroke-width="5" stroke-miterlimit="10" stroke-linecap="round"/>
<path d="M295.946 213.604L284.813 221.98C283.116 223.267 282.109 225.281 282.109 227.408V233.117C282.109 234.59 282.93 235.952 284.235 236.624" stroke="#9A3B82" stroke-width="5" stroke-miterlimit="10" stroke-linecap="round"/>
<path d="M320.225 212.727C320.225 215.917 320.038 218.92 319.684 221.55C318.528 224.498 316.16 226.83 313.176 227.93C312.039 224.554 311.293 219.013 311.293 212.727C311.293 210.003 311.442 207.429 311.685 205.097H319.833C320.094 207.429 320.225 210.003 320.225 212.727Z" fill="#9A3B82"/>
<path d="M352.616 239.832C363.78 239.832 372.83 239.072 372.83 238.134C372.83 237.197 363.78 236.437 352.616 236.437C341.452 236.437 332.402 237.197 332.402 238.134C332.402 239.072 341.452 239.832 352.616 239.832Z" fill="#FFCF2D"/>
<path d="M369.436 239.421H361.082C353.324 239.421 347.059 233.134 347.059 225.392V213.472H383.477V225.374C383.477 233.134 377.193 239.421 369.436 239.421Z" fill="white" stroke="#FFCF2D" stroke-width="6" stroke-miterlimit="10"/>
<path d="M388.57 223.676H383.461V214.591H388.57C390.752 214.591 392.542 216.363 392.542 218.564V219.721C392.542 221.904 390.752 223.676 388.57 223.676Z" stroke="#FFCF2D" stroke-width="6" stroke-miterlimit="10"/>
<path d="M365.258 217.016C375.403 217.016 383.626 215.371 383.626 213.341C383.626 211.311 375.403 209.666 365.258 209.666C355.114 209.666 346.891 211.311 346.891 213.341C346.891 215.371 355.114 217.016 365.258 217.016Z" fill="#444444" stroke="white" stroke-width="5" stroke-miterlimit="10"/>
<path d="M347.078 216.326C347.078 218.36 355.227 220.001 365.259 220.001C375.292 220.001 383.441 218.36 383.441 216.326" stroke="#FFCF2D" stroke-width="6" stroke-miterlimit="10"/>
<path d="M347.078 220.225C347.078 222.258 355.227 223.9 365.259 223.9C375.292 223.9 383.441 222.258 383.441 220.225" stroke="#FFCF2D" stroke-width="6" stroke-miterlimit="10"/>
<path d="M347.078 224.124C347.078 226.157 355.227 227.799 365.259 227.799C375.292 227.799 383.441 226.157 383.441 224.124" stroke="#FFCF2D" stroke-width="6" stroke-miterlimit="10"/>
<path d="M347.359 228.022C347.359 230.056 355.378 231.697 365.261 231.697C375.144 231.697 383.162 230.056 383.162 228.022" stroke="#FFCF2D" stroke-width="6" stroke-miterlimit="10"/>
<path d="M348.758 231.922C348.758 233.955 356.142 235.597 365.261 235.597C374.379 235.597 381.764 233.955 381.764 231.922" stroke="#FFCF2D" stroke-width="6" stroke-miterlimit="10"/>
<path d="M364.533 206.812C362.743 205.581 357.167 193.847 364.067 189.053C369.363 185.359 370.388 194.929 367.946 194.127C363.694 192.728 361.102 173.998 372.197 175.155C377.083 175.659 376.542 182.617 372.197 182.803" stroke="white" stroke-width="5" stroke-miterlimit="10" stroke-linecap="round"/>
<path d="M147.663 261.62H56.0108C53.5493 261.62 51.3489 260.128 50.4352 257.852L25.3544 195.843C24.161 192.877 26.3427 189.631 29.5314 189.631H121.184C123.645 189.631 125.845 191.123 126.759 193.399L151.84 255.408C153.052 258.374 150.87 261.62 147.663 261.62Z" fill="white" stroke="#FFCF2D" stroke-width="6" stroke-miterlimit="10"/>
<path d="M143.411 262.068H55.9734C53.6425 262.068 51.5353 260.65 50.6589 258.486L26.7342 199.332C25.5967 196.496 27.6666 193.418 30.7248 193.418H118.163C120.493 193.418 122.601 194.836 123.477 197L147.402 256.154C148.539 258.99 146.451 262.068 143.411 262.068Z" fill="#FFCF2D"/>
<path d="M89.7271 235.167C87.1537 235.167 84.7296 234.16 82.9021 232.332C81.4103 230.839 80.5898 228.862 80.5898 226.772C80.5898 224.664 81.4103 222.687 82.9021 221.213C84.1142 220.001 85.7365 219.329 87.4521 219.329C89.1676 219.329 90.79 220.001 92.002 221.213C94.0719 223.284 94.0719 226.642 92.002 228.712C90.2865 230.429 87.508 230.429 85.7925 228.712C85.4941 228.414 85.4941 227.948 85.7925 227.649C86.0908 227.351 86.557 227.351 86.8554 227.649C87.9929 228.787 89.8203 228.787 90.9578 227.649C92.4496 226.157 92.4496 223.75 90.9578 222.258C90.0254 221.325 88.776 220.803 87.4521 220.803C86.1281 220.803 84.8787 221.325 83.9464 222.258C82.7343 223.47 82.0816 225.056 82.0816 226.772C82.0816 228.47 82.7529 230.074 83.9464 231.287C85.4941 232.835 87.5267 233.675 89.7084 233.675C91.8902 233.675 93.9414 232.835 95.4705 231.287C95.7688 230.988 96.235 230.988 96.5334 231.287C96.8317 231.585 96.8317 232.052 96.5334 232.35C94.7246 234.16 92.3004 235.167 89.7271 235.167Z" fill="white"/>
<path d="M180.464 268.187H56.1232C54.6874 268.187 53.5312 267.03 53.5312 265.594V264.344C53.5312 262.908 54.6874 261.751 56.1232 261.751H180.464C181.9 261.751 183.056 262.908 183.056 264.344V265.594C183.038 267.03 181.881 268.187 180.464 268.187Z" fill="white" stroke="#FFCF2D" stroke-width="6" stroke-miterlimit="10"/>
</svg>
