<svg width="58" height="58" viewBox="0 0 58 58" fill="none" xmlns="http://www.w3.org/2000/svg">
<path d="M25.7582 30.6469H46.8563C47.8272 30.6469 48.6144 29.8597 48.6144 28.8887V21.8561C48.6144 20.8851 47.8272 20.0979 46.8563 20.0979H41.5817V11.307C41.5817 10.336 40.7946 9.54883 39.8236 9.54883H32.7909C31.8199 9.54883 31.0327 10.336 31.0327 11.307V16.5815H25.7582C24.7872 16.5815 24 17.3687 24 18.3397V28.8887C24 29.8597 24.7872 30.6469 25.7582 30.6469ZM41.5817 21.6142H47.0981V29.1306H41.5817V21.6142ZM32.549 11.0652H40.0654V29.1306H32.549V11.0652ZM25.5163 18.0979H31.0327V29.1306H25.5163V18.0979Z" fill="white"/>
<circle cx="35.6523" cy="21.5" r="20.5" stroke="white" stroke-width="2"/>
<mask id="path-3-inside-1" fill="white">
<path fill-rule="evenodd" clip-rule="evenodd" d="M19.6759 33.8555L2.04867 50.658C0.449619 52.1822 0.423421 54.6804 1.99016 56.2379L2.13011 56.377C3.69685 57.9345 6.26324 57.9614 7.86229 56.4371L25.8466 39.2942C23.4563 37.8706 21.3623 36.0216 19.6759 33.8555Z"/>
</mask>
<path d="M2.04867 50.658L0.668729 49.2103H0.668729L2.04867 50.658ZM19.6759 33.8555L21.254 32.6268L19.896 30.8826L18.2959 32.4078L19.6759 33.8555ZM1.99016 56.2379L0.580157 57.6563L0.580161 57.6563L1.99016 56.2379ZM2.13011 56.377L3.54012 54.9586L3.54011 54.9586L2.13011 56.377ZM7.86229 56.4371L6.48235 54.9895H6.48235L7.86229 56.4371ZM25.8466 39.2942L27.2266 40.7418L29.1337 38.924L26.87 37.5758L25.8466 39.2942ZM3.42862 52.1057L21.0558 35.3031L18.2959 32.4078L0.668729 49.2103L3.42862 52.1057ZM3.40016 54.8195C2.63174 54.0556 2.64435 52.8532 3.42862 52.1057L0.668729 49.2103C-1.74512 51.5112 -1.7849 55.3053 0.580157 57.6563L3.40016 54.8195ZM3.54011 54.9586L3.40015 54.8195L0.580161 57.6563L0.720117 57.7954L3.54011 54.9586ZM6.48235 54.9895C5.66764 55.766 4.33835 55.7521 3.54012 54.9586L0.720113 57.7954C3.05535 60.1168 6.85883 60.1567 9.24223 57.8848L6.48235 54.9895ZM24.4667 37.8465L6.48235 54.9895L9.24223 57.8848L27.2266 40.7418L24.4667 37.8465ZM26.87 37.5758C24.6921 36.2788 22.7867 34.5955 21.254 32.6268L18.0978 35.0841C19.938 37.4478 22.2205 39.4624 24.8233 41.0125L26.87 37.5758Z" fill="white" mask="url(#path-3-inside-1)"/>
</svg>
