<svg width="67" height="60" viewBox="0 0 67 60" fill="none" xmlns="http://www.w3.org/2000/svg">
<path d="M65.0437 27.8775H50.4488V25.059C50.4481 24.6473 50.2258 24.2679 49.8669 24.0662L34.2335 15.2796V10.8064H37.326V12.5067C37.326 13.1368 37.8369 13.6478 38.4671 13.6478H47.79C48.4202 13.6475 48.9309 13.1364 48.9307 12.5062C48.9307 12.3741 48.9076 12.2431 48.8627 12.1187L47.927 9.45987L48.8741 6.85812C49.0883 6.26545 48.7817 5.61131 48.189 5.39706C48.0648 5.35213 47.9337 5.32916 47.8014 5.32902H43.5565V3.6744C43.5565 3.04422 43.0455 2.53328 42.4154 2.53328H34.2335V1.14112C34.2335 0.510936 33.7226 0 33.0924 0C32.4622 0 31.9513 0.510936 31.9513 1.14112V15.2796L16.318 24.0548C15.9591 24.2565 15.7367 24.6359 15.736 25.0475V27.8661H1.14112C0.510936 27.8661 0 28.377 0 29.0072V58.8589C0 59.4891 0.510936 60 1.14112 60H65.0437C65.6739 60 66.1849 59.4891 66.1849 58.8589V29.0186C66.1849 28.3885 65.6739 27.8775 65.0437 27.8775ZM43.5565 9.66527L43.5108 9.61963V7.6569H46.1126L45.6447 9.11753C45.5513 9.37172 45.5513 9.65072 45.6447 9.90491L46.1811 11.3655H39.6082V10.8064H42.4154C43.0455 10.8064 43.5565 10.2955 43.5565 9.66527ZM34.2335 4.81552H41.2742V8.52415H34.2335V4.81552ZM15.736 57.7178H2.28224V30.1598H15.736V57.7178ZM31.9513 57.7178H25.9604V44.6862H31.9513V57.7178ZM40.2244 57.7178H34.2335V44.6862H40.2244V57.7178ZM48.2122 57.7178H42.5067V43.5451C42.5067 42.9149 41.9957 42.404 41.3655 42.404H24.8193C24.1891 42.404 23.6782 42.9149 23.6782 43.5451V57.7178H17.9726V25.7665L33.0924 17.2537L48.1666 25.7208L48.2122 29.0072V57.7178ZM63.9026 57.7178H50.4488V30.1598H63.9026V57.7178Z" fill="white"/>
<path d="M33.0924 20.7456C30.4499 20.7519 28.3111 22.8958 28.3111 25.5383C28.3174 28.179 30.4631 30.3145 33.1038 30.3082C35.7445 30.3019 37.88 28.1562 37.8737 25.5155C37.8674 22.8794 35.7285 20.7456 33.0924 20.7456ZM33.0924 28.026C31.7122 28.0197 30.5985 26.8957 30.6048 25.5155C30.611 24.1443 31.7211 23.0341 33.0924 23.0279C34.4744 23.0341 35.5915 24.1563 35.5915 25.5383H35.6029C35.5966 26.9185 34.4726 28.0322 33.0924 28.026Z" fill="white"/>
<path d="M7.31441 32.67H5.03217V37.2345H7.31441V32.67Z" fill="white"/>
<path d="M12.9406 32.67H10.6583V37.2345H12.9406V32.67Z" fill="white"/>
<path d="M26.0058 32.67H21.4413V34.9523H26.0058V32.67Z" fill="white"/>
<path d="M35.3744 32.67H30.81V34.9523H35.3744V32.67Z" fill="white"/>
<path d="M44.7431 32.67H40.1787V34.9523H44.7431V32.67Z" fill="white"/>
<path d="M26.0058 37.988H21.4413V40.2702H26.0058V37.988Z" fill="white"/>
<path d="M35.3744 37.988H30.81V40.2702H35.3744V37.988Z" fill="white"/>
<path d="M44.7431 37.988H40.1787V40.2702H44.7431V37.988Z" fill="white"/>
<path d="M7.31441 41.651H5.03217V46.2154H7.31441V41.651Z" fill="white"/>
<path d="M12.9406 41.651H10.6583V46.2154H12.9406V41.651Z" fill="white"/>
<path d="M7.31441 50.6428H5.03217V55.2073H7.31441V50.6428Z" fill="white"/>
<path d="M12.9406 50.6428H10.6583V55.2073H12.9406V50.6428Z" fill="white"/>
<path d="M55.5267 32.67H53.2445V37.2345H55.5267V32.67Z" fill="white"/>
<path d="M61.1529 32.67H58.8706V37.2345H61.1529V32.67Z" fill="white"/>
<path d="M55.5267 41.651H53.2445V46.2154H55.5267V41.651Z" fill="white"/>
<path d="M61.1529 41.651H58.8706V46.2154H61.1529V41.651Z" fill="white"/>
<path d="M55.5267 50.6428H53.2445V55.2073H55.5267V50.6428Z" fill="white"/>
<path d="M61.1529 50.6428H58.8706V55.2073H61.1529V50.6428Z" fill="white"/>
</svg>
