<svg width="66" height="62" viewBox="0 0 66 62" fill="none" xmlns="http://www.w3.org/2000/svg">
<path d="M1.37718 28.3771C-0.635338 46.8967 17.381 61.4909 33.7865 60.9877M1.37718 28.3771C1.31992 49.8505 66.7709 49.6896 64.686 28.3771M1.37718 28.3771C1.80242 28.3771 2.23989 28.3771 2.68611 28.3771M64.686 28.3771C65.8943 49.0103 50.1919 60.4844 33.7865 60.9877M64.686 28.3771H63.5793M33.7865 60.9877C15.8709 58.2701 17.0786 28.3771 17.0786 28.3771M33.7865 60.9877C48.6827 57.9682 49.4879 28.3771 49.4879 28.3771M17.0786 28.3771C17.0786 28.3771 13.1473 28.3771 8.62446 28.3771M17.0786 28.3771H25.433M49.4879 28.3771H40.7318M49.4879 28.3771H57.7416M8.62446 28.3771V25.3576M8.62446 28.3771C6.66551 28.3771 4.5956 28.3771 2.68611 28.3771M2.68611 28.3771C2.68611 23.3174 3.10617 19.314 8.62446 17.5069H18.4882M46.9721 17.4062H57.339C62.0696 18.5134 63.9819 22.4387 63.5793 28.3771M63.5793 28.3771H57.7416M25.433 28.3771V25.0556M25.433 28.3771H40.7318M40.7318 28.3771V25.0556M57.7416 28.3771V25.3576" stroke="white" stroke-width="2" stroke-linecap="round" stroke-linejoin="round"/>
<path d="M1.43187 28.3764C-0.580651 46.896 17.4357 61.4903 33.8412 60.987M1.43187 28.3764C1.3746 49.8498 66.8256 49.689 64.7407 28.3764M1.43187 28.3764C1.85711 28.3764 2.29457 28.3764 2.7408 28.3764M64.7407 28.3764C65.949 49.0097 50.2466 60.4838 33.8412 60.987M64.7407 28.3764H63.634M33.8412 60.987C15.9256 58.2695 17.1333 28.3764 17.1333 28.3764M33.8412 60.987C48.7374 57.9675 49.5426 28.3764 49.5426 28.3764M17.1333 28.3764C17.1333 28.3764 13.2019 28.3764 8.67914 28.3764M17.1333 28.3764H19.2937M49.5426 28.3764H57.7963M49.5426 28.3764H47.0268M8.67914 28.3764V25.3569M8.67914 28.3764C6.7202 28.3764 4.65029 28.3764 2.7408 28.3764M2.7408 28.3764C2.7408 23.3168 3.16086 19.3134 8.67914 17.5062H18.5428M47.0268 17.4056H57.3937C62.1243 18.5127 64.0366 22.4381 63.634 28.3764M63.634 28.3764H57.7963M25.4877 28.3764V25.055M25.4877 28.3764H40.7865M25.4877 28.3764H19.2937M40.7865 28.3764V25.055M40.7865 28.3764H47.0268M57.7963 28.3764V25.3569M19.2937 28.3764C18.7412 24.3798 18.845 22.4135 20.4008 19.8212C22.3991 16.9988 25.232 16.0971 27.245 16.2984H39.5243C43.3803 16.3942 46.4692 19.318 47.0268 22.2368V28.3764" stroke="white" stroke-width="2" stroke-linecap="round" stroke-linejoin="round"/>
<circle cx="15.5702" cy="9.25286" r="6.039" stroke="white" stroke-width="2" stroke-linecap="round" stroke-linejoin="round"/>
<circle cx="50.5937" cy="9.25286" r="6.039" stroke="white" stroke-width="2" stroke-linecap="round" stroke-linejoin="round"/>
<circle cx="33.0825" cy="7.8442" r="6.8442" stroke="white" stroke-width="2" stroke-linecap="round" stroke-linejoin="round"/>
</svg>
