<svg width="119" height="112" viewBox="0 0 119 112" fill="none" xmlns="http://www.w3.org/2000/svg">
<path d="M116.337 111.236C117.692 111.236 118.79 110.137 118.79 108.782C118.79 107.427 117.692 106.328 116.337 106.328C114.981 106.328 113.883 107.427 113.883 108.782C113.883 110.137 114.981 111.236 116.337 111.236Z" fill="#F4D067"/>
<path d="M116.337 90.0325C117.692 90.0325 118.79 88.9339 118.79 87.5787C118.79 86.2236 117.692 85.125 116.337 85.125C114.981 85.125 113.883 86.2236 113.883 87.5787C113.883 88.9339 114.981 90.0325 116.337 90.0325Z" fill="#F4D067"/>
<path d="M116.337 68.8421C117.692 68.8421 118.79 67.7435 118.79 66.3883C118.79 65.0331 117.692 63.9346 116.337 63.9346C114.981 63.9346 113.883 65.0331 113.883 66.3883C113.883 67.7435 114.981 68.8421 116.337 68.8421Z" fill="#F4D067"/>
<path d="M116.337 47.8303C117.692 47.8303 118.79 46.7317 118.79 45.3766C118.79 44.0214 117.692 42.9229 116.337 42.9229C114.981 42.9229 113.883 44.0214 113.883 45.3766C113.883 46.7317 114.981 47.8303 116.337 47.8303Z" fill="#F4D067"/>
<path d="M116.337 26.6292C117.692 26.6292 118.79 25.5306 118.79 24.1754C118.79 22.8203 117.692 21.7217 116.337 21.7217C114.981 21.7217 113.883 22.8203 113.883 24.1754C113.883 25.5306 114.981 26.6292 116.337 26.6292Z" fill="#F4D067"/>
<path d="M116.337 5.61158C117.692 5.61158 118.79 4.513 118.79 3.15784C118.79 1.80268 117.692 0.704102 116.337 0.704102C114.981 0.704102 113.883 1.80268 113.883 3.15784C113.883 4.513 114.981 5.61158 116.337 5.61158Z" fill="#F4D067"/>
<path d="M93.7311 111.236C95.0862 111.236 96.1848 110.137 96.1848 108.782C96.1848 107.427 95.0862 106.328 93.7311 106.328C92.3759 106.328 91.2773 107.427 91.2773 108.782C91.2773 110.137 92.3759 111.236 93.7311 111.236Z" fill="#F4D067"/>
<path d="M93.7311 90.0325C95.0862 90.0325 96.1848 88.9339 96.1848 87.5787C96.1848 86.2236 95.0862 85.125 93.7311 85.125C92.3759 85.125 91.2773 86.2236 91.2773 87.5787C91.2773 88.9339 92.3759 90.0325 93.7311 90.0325Z" fill="#F4D067"/>
<path d="M93.7311 68.8421C95.0862 68.8421 96.1848 67.7435 96.1848 66.3883C96.1848 65.0331 95.0862 63.9346 93.7311 63.9346C92.3759 63.9346 91.2773 65.0331 91.2773 66.3883C91.2773 67.7435 92.3759 68.8421 93.7311 68.8421Z" fill="#F4D067"/>
<path d="M93.7311 47.8303C95.0862 47.8303 96.1848 46.7317 96.1848 45.3766C96.1848 44.0214 95.0862 42.9229 93.7311 42.9229C92.3759 42.9229 91.2773 44.0214 91.2773 45.3766C91.2773 46.7317 92.3759 47.8303 93.7311 47.8303Z" fill="#F4D067"/>
<path d="M93.7311 26.6282C95.0862 26.6282 96.1848 25.5296 96.1848 24.1744C96.1848 22.8193 95.0862 21.7207 93.7311 21.7207C92.3759 21.7207 91.2773 22.8193 91.2773 24.1744C91.2773 25.5296 92.3759 26.6282 93.7311 26.6282Z" fill="#F4D067"/>
<path d="M93.7311 5.61158C95.0862 5.61158 96.1848 4.513 96.1848 3.15784C96.1848 1.80268 95.0862 0.704102 93.7311 0.704102C92.3759 0.704102 91.2773 1.80268 91.2773 3.15784C91.2773 4.513 92.3759 5.61158 93.7311 5.61158Z" fill="#F4D067"/>
<path d="M70.9733 111.219C72.3284 111.219 73.427 110.12 73.427 108.765C73.427 107.41 72.3284 106.312 70.9733 106.312C69.6181 106.312 68.5195 107.41 68.5195 108.765C68.5195 110.12 69.6181 111.219 70.9733 111.219Z" fill="#F4D067"/>
<path d="M70.9733 90.0325C72.3284 90.0325 73.427 88.9339 73.427 87.5787C73.427 86.2236 72.3284 85.125 70.9733 85.125C69.6181 85.125 68.5195 86.2236 68.5195 87.5787C68.5195 88.9339 69.6181 90.0325 70.9733 90.0325Z" fill="#F4D067"/>
<path d="M70.9733 68.8421C72.3284 68.8421 73.427 67.7435 73.427 66.3883C73.427 65.0331 72.3284 63.9346 70.9733 63.9346C69.6181 63.9346 68.5195 65.0331 68.5195 66.3883C68.5195 67.7435 69.6181 68.8421 70.9733 68.8421Z" fill="#F4D067"/>
<path d="M70.9733 47.8303C72.3284 47.8303 73.427 46.7317 73.427 45.3766C73.427 44.0214 72.3284 42.9229 70.9733 42.9229C69.6181 42.9229 68.5195 44.0214 68.5195 45.3766C68.5195 46.7317 69.6181 47.8303 70.9733 47.8303Z" fill="#F4D067"/>
<path d="M70.9733 26.6292C72.3284 26.6292 73.427 25.5306 73.427 24.1754C73.427 22.8203 72.3284 21.7217 70.9733 21.7217C69.6181 21.7217 68.5195 22.8203 68.5195 24.1754C68.5195 25.5306 69.6181 26.6292 70.9733 26.6292Z" fill="#F4D067"/>
<path d="M70.9733 5.61158C72.3284 5.61158 73.427 4.513 73.427 3.15784C73.427 1.80268 72.3284 0.704102 70.9733 0.704102C69.6181 0.704102 68.5195 1.80268 68.5195 3.15784C68.5195 4.513 69.6181 5.61158 70.9733 5.61158Z" fill="#F4D067"/>
<path d="M48.2037 111.236C49.5589 111.236 50.6575 110.137 50.6575 108.782C50.6575 107.427 49.5589 106.328 48.2037 106.328C46.8486 106.328 45.75 107.427 45.75 108.782C45.75 110.137 46.8486 111.236 48.2037 111.236Z" fill="#F4D067"/>
<path d="M48.2037 90.0325C49.5589 90.0325 50.6575 88.9339 50.6575 87.5787C50.6575 86.2236 49.5589 85.125 48.2037 85.125C46.8486 85.125 45.75 86.2236 45.75 87.5787C45.75 88.9339 46.8486 90.0325 48.2037 90.0325Z" fill="#F4D067"/>
<path d="M48.2037 68.8421C49.5589 68.8421 50.6575 67.7435 50.6575 66.3883C50.6575 65.0331 49.5589 63.9346 48.2037 63.9346C46.8486 63.9346 45.75 65.0331 45.75 66.3883C45.75 67.7435 46.8486 68.8421 48.2037 68.8421Z" fill="#F4D067"/>
<path d="M48.2037 47.8303C49.5589 47.8303 50.6575 46.7317 50.6575 45.3766C50.6575 44.0214 49.5589 42.9229 48.2037 42.9229C46.8486 42.9229 45.75 44.0214 45.75 45.3766C45.75 46.7317 46.8486 47.8303 48.2037 47.8303Z" fill="#F4D067"/>
<path d="M48.2037 26.6292C49.5589 26.6292 50.6575 25.5306 50.6575 24.1754C50.6575 22.8203 49.5589 21.7217 48.2037 21.7217C46.8486 21.7217 45.75 22.8203 45.75 24.1754C45.75 25.5306 46.8486 26.6292 48.2037 26.6292Z" fill="#F4D067"/>
<path d="M48.2037 5.61158C49.5589 5.61158 50.6575 4.513 50.6575 3.15784C50.6575 1.80268 49.5589 0.704102 48.2037 0.704102C46.8486 0.704102 45.75 1.80268 45.75 3.15784C45.75 4.513 46.8486 5.61158 48.2037 5.61158Z" fill="#F4D067"/>
<path d="M25.4225 111.225C26.7777 111.225 27.8762 110.126 27.8762 108.771C27.8762 107.416 26.7777 106.317 25.4225 106.317C24.0673 106.317 22.9688 107.416 22.9688 108.771C22.9688 110.126 24.0673 111.225 25.4225 111.225Z" fill="#F4D067"/>
<path d="M25.4225 90.0325C26.7777 90.0325 27.8762 88.9339 27.8762 87.5787C27.8762 86.2236 26.7777 85.125 25.4225 85.125C24.0673 85.125 22.9688 86.2236 22.9688 87.5787C22.9688 88.9339 24.0673 90.0325 25.4225 90.0325Z" fill="#F4D067"/>
<path d="M25.4225 68.8421C26.7777 68.8421 27.8762 67.7435 27.8762 66.3883C27.8762 65.0331 26.7777 63.9346 25.4225 63.9346C24.0673 63.9346 22.9688 65.0331 22.9688 66.3883C22.9688 67.7435 24.0673 68.8421 25.4225 68.8421Z" fill="#F4D067"/>
<path d="M25.4225 47.8303C26.7777 47.8303 27.8762 46.7317 27.8762 45.3766C27.8762 44.0214 26.7777 42.9229 25.4225 42.9229C24.0673 42.9229 22.9688 44.0214 22.9688 45.3766C22.9688 46.7317 24.0673 47.8303 25.4225 47.8303Z" fill="#F4D067"/>
<path d="M25.4225 26.6399C26.7777 26.6399 27.8762 25.5413 27.8762 24.1862C27.8762 22.831 26.7777 21.7324 25.4225 21.7324C24.0673 21.7324 22.9688 22.831 22.9688 24.1862C22.9688 25.5413 24.0673 26.6399 25.4225 26.6399Z" fill="#F4D067"/>
<path d="M25.4225 5.61158C26.7777 5.61158 27.8762 4.513 27.8762 3.15784C27.8762 1.80268 26.7777 0.704102 25.4225 0.704102C24.0673 0.704102 22.9688 1.80268 22.9688 3.15784C22.9688 4.513 24.0673 5.61158 25.4225 5.61158Z" fill="#F4D067"/>
<path d="M2.84046 111.225C4.19562 111.225 5.29419 110.126 5.29419 108.771C5.29419 107.416 4.19562 106.317 2.84046 106.317C1.48529 106.317 0.386719 107.416 0.386719 108.771C0.386719 110.126 1.48529 111.225 2.84046 111.225Z" fill="#F4D067"/>
<path d="M2.84046 90.0325C4.19562 90.0325 5.29419 88.9339 5.29419 87.5787C5.29419 86.2236 4.19562 85.125 2.84046 85.125C1.48529 85.125 0.386719 86.2236 0.386719 87.5787C0.386719 88.9339 1.48529 90.0325 2.84046 90.0325Z" fill="#F4D067"/>
<path d="M2.84046 68.8411C4.19562 68.8411 5.29419 67.7425 5.29419 66.3873C5.29419 65.0322 4.19562 63.9336 2.84046 63.9336C1.48529 63.9336 0.386719 65.0322 0.386719 66.3873C0.386719 67.7425 1.48529 68.8411 2.84046 68.8411Z" fill="#F4D067"/>
<path d="M2.84046 47.8137C4.19562 47.8137 5.29419 46.7151 5.29419 45.36C5.29419 44.0048 4.19562 42.9062 2.84046 42.9062C1.48529 42.9062 0.386719 44.0048 0.386719 45.36C0.386719 46.7151 1.48529 47.8137 2.84046 47.8137Z" fill="#F4D067"/>
<path d="M2.84046 26.6233C4.19562 26.6233 5.29419 25.5247 5.29419 24.1696C5.29419 22.8144 4.19562 21.7158 2.84046 21.7158C1.48529 21.7158 0.386719 22.8144 0.386719 24.1696C0.386719 25.5247 1.48529 26.6233 2.84046 26.6233Z" fill="#F4D067"/>
<path d="M2.84046 5.6106C4.19562 5.6106 5.29419 4.51202 5.29419 3.15686C5.29419 1.8017 4.19562 0.703125 2.84046 0.703125C1.48529 0.703125 0.386719 1.8017 0.386719 3.15686C0.386719 4.51202 1.48529 5.6106 2.84046 5.6106Z" fill="#F4D067"/>
</svg>
