<svg width="19" height="13" viewBox="0 0 19 13" fill="none" xmlns="http://www.w3.org/2000/svg">
<path d="M2.8508 5.57143C3.87895 5.57143 4.71487 4.73862 4.71487 3.71429C4.71487 2.68996 3.87895 1.85714 2.8508 1.85714C1.82264 1.85714 0.986724 2.68996 0.986724 3.71429C0.986724 4.73862 1.82264 5.57143 2.8508 5.57143ZM15.8993 5.57143C16.9275 5.57143 17.7634 4.73862 17.7634 3.71429C17.7634 2.68996 16.9275 1.85714 15.8993 1.85714C14.8712 1.85714 14.0352 2.68996 14.0352 3.71429C14.0352 4.73862 14.8712 5.57143 15.8993 5.57143ZM16.8313 6.5H14.9673C14.4546 6.5 13.9915 6.70603 13.6537 7.03973C14.8275 7.68103 15.6605 8.83884 15.8411 10.2143H17.7634C18.2789 10.2143 18.6954 9.79933 18.6954 9.28571V8.35714C18.6954 7.33281 17.8595 6.5 16.8313 6.5ZM9.37505 6.5C11.178 6.5 12.6372 5.04621 12.6372 3.25C12.6372 1.45379 11.178 0 9.37505 0C7.57214 0 6.11292 1.45379 6.11292 3.25C6.11292 5.04621 7.57214 6.5 9.37505 6.5ZM11.6119 7.42857H11.3702C10.7644 7.71875 10.0916 7.89286 9.37505 7.89286C8.65855 7.89286 7.98865 7.71875 7.37991 7.42857H7.13816C5.28574 7.42857 3.78283 8.92589 3.78283 10.7714V11.6071C3.78283 12.3761 4.40904 13 5.18089 13H13.5692C14.3411 13 14.9673 12.3761 14.9673 11.6071V10.7714C14.9673 8.92589 13.4644 7.42857 11.6119 7.42857ZM5.09642 7.03973C4.75856 6.70603 4.29545 6.5 3.78283 6.5H1.91876C0.890608 6.5 0.0546875 7.33281 0.0546875 8.35714V9.28571C0.0546875 9.79933 0.471191 10.2143 0.986724 10.2143H2.90614C3.08963 8.83884 3.92264 7.68103 5.09642 7.03973Z" fill="#F4D067"/>
</svg>
