<svg width="31" height="25" viewBox="0 0 31 25" fill="none" xmlns="http://www.w3.org/2000/svg">
<path d="M26.5609 3.86604C27.9114 3.03701 28.8056 1.90544 29.2435 0.466333C28.0101 1.13342 26.6865 1.61816 25.314 1.90544C24.139 0.641834 22.6514 0 20.868 0C19.1246 0 17.6521 0.611748 16.4503 1.80181C15.87 2.36694 15.4111 3.04461 15.1018 3.79331C14.7926 4.542 14.6395 5.34596 14.6519 6.15592C14.6519 6.67239 14.717 7.13371 14.8474 7.52483C9.70606 7.34933 5.45057 5.21657 2.09766 1.11151C1.52937 2.11604 1.24522 3.13897 1.24522 4.19699C1.24522 6.37154 2.16285 8.09479 3.99475 9.36007C2.95009 9.27149 2.02913 9.0074 1.24522 8.5745C1.24522 10.1273 1.70153 11.4243 2.61581 12.5659C3.50394 13.6783 4.75555 14.4423 6.15091 14.7237C5.62942 14.8574 5.07951 14.921 4.51456 14.921C3.99307 14.921 3.62369 14.8775 3.40473 14.7822C3.78916 16.0475 4.51456 17.0738 5.56256 17.8594C6.59858 18.646 7.85882 19.0811 9.1595 19.1012C6.93314 20.8479 4.38753 21.712 1.50764 21.712C0.802292 21.712 0.302531 21.702 0 21.6485C2.83644 23.4904 5.99379 24.4047 9.4871 24.4047C13.0623 24.4047 16.2213 23.4988 18.9709 21.687C21.7204 19.8851 23.7495 17.6621 25.0532 15.0446C26.3425 12.5119 27.0138 9.70994 27.0122 6.86795V6.08572C28.2139 5.19973 29.2542 4.11361 30.0876 2.87488C28.9621 3.36271 27.7758 3.69612 26.5609 3.86604Z" fill="white"/>
</svg>
